<svg xmlns="http://www.w3.org/2000/svg" width="1122.52" height="1587.402" viewBox="0 0 1122.52 1587.402"><defs><clipPath id="a" clipPathUnits="userSpaceOnUse"><path d="M0 0h842v1191H0Z"/></clipPath><clipPath id="b" clipPathUnits="userSpaceOnUse"><path d="M0 0h842v1191H0Z"/></clipPath><clipPath id="c" clipPathUnits="userSpaceOnUse"><path d="M0 0h842v1191H0Z"/></clipPath></defs><path d="M2.363 0H848.75v1193.926H2.363Z" style="fill:#242424;fill-opacity:1;fill-rule:nonzero;stroke:none" transform="scale(1.33333)"/><path d="M618.609 1012.004s-16.367-259.551 264.629-779.676 163.688 49.649 163.688 49.649L817.762 135.395 569.504 733.539l-30.008 234.059 30.008 82.746z" style="fill:maroon;fill-opacity:1;fill-rule:nonzero;stroke:none" transform="scale(1.33333)"/><path d="M309.414 1028.289s8.207-298.891 206.746-676.316c90.356-171.762 72.031-144.176 72.031-144.176h266.7s-314.536 521.555-278.793 812.012c35.738 290.457-266.684 8.48-266.684 8.48" style="fill:#c40303;fill-opacity:1;fill-rule:nonzero;stroke:none" transform="scale(1.33333)"/><path d="m259.145 1211.602-6.125-184.887 205.253-76.305 12.254 255.32z" style="fill:#c87137;fill-opacity:1;fill-rule:nonzero;stroke:none" transform="scale(1.33333)"/><path d="m457.516 950.609 200.191 67.985 3.129 189.176-193.938-11.825z" style="fill:#a05a2c;fill-opacity:1;fill-rule:nonzero;stroke:none" transform="scale(1.33333)"/><path d="M2.121-9.133h846.09v236.031H2.121Z" style="fill:#c40303;fill-opacity:1;fill-rule:nonzero;stroke:none" transform="scale(1.33333)"/><path d="M464.168 1195.762c2.898-17.492 2.379-35.719 2.832-53.574.105-4.153 1.844-13.735.438-17.301-.293-.739-1.231-1-1.43-1.785-1.391-5.426 2.496-13.918.48-19.028-1.004-2.539-1.773-4.492-2.773-7.031-1.055-2.668.805-7.465.262-10.379-1.45-7.781-2.582-14.562-2.379-22.601.289-11.528 3.379-35.618-.336-45.036-2.235-5.66 2.886-20.293.652-25.949-.289-.742-1.137-1.043-1.43-1.785-2.015-5.109 1.871-13.602.481-19.031-.199-.782-1.137-1.043-1.43-1.782-1.312-3.332 2.711-16.25.481-19.031-2.981-3.722-9.899 3.656-11.922 4.75-1.637.887-4.418 1.512-5.985 3.239-.359.398.313 1.335-.043 1.73-1.355 1.496-4.351.652-5.941 1.512-1.742.941-2.766 2.351-4.512 3.293-1.304.711-4.64-.535-5.894-.219-1.074.273-1.942 1.25-2.992 1.621-1.258.441-3.243-.805-4.422-.164-.633.34-.852 1.441-1.52 1.672-1.43.504-4.461-.996-5.894-.219-1.746.945-2.77 2.352-4.512 3.297-1.594.863-4.301-1.086-5.899-.223-2.57 1.395-4.882 1.793-7.457 3.188-1.886 1.023-7.386-1.938-8.843-.332-2.481 2.738 4.144-.196-3.082 5.082-.653.476-4.063 2.062-3.035 3.347.628.786 12.57-2.39 13.355-2.964 1.18-.86 1.703-2.883 3.035-3.348 4.781-1.676 11.942-.758 17.777-2.801 1.333-.469 1.708-2.883 3.04-3.351.941-.329 2.003.441 2.945.109 4.648-1.629-.461-1.172 1.562-3.402.715-.793 2.235.898 2.95.109.605-.672.851-2.172 3.035-3.352 2.437-1.32 14.125.528 17.691.661 1.399.05 7.981-.75 8.844.328.336.422-.25 1.207-.043 1.73 1.785 4.531.152 6.305 1.211 10.434.816 3.183 1.914 5.578 2.73 8.762.516 2.023-.922 5.031-.175 6.921.293.739 1.136 1.043 1.429 1.782.414 1.05-.761 2.621-.086 3.461.336.421 1.137-.364 1.473.054.746.934-.422 5.59-.176 6.922 3.176 17.039 2.121 32.856 1.637 52.008-.172 6.734 1.098 21.93-.699 27.68-4.836 15.472 2.664-15.832-1.739 10.328-.914 5.433-4.519 5.258-3.296 13.726.519 3.602 2.167 6.895 2.687 10.493.34 2.371-1.078 6.472-.219 8.648.289.742 1.231 1.004 1.43 1.785 1.496 5.848-2.707 15.234-.527 20.762 1.156 2.922 3.347 5.461 4.207 8.812 3.078 12.024 2.355 23.5 2.027 36.442" style="fill:maroon;fill-opacity:1;fill-rule:nonzero;stroke:none" transform="scale(1.33333)"/><path d="m477.148 1134.039-.164-1.519.25-1.836.321-2.387-.055-.942.246-1.835.379-1.442.559-1.422.195-1.468.199-1.469-.137-1.699.278-.711.461-.688.172-1.285.175-1.285.477-2.176.656-2.156.863-2.313.274-2.019.887-2.496.195-1.469.578-2.914.297-2.203.887-2.496.324-2.387.098-.734.304-.895.582-1.602.352-1.261.355-1.262.149-1.102.683-2.336 1.008-3.417.715-1.211.297-2.204 1-.613.199-1.469.32-2.386.403-1.625.281-.711.937-2.864-.066-2.253.555-2.727.558-1.422.5-2.363.657-2.152.519-3.856s2.219-4.187 3.965.535c1.75 4.719-.695 9.25-.695 9.25l-.274 2.02.242 2.277-.836 2.129-.304.895-.172 1.285-.707 2.519-1.035 3.598-1.2 2.082s.274-2.02 0 0l-.273 2.019-.648 3.465-.989 3.231-.457.687-.937 2.864-.731 2.707-.715 1.21-.656 2.153-.222 1.652.168 2.828-.844.821-1.012 3.414-.707 2.523-1.285 5.434-1.434 1.113.317 1.727-.321 2.386-.347 2.571-.77.269-.625 3.281-1.371 3.364-.715 1.214-.707 2.52-.879 3.809zm32.219 20.742-.84.672v.84l.84.676.672-.676.508-.336zm-6.351-36.996-.098.485-.355-.016-.239.101-.203.536v.492l.07.441.336.145.313.34.019.332.071.437.316.539.484.231.415.058.445-.172.238-.07.547-.223.605-.378.059-.458.02-.359-.114-.379-.203-.16-.187-.324-.203-.391-.321-.043-.125-.511-.586.019.184-.402.129-.481.207-.566.086-.418.074-.781.203-1.032.082-.586.164-1.23.352-2.598.109-1.769.297-.754.305-.817.597-.582.211-1.093.071-.52.273-1.547-.34-.379.324-.484.454-.93.105-.777.277-.625.645-.441.223-.7-.231-1.343.707-.465.121-.918.09-.641.57-1.515.274-1.364.355-1.261.18-2.032.316-1.64.282-2.11-.34-1.543.07-1.203.285-2.113-.406-1.082.176-1.285.172-1.285-.02-1.215.043-1.68.375-2.098.246-1.836.16-1.191.239-1.09.039-.277.261-1.274.149-1.097.047-1.024.871-1.004.137-1.011.457-.684.171-1.285.047-1.024-.519-.91.301-1.547.16-1.195-.02-1.219-.554-.632-.622-.832-.722-.098-.805 1.199-.363 1.352-.082 1.297-.36.609-.55.019-.289 1.457-.567 2.165-.074 1.207-.504 1.707-.457 1.339-.414 1.719-.379 1.446-.789 1.761-.234 1.746.519 2.965-.586 1.606-.324 1.73-.348 2.57-.543 1.985.211.492-.566 2.824-.16 1.192.234.312-.555 2.074-.207 2.215.645.649-.262 1.273.492.441.149 1.606-.098.734-.515 4.512-.305.895-.344.511-.742.742.082 1.415.207 2.55-.508 1.051-.918 2.027-.5 2.364.106 3.285.304 1.16zm18.254 25.949c.058-.421.171-1.261.183-1.867.012-.605-.078-.976-.094-1.406-.007-.43.055-.922.137-1.52.078-.593.176-1.296.293-1.921.121-.629.266-1.18.395-1.875.129-.7.242-1.54.394-2.665.149-1.121.34-2.523.52-3.765.183-1.246.359-2.328.519-3.063.164-.734.317-1.117.383-1.613s.051-1.105.105-1.527c.059-.422.188-.657.344-.887.156-.234.336-.461.469-.898.133-.438.219-1.082.312-1.778.094-.695.196-1.437.418-2.344.219-.906.563-1.972.77-2.777s.281-1.351.34-1.976c.058-.622.105-1.325.164-1.95.058-.621.133-1.168.269-1.629.137-.464.336-.839.465-1.406.125-.562.176-1.312.227-1.863.047-.551.094-.895.16-1.395.066-.496.156-1.14.312-1.574.157-.433.387-.656.536-1.015.148-.356.214-.856.265-1.25.055-.399.094-.696.125-1.098.028-.399.047-.902.098-1.449a22 22 0 0 1 .238-1.789c.113-.641.254-1.329.414-1.965s.34-1.219.512-1.953c.176-.735.344-1.621.469-2.364s.203-1.336.324-2.027c.117-.691.273-1.48.449-2.238.176-.762.375-1.492.61-2.699.238-1.208.515-2.887.722-4.071.211-1.187.356-1.875.485-2.664.132-.793.253-1.683.453-2.617.199-.934.48-1.906.711-2.711.234-.801.418-1.434.523-1.848.106-.418.133-.617.203-.961s.188-.832.36-1.367c.171-.531.398-1.109.562-1.59a15 15 0 0 0 .379-1.339c.109-.465.234-1.004.375-1.692.145-.687.305-1.527.512-1.953.207-.43.457-.445.621-.75.168-.305.246-.902.312-1.398.067-.497.121-.895.262-1.204s.371-.531.652-.773c.278-.238.614-.496.914-.711.301-.211.571-.375.786-.297.211.078.367.403.5.699.132.297.246.567.257 1.02.012.457-.074 1.102-.109 1.73-.035.629-.016 1.235.066 1.903.082.672.235 1.398.286 1.933.05.539.003.887-.11 1.731s-.297 2.183-.496 3.117-.418 1.461-.691 2.18c-.27.722-.594 1.64-.926 2.633-.332.988-.672 2.054-.871 3.164-.199 1.113-.258 2.265-.328 3.168-.075.898-.16 1.543-.262 2.312-.105.77-.227 1.664-.422 2.57a30 30 0 0 1-.691 2.536c-.219.703-.383 1.187-.563 1.617-.183.429-.383.808-.527 1.343-.149.54-.242 1.235-.442 1.786-.199.554-.503.968-.785 2.32-.281 1.355-.539 3.644-.726 5.035-.188 1.387-.305 1.879-.5 2.231-.196.351-.473.566-.68 1.171-.203.606-.34 1.598-.469 2.184-.129.59-.254.777-.351 1.141-.098.367-.172.914-.293 1.808-.121.891-.285 2.133-.473 3.145-.187 1.011-.391 1.793-.582 2.648-.187.86-.363 1.797-.555 2.278-.187.48-.386.5-.582.828-.191.328-.379.961-.453 1.531-.078.574-.047 1.082-.027 1.668.019.582.031 1.242-.106 1.703-.136.461-.421.727-.742 1.086-.32.359-.679.816-.75 1.34-.07.519.149 1.105.188 1.742.035.637-.106 1.328-.239 1.762-.132.437-.257.625-.414 1.234s-.347 1.649-.629 2.82c-.281 1.176-.66 2.489-.937 3.461a75 75 0 0 1-.637 2.141c-.172.531-.328.965-.554 1.34-.223.375-.512.687-.704 1.168-.187.48-.273 1.125-.39 1.996-.117.867-.266 1.961-.567 2.902-.3.946-.753 1.742-1.07 2.016-.312.273-.484.023-.57-.102-.086-.129-.086-.129-.031-.547m31.753.414c.032-.718.098-2.16.231-3 .137-.839.34-1.078.562-1.289s.465-.398.539-.629-.019-.507-.117-.742c-.097-.23-.203-.422-.215-.797-.015-.375.059-.937.188-1.554.125-.621.305-1.301.437-1.965.133-.664.219-1.309.293-1.871.079-.563.141-1.035.325-1.758.183-.723.488-1.691.652-2.285.168-.594.195-.809.32-1.078.121-.27.34-.59.43-.953.094-.36.059-.758.109-1.125.051-.368.18-.704.274-1.086.097-.383.156-.813.222-1.309.067-.496.141-1.059.247-1.66.101-.602.23-1.242.382-1.727.153-.484.325-.816.473-1.429.148-.618.27-1.524.328-2.266.055-.738.047-1.312.106-1.918s.191-1.25.234-1.746c.047-.5.012-.859-.074-1.199-.082-.34-.211-.664-.395-.91-.183-.243-.418-.407-.476-.614-.063-.207.058-.453.05-.718-.003-.262-.14-.547-.168-.989-.023-.441.055-1.047.137-1.652.082-.602.164-1.207.262-1.789.101-.578.219-1.133.266-1.652.05-.524.031-1.008.085-1.75.059-.739.192-1.731.325-2.723s.269-1.985.429-2.863c.161-.879.352-1.645.543-2.434.192-.785.387-1.594.578-2.051.192-.461.379-.566.54-.941.156-.371.285-1.016.418-1.656.128-.641.257-1.286.449-1.743.191-.457.441-.73.574-1.062.133-.336.141-.731.187-1.383.043-.652.125-1.562.219-2.254.09-.691.199-1.16.336-2.019.137-.864.305-2.114.508-3.118.199-1.007.43-1.765.676-2.304s.504-.856.683-1.383c.176-.524.278-1.258.309-1.824.035-.567.004-.965.086-1.285.086-.317.293-.555.449-.754.156-.196.262-.36.371-.828.106-.469.211-1.247.352-1.973.14-.727.32-1.406.449-2.047.129-.645.211-1.246.332-1.824a8 8 0 0 1 .496-1.602c.215-.476.484-.883.793-1.082s.652-.195.973-.176c.32.024.617.063.738.43.125.367.074 1.066.012 1.672a40 40 0 0 1-.203 1.664c-.071.539-.149 1.102-.215 1.598l-.196 1.468c-.074.539-.16 1.188-.285 1.629-.125.446-.289.688-.476.969a3.7 3.7 0 0 0-.567 1.156c-.16.547-.265 1.325-.316 2.2-.055.871-.055 1.835-.09 2.425-.039.586-.109.797-.199 1.16-.094.36-.207.872-.317 1.54-.113.664-.222 1.484-.398 1.988s-.418.691-.582 1.129c-.168.441-.262 1.129-.316 1.695-.055.563-.071 1 0 1.297.066.293.218.445.234.82.012.375-.113.973-.285 1.457-.172.481-.395.848-.625 1.278a8.4 8.4 0 0 0-.621 1.41c-.153.484-.215.961-.305 1.453-.086.492-.199 1.004-.129 1.453.066.449.316.836.52 1.258a5 5 0 0 1 .414 1.242c.058.359.027.617 0 .969-.028.347-.043.785-.09 1.304-.051.52-.133 1.125-.199 1.645-.071.516-.129.949-.145 1.387-.019.437.012.879-.047 1.617a26 26 0 0 1-.347 2.57c-.149.789-.309 1.34-.489 1.867-.179.524-.375 1.024-.504 1.493-.125.464-.183.894-.261 1.48-.078.582-.18 1.316-.348 1.93s-.41 1.109-.586 1.633c-.18.527-.297 1.082-.492 1.562-.195.477-.465.879-.672 1.469-.211.586-.355 1.359-.555 1.879-.203.523-.453.797-.625 1.433-.172.637-.265 1.633-.328 2.438-.066.804-.105 1.414-.164 2-.058.586-.133 1.144-.25 1.527-.113.379-.269.578-.398 1.043s-.227 1.199-.356 1.844c-.129.64-.289 1.191-.48 1.625a5.5 5.5 0 0 1-.617 1.058c-.211.301-.422.582-.418.868.007.285.226.578.328.922.105.343.093.738-.059 1.093-.156.352-.457.66-.687 1.246s-.387 1.442-.512 2.371c-.125.926-.219 1.926-.34 2.832-.121.907-.277 1.719-.566 2.426-.289.711-.715 1.313-1.137 1.891-.426.582-.844 1.141-1.055 1.418-.211.281-.207.277-.176-.442" style="fill:#000;fill-opacity:1;fill-rule:nonzero;stroke:none" transform="scale(1.33333)"/><g clip-path="url(#a)" opacity=".87" transform="scale(1.33333)"><path d="M584.133 1138.496c-.356-.195-.711-.394-1.047-.551-.336-.16-.652-.277-.91-.496-.254-.215-.453-.531-.809-.789-.355-.258-.871-.453-1.48-.691-.614-.239-1.328-.516-1.801-.731-.473-.218-.711-.379-1.086-.554-.375-.18-.891-.375-1.305-.536-.418-.156-.734-.277-1.148-.433-.414-.16-.93-.356-1.461-.594a25 25 0 0 1-1.641-.808c-.554-.297-1.109-.614-1.582-.833a5.3 5.3 0 0 0-1.168-.394c-.297-.059-.492-.059-.711-.16-.218-.098-.453-.293-.691-.492" style="fill:#000;fill-opacity:1;fill-rule:nonzero;stroke:none"/></g><g clip-path="url(#b)" opacity=".87" transform="scale(1.33333)"><path d="m568.832 1131.32-2.25-.886h.137c.14 0 .414 0 .73.117.317.121.676.355 1.012.476.336.118.652.118.945.137.297.02.574.059.852.238.277.176.555.493.828.809l-2.25-.891z" style="fill:#000;fill-opacity:1;fill-rule:nonzero;stroke:none"/></g><path d="M580.758 1114.074c.301.172.902.516 1.367.754.461.238.789.371 1.148.574.364.203.758.477 1.219.735.461.261.988.508 1.321.773.328.262.464.547.699.707.238.164.578.211.926.344.347.137.707.359 1.093.676.391.316.809.726 1.188 1.105.383.383.722.735.91 1.113.184.375.215.778.105.958-.109.183-.363.148-.66.109s-.636-.086-.922-.192c-.289-.101-.527-.265-.777-.476-.254-.211-.52-.465-.867-.621-.344-.16-.77-.215-1.25-.324-.481-.11-1.02-.27-1.457-.371-.442-.106-.781-.153-1.024-.27-.242-.121-.386-.316-.601-.477-.215-.164-.5-.289-.59-.402-.086-.113.027-.215.019-.273-.003-.063-.125-.078-.292-.114-.168-.035-.383-.089-.504-.207s-.149-.297-.27-.402-.34-.133-.57-.188c-.227-.058-.461-.14-.633-.261-.168-.125-.27-.289-.418-.387s-.344-.121-.465-.238-.168-.324-.285-.457c-.117-.129-.309-.18-.48-.289-.172-.114-.321-.285-.543-.391-.223-.105-.512-.144-.793-.184-.282-.035-.547-.074-.747-.148-.203-.078-.335-.199-.519-.285-.188-.09-.426-.149-.617-.297-.192-.152-.332-.398-.512-.539-.18-.137-.398-.168-.652-.199-.258-.035-.547-.075-.848-.231-.305-.152-.613-.422-.937-.578-.329-.16-.668-.207-1.004-.277a5 5 0 0 1-.965-.293c-.293-.129-.543-.289-.809-.438-.265-.148-.543-.289-.781-.445-.238-.16-.438-.336-.695-.461-.258-.121-.571-.187-.871-.242-.305-.055-.594-.094-.954-.192a5.3 5.3 0 0 1-1.117-.441c-.336-.184-.578-.394-.836-.516-.254-.125-.523-.16-1.535-.648-1.012-.492-2.769-1.434-3.812-1.969-1.043-.531-1.371-.652-1.672-.804a4 4 0 0 1-.797-.536c-.223-.195-.395-.394-.574-.507a.75.75 0 0 0-.532-.11c-.156.028-.265.113-.355.039-.086-.074-.156-.308-.281-.476-.125-.172-.309-.27-.469-.367-.16-.098-.297-.192-.559-.29a7 7 0 0 0-.976-.273c-.34-.07-.629-.109-.871-.266-.239-.16-.422-.437-.633-.629a1.64 1.64 0 0 0-.68-.371c-.238-.07-.484-.101-.762-.152-.277-.051-.589-.117-.882-.258-.289-.14-.559-.351-.86-.508-.3-.152-.636-.25-.859-.429-.223-.184-.336-.449-.625-.68-.293-.227-.762-.418-1.285-.664-.528-.25-1.106-.555-1.551-.727-.449-.175-.766-.218-1.02-.351-.253-.137-.445-.363-.652-.582-.207-.215-.426-.422-.683-.547-.254-.121-.547-.16-.86-.215-.316-.058-.652-.129-.922-.238-.269-.113-.472-.266-.715-.399a6 6 0 0 0-.773-.347c-.246-.094-.457-.176-.672-.254a8 8 0 0 0-.625-.211c-.207-.051-.398-.078-.582-.192-.184-.113-.355-.312-.57-.457-.219-.14-.477-.226-1.485-.753-1.007-.528-2.761-1.497-3.746-2.008-.984-.512-1.199-.567-1.347-.66-.149-.094-.227-.235-.391-.317-.16-.086-.402-.121-.629-.187a3 3 0 0 1-.652-.301c-.219-.133-.446-.289-.758-.469-.309-.183-.703-.387-.988-.562-.285-.18-.465-.328-.649-.442-.183-.113-.371-.191-.617-.375-.246-.183-.555-.476-.855-.644-.301-.168-.59-.207-.868-.356-.277-.152-.539-.414-.754-.558a.94.94 0 0 0-.511-.168c-.125 0-.199.01-.242-.059-.039-.07-.043-.223-.153-.312-.113-.09-.332-.122-.531-.211-.195-.09-.375-.239-.609-.332-.235-.098-.528-.137-.762-.243-.231-.109-.406-.281-.617-.386-.207-.106-.45-.137-.688-.219s-.469-.215-.711-.336-.5-.234-.769-.355c-.27-.125-.547-.266-.688-.422-.14-.157-.14-.336-.312-.446-.168-.113-.508-.16-.801-.199s-.535-.07-.754-.101a7 7 0 0 1-.559-.086c-.144-.032-.238-.071-.429-.121-.192-.051-.481-.118-.66-.254-.18-.137-.25-.348-.371-.465-.122-.117-.29-.141-1.243-.723-.949-.582-2.675-1.726-3.613-2.305-.941-.582-1.086-.601-1.16-.687s-.078-.238-.18-.328c-.097-.09-.293-.113-.531-.274-.238-.156-.523-.449-.801-.687a6.6 6.6 0 0 0-.855-.621c-.309-.192-.653-.391-.903-.488-.246-.098-.394-.094-.636-.239-.239-.144-.571-.441-.86-.683-.293-.243-.539-.426-.855-.559-.317-.129-.703-.207-1.031-.34-.329-.133-.602-.32-.856-.457-.254-.133-.492-.219-.75-.328s-.535-.246-1.547-.914a307 307 0 0 1-3.726-2.523c-.961-.661-1.145-.786-1.289-.891a1.5 1.5 0 0 1-.332-.301c-.075-.098-.11-.203-.262-.273s-.418-.11-.742-.176a9 9 0 0 1-1.004-.274c-.297-.105-.508-.207-.719-.386s-.422-.438-.707-.551c-.281-.113-.633-.086-1.004-.176-.371-.086-.766-.289-1.109-.488-.344-.199-.641-.391-.938-.492-.297-.106-.594-.117-.91-.25-.316-.129-.652-.379-.918-.528a2 2 0 0 0-.648-.238c-.196-.039-.391-.066-.559-.187-.168-.125-.312-.348-.566-.571a4.7 4.7 0 0 0-.934-.605c-.316-.156-.574-.242-.699-.422s-.113-.457-.098-.672c.016-.211.035-.359.172-.43.133-.07.379-.062.609-.031.231.031.45.086.676.129.231.043.473.078.68.129.203.055.367.125.539.312.172.192.355.493.543.657.187.164.383.191.687.23.305.043.719.098 1.079.184.359.086.667.203.964.293s.586.156.77.242c.187.09.273.203.461.367.187.164.48.379.75.516.265.136.504.195.742.351.238.16.477.418.668.571s.332.195.523.246c.192.05.434.109.68.207s.5.23.805.375c.301.14.652.289.992.347.34.059.668.024 1.727.422 1.062.395 2.859 1.219 3.761 1.707.899.489.903.641 1.051.735s.441.132.602.23.187.254.347.352.453.136.625.25c.168.109.219.293.371.453.153.16.407.293.657.453.254.16.5.348.695.449.199.102.344.121.527.145.184.027.403.054.582.195.18.137.321.383.485.52.168.136.363.16.55.238.192.074.372.199.59.332.215.129.473.265.711.422.239.16.461.34.766.558s.691.473 1.043.621c.351.149.668.192 1.562.629.899.434 2.371 1.266 3.231 1.774.863.508 1.109.691 1.371.863.262.176.535.34.703.488.164.149.223.282.434.375.211.09.574.141.859.317.285.179.492.484.766.683.269.2.601.297.847.407s.403.23.59.304c.188.074.406.106.664.141.254.035.547.074.778.219.226.144.39.394.648.605.254.211.605.383.91.5s.57.18.809.262c.234.082.445.183.726.387.282.203.641.503 1 .679.36.172.727.223 1.067.434.343.211.668.582.937.781.27.199.488.231.805.285.312.055.723.137 1.015.266.293.129.469.301.668.457.204.152.434.285.614.422.179.136.308.281.492.394.184.114.418.196.648.34.227.145.45.352.645.465.191.113.363.137.57.164.207.031.449.063.676.145.223.082.43.207 1.348.738.922.527 2.554 1.453 3.476 1.894.918.438 1.121.391 1.328.446.203.05.407.207.614.32.207.117.418.195.695.336.281.137.625.336 1.004.551.383.215.797.449 1.207.691.414.246.824.504 1.211.684.383.176.742.277 1.07.433.324.157.617.375.899.5.277.125.546.16.824.301.281.141.57.379.855.57.281.188.563.329.934.516.371.188.832.43 1.32.684.485.254.992.527 1.356.675.367.149.586.18.796.247.215.066.426.171.676.242s.543.109.699.222c.161.11.184.289.368.403.183.113.523.156.8.218.278.063.489.145.661.344.171.199.3.52.543.742.246.223.597.344.875.422.273.074.468.098.683.153s.453.136.625.238c.172.098.281.215.469.391.187.175.453.414.726.578.274.164.563.25.844.277.281.023.559-.016.707-.02.149 0 .172.024 1.196.43 1.023.402 3.046 1.18 4.179 1.621 1.129.446 1.36.551 1.625.711.262.164.555.379.824.504.266.125.512.156.719.262.211.105.383.277.559.465.172.187.344.39.547.543.203.152.433.257.683.332.254.07.52.105.797.156.278.051.567.113.914.301.348.187.75.492 1.106.718.355.223.656.364.922.426.261.059.488.039.769.168.281.125.617.399.945.617.329.223.653.391.875.496.219.106.34.149.61.247.273.101.699.257.945.519.25.262.324.625.535.832.207.203.547.25.793.371.242.121.391.317.656.555.262.238.649.516 1.04.668.39.148.789.168.988.18s.199.01.5.179m27.363 18.258c.027-.195.078-.582.016-.898-.067-.317-.25-.563-.301-.809-.055-.25.023-.504.184-.723.156-.222.398-.41.539-.652.14-.246.183-.547.109-.953-.078-.406-.266-.914-.309-1.402-.043-.493.063-.961.157-1.477.089-.512.164-1.074.246-1.68.082-.601.172-1.25.238-1.769.07-.516.125-.906.156-1.317.035-.414.051-.851.102-1.394.055-.543.14-1.188.215-1.75.078-.563.14-1.035.156-1.473.016-.437-.016-.836.012-1.363.027-.524.113-1.168.207-1.707.093-.535.195-.961.367-1.422.168-.461.406-.957.605-1.941.2-.981.352-2.457.41-3.348.055-.895.012-1.207.024-1.625.016-.414.082-.934.168-1.559s.183-1.359.18-1.82c0-.461-.106-.652-.122-1.004-.019-.355.051-.875.137-1.5s.184-1.359.289-1.98c.106-.625.219-1.137.266-1.504.051-.367.039-.586.058-.914.024-.328.083-.758.157-1.297.07-.539.16-1.188.23-1.727q.111-.809.176-1.297c.043-.324.074-.539.039-.761-.035-.227-.133-.457-.156-.77-.024-.308.031-.699-.039-.992-.067-.297-.254-.496-.332-.902-.075-.407-.035-1.016-.086-1.442-.047-.422-.188-.66-.184-1.035.008-.371.164-.879.262-1.281.098-.406.137-.707.234-1.266.098-.558.25-1.371.371-2.101.118-.735.207-1.379.328-1.957s.274-1.082.399-1.684c.125-.598.215-1.289.305-1.934.086-.648.168-1.254.261-1.636.094-.383.203-.543.379-.871.172-.329.41-.825.555-1.243.141-.422.187-.765.25-1.218.062-.454.137-1.016.25-1.375.113-.356.262-.512.418-.692.152-.176.308-.375.406-.625s.141-.551.277-.773c.137-.223.375-.367.536-.61.16-.242.25-.582.32-.945s.125-.754.238-1.109c.114-.36.285-.688.586-.825.297-.136.723-.078 1.02.118.297.191.468.523.504.902.031.379-.067.805-.145 1.211a6 6 0 0 0-.121 1.215c.008.418.078.867.187 1.187.106.325.254.52.407.825.152.308.312.722.457 1.074.148.347.281.629.359 1.015.078.383.098.868-.035 2.016-.133 1.145-.418 2.953-.637 3.934-.218.98-.371 1.136-.551 1.375-.183.238-.402.562-.468.906-.067.344.011.703.027 1.058.02.352-.027.7-.109 1.149s-.203 1.008-.325 1.605a59 59 0 0 0-.355 1.821c-.098.578-.168 1.097-.137 1.496.035.402.168.683.207 1.015.043.336-.007.727-.105 1.11-.094.383-.231.758-.336 1.207-.102.445-.172.965-.145 1.406.024.445.149.813.192 1.148.039.332 0 .637.039.973.043.332.164.703.211.992.047.293.019.508-.024.965-.039.457-.089 1.152-.191 1.598-.106.449-.262.648-.359.898-.098.25-.141.551-.075.867.067.321.239.649.305.946.066.293.031.551-.078.89-.109.336-.293.75-.422 1.063s-.199.519-.18.855c.02.332.129.785.094 1.219-.039.434-.223.848-.41 1.285a9 9 0 0 0-.52 1.446c-.14.554-.226 1.199-.312 1.828-.082.625-.164 1.23-.301 1.757a8 8 0 0 1-.512 1.383c-.179.395-.355.723-.445 1.239-.09.511-.098 1.214-.113 1.785-.008.57-.028 1.008-.063 1.441-.039.434-.097.867-.156 1.32-.062.454-.125.926-.328 1.293-.199.372-.535.633-.738 1-.2.372-.266.844-.301 1.278-.035.437-.047.828-.043 1.269.008.442.027.926-.102 1.395-.125.465-.402.91-.66 1.226-.258.317-.5.504-.664.922s-.25 1.067-.398 1.375c-.153.309-.364.282-.563.801-.199.523-.387 1.598-.613 2.469-.227.871-.488 1.539-.875 2.164-.387.629-.899 1.223-1.152 1.515-.258.297-.254.293-.227.102zm15.152 18.621-.136.137c-.141.137-.418.414-.555.652s-.137.438-.019.613c.117.18.355.336.593.317.235-.02.473-.219.614-.496.136-.274.175-.629.078-.848-.098-.219-.336-.297-.457-.336zm9.071-11.445c-.156-.129-.465-.391-.528-.883-.062-.492.122-1.215.27-1.852.152-.64.269-1.195.359-1.71.094-.516.157-.989.258-1.415.102-.425.238-.804.324-1.144.09-.34.133-.641.059-.891-.074-.254-.262-.453-.375-.734-.113-.277-.152-.633-.121-1.027.031-.391.129-.817.121-1.211-.012-.399-.137-.766-.117-1.555.023-.789.183-1.996.406-2.691.223-.696.508-.879.676-1.165.168-.285.219-.671.324-1.121.102-.445.258-.953.367-1.441.11-.492.172-.965.285-1.48.114-.512.274-1.059.313-1.516s-.039-.82.156-2.418c.192-1.602.66-4.438.949-6.09s.395-2.125.489-2.66.175-1.141.273-1.875.215-1.598.359-2.5c.145-.902.313-1.848.493-2.703.179-.852.371-1.617.609-2.75s.527-2.633.711-3.66c.18-1.032.258-1.594.394-2.145.141-.555.344-1.098.485-1.648.137-.555.215-1.114.32-1.758.11-.645.25-1.375.379-2.149.125-.773.234-1.593.383-2.386.152-.793.34-1.559.469-2.18.125-.617.191-1.094.285-1.477.094-.382.219-.671.316-1.078.098-.402.168-.922.235-1.418.07-.496.132-.968.257-1.414s.309-.859.504-1.187c.196-.324.399-.559.465-1.035.063-.473-.012-1.188.059-2.036.07-.847.289-1.828.461-2.792.175-.965.304-1.915.425-2.668.122-.75.243-1.309.414-1.637.176-.328.403-.43.711-.477.309-.043.696-.035.911.125.218.164.261.477.261.805a3.4 3.4 0 0 1-.16 1.012c-.109.336-.285.664-.453 1.433-.168.77-.332 1.977-.477 3.231-.148 1.254-.281 2.554-.32 3.472-.035.918.024 1.454-.043 2.102-.066.652-.258 1.418-.426 2.187-.168.766-.316 1.54-.543 2.582-.226 1.047-.535 2.368-.726 3.465-.192 1.094-.262 1.961-.344 2.719s-.168 1.406-.379 2.168c-.211.766-.547 1.641-.613 2.621-.066.981.133 2.063.195 2.883.063.82-.015 1.383-.164 2.176a46 46 0 0 1-.555 2.515c-.183.703-.32 1.078-.425 1.879-.11.797-.188 2.016-.274 2.973-.086.953-.179 1.644-.351 2.301-.176.66-.434 1.285-.508 2.48-.074 1.199.031 2.973-.094 4.539-.125 1.563-.48 2.922-.699 3.883-.215.957-.289 1.52-.316 2.195-.024.68-.004 1.473-.075 2.145-.066.672-.23 1.223-.355 1.84a19 19 0 0 0-.27 1.855c-.054.543-.062.938-.168 1.231-.105.293-.304.484-.336.722-.031.239.106.52.141.875.039.36-.02.789-.145 1.078-.125.293-.316.442-.515.633-.199.196-.402.43-.61.844-.207.41-.417.996-.527 1.512-.113.511-.129.949-.058 1.242.066.297.218.449.121.851-.098.407-.446 1.063-.789 1.676-.34.61-.676 1.18-1.172 1.817-.496.636-1.153 1.34-1.477 1.691-.328.352-.328.352-.484.219" style="fill:#000;fill-opacity:1;fill-rule:nonzero;stroke:none" transform="scale(1.33333)"/><path d="M269.852 1125.809c.418-.364 1.253-1.082 1.812-1.352.559-.266.84-.074 1.117-.074.282 0 .555-.18.903-.317.343-.136.761-.226 1.011-.222.246 0 .332.09.493.058.164-.035.41-.191.585-.207.176-.015.29.106.399.196.113.093.226.16.461.172.234.015.59-.024.812-.079.223-.058.317-.14.461-.101s.344.195.532.25c.187.051.367.01.519.043.152.035.281.156.445.129.161-.024.356-.196.508-.215.153-.024.266.098.414.262.153.168.34.375.485.531.14.156.238.262.254.387.019.121-.04.265-.036.464.004.196.075.45.129.7.051.246.09.496.086.668 0 .171-.039.269-.058.457-.02.187-.02.464-.215.808-.199.34-.59.742-.84 1.129s-.356.758-.508 1.063c-.152.3-.351.535-.691.875s-.821.789-1.2 1.222c-.378.438-.656.864-.894 1.211s-.438.613-.629.856c-.191.246-.375.461-.48.711-.106.25-.141.523-.227.726-.086.199-.23.32-.254.485-.027.164.063.363.059.535 0 .172-.094.316-.102.496-.012.179.059.398.141.453s.172-.055.383-.051c.211 0 .539.125.773.262.238.137.379.293.531.305.153.01.309-.129.489-.145.175-.012.375.098.628.016.258-.086.579-.36.852-.457.277-.098.508-.02.797-.067s.637-.222.898-.25c.262-.023.438.102.75-.058.313-.164.762-.61 1.09-.789.332-.176.543-.079.856-.207.308-.129.718-.485 1.07-.633.355-.153.656-.102 1.027-.25.367-.149.809-.5 1.114-.637.3-.137.464-.063.789-.125.324-.063.808-.262 1.097-.309.285-.046.383.055.578.012.196-.047.493-.242.762-.332.266-.09.5-.078.695-.09.192-.015.348-.051.59-.027.242.019.575.109.887.242s.605.316.844.512c.242.195.433.406.625.426.191.019.386-.153.621-.137s.512.215.75.426c.242.211.445.437.609.703.16.261.278.566.313.832.035.265-.012.492-.055.668-.047.179-.086.308-.113.488-.028.176-.039.406.023.598.067.195.207.351.219.5.008.148-.121.289-.113.484.004.199.14.453.113.664-.031.211-.227.379-.379.594a2.5 2.5 0 0 0-.344.683c-.074.219-.101.399-.035.575.067.175.223.351.149.508-.079.16-.387.304-.59.417-.199.11-.289.188-.278.321.008.129.114.316.079.504-.036.187-.215.371-.329.578-.113.207-.16.433-.347.75-.184.316-.512.726-.789 1.027-.282.305-.512.504-.633.703-.121.196-.129.395-.219.594-.086.199-.25.402-.465.617-.215.219-.48.449-.718.656-.239.208-.454.391-.614.559-.16.172-.273.332-.308.535-.039.203 0 .449-.082.66-.079.207-.274.375-.559.637-.281.262-.656.617-.945.926-.285.312-.489.578-.778.816-.293.235-.675.442-1.035.692s-.695.539-.961.769c-.265.231-.461.399-.551.617-.085.215-.07.481-.132.704-.063.226-.211.414-.407.601-.195.184-.441.367-.679.555a7 7 0 0 0-.672.601c-.207.207-.391.426-.617.578-.227.149-.5.231-.629.438-.133.207-.117.535-.184.793-.062.258-.211.445-.371.617s-.34.324-.516.477c-.175.156-.355.308-.378.578s.105.656.074.914c-.031.262-.227.398-.262.57-.035.168.09.375.102.578q.017.311-.282.618c-.195.199-.492.394-.89.617-.403.222-.903.468-1.278.636-.371.164-.609.25-.843.325a7 7 0 0 1-.664.191c-.215.043-.418.063-.637.172-.215.109-.445.309-.688.426a1.6 1.6 0 0 1-.757.144 1.45 1.45 0 0 1-.836-.273c-.305-.215-.653-.598-.754-.883-.102-.289.043-.477-.012-.707-.055-.234-.305-.512-.426-.766s-.109-.484-.16-.718c-.055-.231-.176-.469-.164-.664.012-.2.156-.356.266-.528.109-.176.187-.367.308-.531.117-.164.278-.305.34-.481.059-.175.023-.39.078-.609s.199-.441.391-.652c.187-.207.418-.407.523-.657.11-.246.094-.542.653-1.23.562-.691 1.703-1.77 2.23-2.41.523-.641.434-.844 1.063-1.512.628-.668 1.972-1.801 2.625-2.473.656-.675.617-.89.847-1.246.231-.355.731-.851.879-1.195.145-.344-.062-.535-.027-.723s.316-.367.5-.601c.179-.235.265-.527.254-.781s-.118-.477-.164-.684-.036-.406-.063-.629c-.031-.223-.101-.473-.219-.57-.121-.098-.293-.043-.523-.125-.231-.078-.524-.293-.758-.324-.23-.032-.41.121-.547.179-.136.059-.238.02-.379.016-.144 0-.332.039-.488.109-.156.074-.277.18-.453.114-.172-.067-.395-.313-.609-.375-.215-.063-.422.054-.688.148-.266.09-.59.152-.844.277-.25.121-.429.309-.66.368-.23.062-.512 0-.867.144-.352.152-.777.52-1.117.809-.336.293-.582.507-1.309 1.121-.726.609-1.93 1.621-2.621 2.078-.691.461-.871.367-1.066.394-.196.032-.407.18-.668.379-.266.196-.582.442-.84.645a26 26 0 0 0-.629.531c-.176.152-.336.289-.539.449s-.449.344-.59.309c-.141-.031-.176-.281-.301-.313-.125-.035-.336.153-.539.137-.199-.01-.39-.219-.554-.262-.168-.043-.309.079-.508 0-.196-.078-.45-.355-.707-.41-.258-.058-.52.106-.922-.109-.399-.211-.938-.805-1.192-1.203-.254-.403-.226-.617-.261-.879a2.15 2.15 0 0 0-.321-.875c-.183-.289-.453-.555-.582-.848-.125-.297-.105-.625.039-.953.145-.328.418-.656.516-.894.098-.243.023-.391.145-.606.121-.215.441-.492.539-.73.097-.243-.024-.446.039-.672.062-.227.312-.477.437-.723.121-.246.121-.492.246-.773.125-.278.379-.59.469-.84s.02-.434.148-.672c.133-.238.469-.531.551-.789s-.09-.481 0-.715c.09-.23.442-.473.539-.711.098-.242-.058-.48.016-.73s.375-.512.484-.778c.106-.261.02-.531.102-.773s.332-.457.43-.727c.101-.273.05-.605.152-.879.101-.273.348-.488.453-.703s.066-.429.227-.691c.156-.262.511-.571.632-.781.121-.215.012-.336.137-.618s.488-.718.652-1.062c.161-.34.125-.59.293-.891.172-.304.547-.656.723-.984.18-.324.164-.621.395-.977.23-.355.711-.769.855-1.062.145-.289-.043-.461-.137-.547-.093-.086-.093-.086.325-.445m65.687-10.621c-.43-.125-1.293-.375-2.117-.165-.82.211-1.602.887-2.258 1.145-.656.254-1.187.09-1.656.062-.473-.031-.883.079-1.445.504-.567.426-1.286 1.172-2.059 1.715-.774.547-1.602.891-2.262 1.211s-1.152.621-1.738.879c-.59.262-1.277.484-1.934.738-.656.258-1.281.547-1.929.739-.653.187-1.332.277-2.004.172-.668-.106-1.324-.411-1.844-.77-.52-.363-.898-.781-.672-1.23.231-.446 1.067-.922 1.602-1.446.539-.527.773-1.105 1.14-1.609s.864-.934 1.203-1.539c.336-.606.516-1.383.832-2.156a8.4 8.4 0 0 1 1.379-2.25c.618-.719 1.399-1.395 1.86-2.356.457-.957.597-2.199.73-3.312.133-1.11.254-2.09.313-3.075.054-.984.047-1.972.027-2.828-.016-.859-.043-1.586-.184-2.086-.136-.504-.39-.781-.761-.773-.371.012-.864.308-1.504.305-.641-.01-1.43-.321-2.422-.149-.988.168-2.172.82-4.047 2.316-1.875 1.497-4.441 3.84-6.039 5.223s-2.23 1.805-2.937 2.356c-.708.55-1.489 1.226-1.614 1.644-.125.422.406.586.52.988.109.403-.199 1.039-.879 1.754-.684.715-1.742 1.508-2.664 2.305-.926.801-1.715 1.609-1.988 2.281-.278.676-.04 1.219-.293 2.121-.254.907-1.004 2.18-1.368 3.243-.367 1.062-.347 1.921-.16 2.753q.283 1.254 1.074 2.438c.528.789 1.227 1.559 1.825 2.285s1.097 1.418 1.777 1.953a5.46 5.46 0 0 0 2.367 1.067c.836.152 1.649.07 2.403-.149.757-.215 1.453-.57 2.238-.75.785-.183 1.664-.195 2.484-.34.817-.148 1.574-.429 2.438-.742.859-.308 1.824-.644 2.777-.781.953-.141 1.895-.082 2.758-.391.859-.308 1.64-.984 2.742-1.379 1.105-.39 2.527-.5 3.664-.925 1.141-.422 1.992-1.161 4.121-3.004 2.133-1.844 5.543-4.793 6.91-6.289 1.371-1.496.7-1.539.364-1.559-.34-.019-.34-.019-.77-.144" style="fill:maroon;fill-opacity:1;fill-rule:nonzero;stroke:none" transform="scale(1.33333)"/><path d="M308.707 1115.344c.496-.43 1.492-1.289 2.137-1.977.648-.683.945-1.191 1.281-1.73s.707-1.11 1.176-1.641c.469-.527 1.039-1.019 1.164-1.441.125-.418-.192-.766-1.531.203-1.34.969-3.7 3.262-5.129 4.687-1.434 1.426-1.938 1.989-2.207 2.532-.266.543-.297 1.066-.16 1.636.136.567.437 1.18.871 1.239.437.058 1.004-.434 1.343-1.039.34-.602.446-1.321.5-1.68.055-.36.055-.36.555-.789" style="fill:#c87137;fill-opacity:1;fill-rule:nonzero;stroke:none" transform="scale(1.33333)"/><path d="M326.066 1090.195c.387.371 1.157 1.121 1.793 1.625.641.504 1.153.77 1.508.813.356.047.555-.129.84-.11.289.016.656.227 1.051.415a7.5 7.5 0 0 0 1.289.476c.469.121.988.199 1.457.371.469.168.883.426 1.312.453.43.024.872-.179 1.231-.226.363-.051.641.062 1.172.398.527.336 1.308.895 1.969 1.074.656.18 1.195-.019 1.675-.082.481-.062.907.01 1.371.223.465.219.969.574 1.465.676.496.097.985-.059 1.43.086.445.144.848.59 1.262.894.41.305.832.469 1.132.653.297.179.477.379.836.375.36 0 .899-.2 1.422-.215.528-.012 1.043.16 1.653.336.613.179 1.316.359 1.824.273.508-.082.812-.437 1.203-.555.387-.113.859.01 1.344-.148.488-.156.992-.59 1.394-.941.403-.348.703-.606.981-.848.273-.238.527-.457.652-.961s.121-1.297.156-1.898c.035-.606.106-1.02.004-1.282-.105-.265-.383-.375-.34-.722.043-.348.411-.93.547-1.621.133-.688.039-1.489.285-2.055.25-.567.84-.902 1.153-1.352.312-.445.343-1.004.406-1.629.059-.625.148-1.32.359-2.074.211-.758.543-1.574.661-2.383.121-.808.023-1.605.066-2.347.043-.746.226-1.434.414-2.215.187-.777.383-1.652.473-2.391.089-.742.078-1.347.203-1.851.125-.508.386-.91.39-1.399.008-.488-.246-1.062-.023-1.656.227-.594.93-1.199 1.473-1.891a5.64 5.64 0 0 0 1.117-2.375c.195-.921.211-1.992.301-2.687.086-.692.246-1.008.273-1.426.023-.418-.09-.937-.137-1.383-.043-.445-.023-.816-.09-1.289-.07-.469-.226-1.039-.222-1.527s.172-.899.172-1.293c-.004-.399-.172-.781-.434-1.168-.266-.391-.625-.785-.957-.852-.328-.07-.629.192-.906.434-.278.238-.528.453-.883.41s-.816-.351-1.883.305c-1.062.656-2.734 2.277-3.562 3.344-.825 1.07-.809 1.582-1.024 2.035-.219.453-.672.843-.894 1.39-.223.543-.215 1.243-.387 1.746-.172.5-.523.805-.719 1.282-.195.48-.23 1.129-.359 1.679-.125.551-.344 1.004-.516 1.508a9.4 9.4 0 0 0-.375 1.516c-.074.461-.097.832-.062 1.461.035.633.129 1.523-.004 2.168-.133.644-.492 1.043-.707 1.492-.219.453-.297.961-.367 1.379-.075.414-.141.734-.231 1.476-.09.739-.203 1.899-.402 2.817-.196.922-.473 1.601-.535 2.226-.059.625.101 1.196-.075 1.7-.171.5-.671.933-1.125 1.328-.453.39-.855.738-1.128 1.328-.274.59-.418 1.418-.68 1.867-.266.449-.653.52-1.063.609-.414.094-.847.207-1.422.215-.574.012-1.285-.078-1.753-.246-.469-.168-.692-.414-.957-.406-.262 0-.563.266-.958.078-.398-.187-.886-.82-1.46-1.16a2.56 2.56 0 0 0-1.704-.293c-.461.09-.711.305-.996.242-.281-.062-.597-.406-.992-.598-.394-.187-.871-.214-1.605-.679-.739-.465-1.739-1.364-2.383-1.778-.645-.414-.934-.339-1.387-.39-.449-.051-1.062-.227-1.879.258-.816.484-1.836 1.636-2.551 2.382-.71.75-1.113 1.098-1.3 1.481-.192.387-.168.808-.243 1.269s-.246.961-.332 1.211c-.085.254-.089.25.297.625zm83.664-40.465c-.218.188-.656.567-1.074.665-.422.093-.828-.09-1.226-.016-.399.078-.793.418-1.2.656s-.832.375-1.304.668-1 .75-1.399.824c-.398.078-.672-.222-1.047-.164-.378.059-.859.473-1.285.649-.422.176-.793.113-1.285.347-.492.231-1.101.762-1.562 1.161-.457.394-.766.66-1.082.781-.317.125-.649.101-1.008.183-.356.079-.742.258-1.18.332-.441.075-.937.043-1.359.137-.418.098-.766.317-1.153.539-.386.219-.812.434-1.269.446-.457.011-.945-.176-1.371-.344-.426-.172-.793-.313-1.149-.578-.359-.266-.711-.653-.789-1.082s.114-.907.309-1.418c.195-.516.394-1.071.711-1.539.32-.465.758-.844.992-1.356.238-.512.273-1.156.512-1.668.238-.512.676-.89.933-1.422.258-.531.34-1.215.645-1.781.301-.57.828-1.023 1.355-1.559.532-.535 1.063-1.148 1.383-1.656s.426-.906.559-1.402c.133-.5.293-1.098.488-1.653.199-.554.438-1.066.426-1.593-.012-.528-.27-1.067-.34-1.621-.074-.551.043-1.11.258-1.645.219-.531.539-1.039.469-1.59-.075-.551-.536-1.144-1.028-1.64-.488-.496-1.008-.895-1.476-.985-.473-.09-.903.125-1.375.422-.473.293-.993.668-1.442.902-.453.239-.832.336-1.293.43-.461.09-1.008.18-1.539.41-.531.231-1.051.602-2.594 1.785-1.543 1.18-4.105 3.168-5.425 4.422-1.317 1.258-1.391 1.778-1.688 2.266s-.82.941-1.301 1.359c-.484.414-.918.793-1.148 1.184-.231.391-.254.797-.524 1.144-.269.348-.785.637-1.089 1.208-.301.57-.391 1.414-.758 2-.363.582-1.008.91-1.559 1.503-.554.594-1.019 1.454-1.254 2.231-.23.777-.226 1.465-.324 2.047-.094.578-.289 1.054-.383 1.594-.093.542-.086 1.148.188 1.796.273.645.816 1.325 1.254 2.02.437.695.769 1.402 1.109 1.992.34.586.688 1.055.93 1.535.238.481.379.977.613 1.192.238.218.574.156.938.3.367.145.761.493 1.25.684.484.191 1.066.231 1.668.203.605-.019 1.23-.105 1.828-.01.593.098 1.16.375 1.574.403.414.023.676-.203 1.07-.2.395.01.922.243 1.36.208.437-.036.785-.336 1.187-.454s.856-.05 1.473-.011c.621.035 1.41.043 1.769-.075.36-.121.289-.367.422-.441.129-.074.453.027.762.109.305.079.594.137.969.079.378-.059.843-.231 1.347-.321.504-.094 1.043-.101 1.68-.304.633-.204 1.363-.606 1.949-.688.586-.086 1.027.145 1.469.07.441-.078.879-.453 1.437-.785.559-.328 1.239-.613 1.789-.82.551-.211.977-.344.957-.406-.015-.063-.472-.051-.57-.2-.094-.148.172-.453.539-.652.364-.203.824-.297 2.039-1.152 1.211-.856 3.172-2.477 4.203-3.446 1.032-.968 1.133-1.289 1.403-1.636.269-.348.707-.727.918-1.137.211-.414.195-.859.34-1.215.144-.355.453-.621.41-1.008-.039-.386-.426-.894-.617-1.152-.192-.254-.196-.25-.415-.063z" style="fill:maroon;fill-opacity:1;fill-rule:nonzero;stroke:none" transform="scale(1.33333)"/><path d="M380.809 1052.707c.457-.355 1.371-1.07 1.773-1.57s.293-.793.461-1.125c.164-.336.602-.715.727-1.09s-.063-.754.105-1.086c.164-.336.68-.629 1.031-.973.352-.34.539-.734.664-1.109.125-.379.188-.738.375-1.051.184-.312.489-.578.524-.84.035-.261-.199-.519-.406-.492-.211.031-.395.34-.747.727a8 8 0 0 1-1.418 1.187c-.539.352-1.093.602-1.531.977-.437.379-.758.886-1.035 1.355s-.508.899-.656 1.297c-.149.395-.211.758-.34 1.215s-.328 1.012-.414 1.43c-.086.421-.063.707.027.933.09.231.246.403.324.488.079.086.079.086.536-.273" style="fill:#c87137;fill-opacity:1;fill-rule:nonzero;stroke:none" transform="scale(1.33333)"/><path d="M413.656 1044.992c-.031-.164-.093-.492-.218-.887-.122-.39-.301-.847-.235-1.289.067-.441.383-.867.34-1.214-.043-.344-.441-.614-.648-1.012-.204-.399-.215-.926-.071-1.281.145-.356.446-.539.305-.954-.141-.41-.727-1.054-.949-1.515-.223-.457-.082-.735-.227-1.106-.144-.375-.574-.847-.859-1.328-.281-.484-.418-.98-.313-1.379.106-.398.453-.699.356-1.109-.102-.414-.653-.934-.914-1.434-.262-.504-.235-.988-.129-1.386.105-.399.289-.711.535-1s.551-.555.473-.942c-.082-.39-.551-.906-.735-1.32-.183-.418-.082-.734-.187-1.066-.106-.329-.418-.672-.567-1.008-.144-.332-.125-.657-.429-1.16-.301-.504-.926-1.192-1.289-1.758-.36-.571-.461-1.024-.762-1.528-.305-.503-.813-1.062-1.11-1.648-.296-.586-.386-1.195-.519-1.773-.133-.575-.309-1.11-.004-1.719.305-.613 1.094-1.293 1.789-1.512.699-.219 1.309.02 1.742.027.438 0 .699-.222 1.02-.386.32-.16.699-.258 1.113-.235.414.028.863.176 1.274.243.41.066.785.046 1.148.234.363.183.715.57 1.008.891.293.32.527.578.59.949.058.367-.051.843.074 1.199.125.352.484.574.914.742.426.168.918.281 1.301.102s.66-.649 1.078-1.09c.422-.438.984-.848 1.594-1.34.609-.488 1.265-1.055 1.437-1.508.172-.457-.141-.801-.16-1.207-.016-.406.258-.875.73-1.515.473-.637 1.145-1.446 1.864-2.032.718-.582 1.488-.941 2.047-1.312.562-.367.914-.75 1.218-.977.305-.222.559-.289.762-.234.203.051.359.223.645.324.285.098.699.121 1.101.348.402.23.793.656 1.332.648.539-.01 1.231-.449 1.692-.543.464-.09.695.164 1.066.231.371.062.875-.071 1.316-.145s.817-.09 1.36-.137c.543-.05 1.25-.125 1.82-.273s.996-.363 1.453-.375.945.18 1.406.086.899-.473 1.403-.563 1.074.106 1.543.239c.472.129.84.191 1.359.203.52.012 1.184-.028 1.649-.16.464-.137.726-.364 1.105-.418.375-.059.867.05 1.25.258.383.207.656.507 1.086.593s1.019-.039 1.625-.062a4.7 4.7 0 0 1 1.809.273c.589.219 1.148.578 1.48.985.328.402.426.855.277 1.25-.144.394-.539.738-.746 1.07-.207.328-.222.652-.504 1.16-.277.512-.816 1.207-1.48 1.934-.664.73-1.457 1.492-2.195 2.054-.739.563-1.422.922-2 1.192-.575.269-1.043.441-1.454.722-.41.278-.765.661-1.168.86a1.56 1.56 0 0 1-1.23.066c-.363-.144-.637-.445-.98-.609-.344-.16-.758-.188-1.196-.153-.437.032-.898.125-1.25.086-.351-.043-.59-.218-.82-.214-.227.01-.445.195-.734.179-.29-.019-.653-.242-.918-.281-.27-.035-.446.113-.672.121-.231 0-.512-.133-.864-.176-.347-.043-.765.016-1.054-.043s-.446-.23-.696-.164c-.254.063-.605.367-.855.434-.254.062-.41-.106-.777-.211-.368-.106-.946-.141-1.411 0-.464.133-.816.434-1.16.656s-.683.364-1.351.746a39 39 0 0 0-2.328 1.477c-.668.465-1.02.769-1.309 1.094a4.1 4.1 0 0 0-.66.992c-.141.316-.199.598-.406.926-.204.332-.559.714-.793 1.148-.231.43-.344.91-.473 1.367s-.281.895-.238 1.242c.043.348.277.606.277.989-.004.383-.242.894-.414 1.39-.176.496-.285.977-.266 1.383.016.406.164.738.078 1.117-.082.379-.398.805-.609 1.219-.211.41-.316.813-.465 1.246-.152.438-.344.91-.48 1.449-.137.539-.211 1.141-.262 1.645s-.074.906-.266 1.34c-.187.433-.546.898-.781 1.328-.23.434-.34.832-.484 1.187a6 6 0 0 1-.555 1.02c-.23.348-.5.738-1.539 1.441-1.035.707-2.84 1.731-3.742 2.243-.899.511-.899.511-.93.347h-.004z" style="fill:maroon;fill-opacity:1;fill-rule:nonzero;stroke:none" transform="scale(1.33333)"/><path d="M116.609 226.371c-.019-.969-.062-2.902-.082-4.473-.019-1.57-.019-2.781.121-3.464.141-.688.426-.848.665-1.289.242-.446.445-1.168.605-2.075.16-.906.281-1.996.324-3.004.039-1.003 0-1.933-.043-3a309 309 0 0 1-.101-3.183c-.02-.906-.02-1.508-.18-1.953-.16-.442-.48-.723-.645-1.188-.16-.465-.16-1.109-.179-1.773-.02-.664-.063-1.348-.203-1.973a5.4 5.4 0 0 0-.645-1.613c-.262-.422-.543-.703-.824-1.047-.281-.34-.567-.746-.746-1.348-.184-.605-.262-1.41-.363-2.074a17 17 0 0 0-.344-1.672c-.121-.484-.239-.929-.301-1.957-.059-1.027-.059-2.637-.102-3.887-.039-1.25-.121-2.136-.261-2.636-.141-.504-.34-.625-1.086-.668-.746-.039-2.035 0-3.043 0s-1.731-.039-2.156-.563c-.422-.523-.543-1.531-.582-2.699-.043-1.168 0-2.496.058-3.785.063-1.289.141-2.539.203-3.988.059-1.454.102-3.106.199-4.657.102-1.55.262-3 .223-4.691s-.281-3.625-.363-5.481c-.078-1.851 0-3.625.101-5.015.102-1.391.223-2.395.442-3.383.222-.988.547-1.953.828-2.781.281-.824.523-1.512.746-2.074.219-.563.422-1.008.582-1.411.16-.402.281-.765.484-1.168.204-.402.485-.847.825-1.23.343-.383.746-.703 1.05-1.168.301-.461.5-1.066.684-1.609.18-.543.344-1.028.645-1.332.3-.301.746-.422 1.066-1.289.324-.864.523-2.477.805-3.723.285-1.25.644-2.137.929-3.024.282-.886.481-1.773.602-2.718s.164-1.953.242-2.879c.082-.93.203-1.774.262-2.52.062-.746.062-1.39.062-2.093 0-.708 0-1.473.121-2.36s.364-1.89.524-2.656.242-1.289.441-1.793c.203-.504.524-.988.746-1.512.223-.523.344-1.09.606-1.652.262-.563.664-1.129.965-1.59.304-.465.504-.828.707-1.27.199-.445.402-.968.562-1.531s.281-1.168.403-1.734c.121-.563.242-1.086.402-1.629.164-.547.363-1.109.625-1.754.262-.644.586-1.371.949-1.894.359-.524.766-.844 1.188-1.106s.867-.465 1.269-.867.766-1.008 1.207-1.512c.445-.504.969-.906 1.43-1.226.465-.325.867-.567 1.289-.829.426-.261.867-.543 1.41-.746a4.7 4.7 0 0 1 1.996-.261c.805.062 1.774.304 2.66.285.883-.024 1.692-.305 2.196-.645.5-.343.703-.746.882-1.332.184-.582.344-1.347.524-2.054.183-.704.383-1.348.504-1.993.121-.644.164-1.289.062-1.773-.101-.484-.343-.805-.523-1.633-.184-.824-.305-2.152-.363-3.441-.059-1.289-.059-2.539.039-3.688.101-1.148.304-2.195.586-2.961.281-.765.644-1.25.964-1.652.325-.402.606-.727.907-1.066.304-.344.625-.708 1.05-1.008.422-.305.946-.547 1.469-.785.524-.243 1.047-.485 1.633-.606.582-.121 1.227-.121 1.953-.101.727.019 1.531.062 2.277.14.747.082 1.43.203 2.075.281.644.082 1.25.121 1.832.286.586.16 1.148.441 1.55.785.403.343.645.746 1.071.988.422.238 1.027.32 1.449.523.422.2.664.524.805 1.028.14.504.179 1.187.222 1.812.039.625.078 1.188.121 1.992.04.809.079 1.856.118 2.84.043.989.082 1.914.101 2.66s.02 1.309-.019 1.813-.121.945-.262 1.25c-.141.301-.344.461-.504.703s-.281.566-.383.906a6.3 6.3 0 0 0-.222 1.11c-.039.402-.039.847-.039 1.25 0 .402 0 .765-.059 1.246-.063.484-.184 1.09-.285 1.594-.098.503-.18.906-.34 1.148-.16.238-.402.32-.586.523-.18.2-.301.524-.383.907-.078.382-.121.824-.301 1.168-.179.339-.504.582-.964.703-.465.121-1.071.121-1.575.16-.504.043-.906.121-1.265.184-.364.058-.688.101-.969.222s-.523.32-.727.582a2.6 2.6 0 0 0-.461 1.028c-.101.445-.144 1.007-.043 1.41.102.402.344.644.79.906.441.262 1.085.547 2.054.664.965.121 2.254.082 3.606.063 1.347-.02 2.758-.02 4.429.039 1.672.062 3.606.183 5.137.242s2.66.058 4.613.121c1.954.058 4.735.18 6.688.281s3.082.184 4.027.121c.949-.058 1.711-.262 2.235-.523.527-.262.808-.586 1.109-.887a10 10 0 0 1 1.027-.887c.403-.3.887-.625 1.328-.906.446-.281.848-.523 1.25-.766.403-.242.805-.484 1.27-.664.465-.179.988-.3 1.613-.484.621-.18 1.348-.422 1.992-.422.645 0 1.211.242 1.735.567.523.32 1.008.722 1.57 1.105s1.207.746 1.774 1.027c.562.282 1.046.485 1.73.828.688.34 1.57.825 2.215 1.168.644.34 1.051.543 1.473.723.421.184.867.344 1.609.707.746.363 1.793.926 2.379 1.41.582.485.703.887.562 1.289-.14.403-.543.805-.906 1.168-.363.364-.684.684-.965.907-.285.218-.527.339-.949.199s-1.027-.543-1.59-.906c-.562-.36-1.09-.684-1.512-.926a14 14 0 0 0-1.085-.563 6.7 6.7 0 0 0-1.168-.445c-.465-.121-1.028-.199-1.512-.32-.485-.121-.887-.282-1.25-.364s-.684-.082-.945.141c-.262.223-.465.664-.727 1.109-.262.442-.586.887-1.027 1.266-.442.383-1.008.707-1.411.93-.402.218-.644.34-1.027.504-.383.16-.906.359-1.328.683-.426.32-.746.766-1.148.988-.403.219-.887.219-1.329.02-.445-.203-.847-.605-1.211-.805-.363-.203-.683-.203-1.066-.164-.383.043-.828.121-1.309.16-.484.043-1.007.043-1.511.043h-1.449c-.465 0-.907 0-1.29.102-.382.098-.707.301-.828 1.125-.121.828-.039 2.277-.121 3.164s-.32 1.207-1.269 1.391c-.946.179-2.598.218-4.551.218s-4.211-.039-5.883-.039-2.758.039-4.047.082c-1.289.039-2.781.078-3.949.102-1.168.019-2.016.019-2.637.058-.625.04-1.027.122-1.332.344-.3.219-.504.582-.605 1.028-.098.441-.098.964-.078 1.992.019 1.027.058 2.558-.043 3.605-.098 1.047-.34 1.614-.383 2.239-.039.625.121 1.308.203 1.972s.082 1.309.082 1.895c0 .582 0 1.109.02 2.297.019 1.187.058 3.039.078 4.57.023 1.531.023 2.742.023 4.012 0 1.265 0 2.597.02 3.945.019 1.351.058 2.719.078 3.746s.019 1.715-.02 2.297c-.039.586-.121 1.066-.078 1.734.039.664.199 1.508.32 2.578.122 1.067.204 2.356.243 3.364.039 1.007.039 1.73.019 2.437a26 26 0 0 1-.14 2.156c-.082.766-.204 1.61-.485 2.172-.281.567-.722.848-.945 1.352s-.223 1.23-.121 2.277c.101 1.047.301 2.418.484 3.746.18 1.328.34 2.617.422 3.707.082 1.086.082 1.973.082 2.918 0 .95 0 1.957-.023 2.84-.02.887-.059 1.652-.161 3.164-.101 1.512-.261 3.766-.32 5.438-.062 1.672-.019 2.761 0 3.668.02.906.02 1.632-.121 2.215-.141.585-.426 1.027-1.129 1.128-.703.102-1.832-.14-2.758-.304a26 26 0 0 0-2.398-.301c-.746-.059-1.512-.102-2.356-.203-.847-.098-1.773-.262-2.738-.383-.969-.117-1.976-.199-2.722-.18-.747.02-1.227.141-1.653.344-.422.199-.785.481-.965 1.047-.183.562-.183 1.41-.183 2.519 0 1.106 0 2.477.043 3.907.039 1.429.121 2.922.16 4.371s.039 2.859.039 4.23 0 2.7.019 3.809c.024 1.105.063 1.992-.078 2.719-.14.722-.465 1.289-.808 1.832-.34.543-.703 1.066-.946 1.652-.242.582-.363 1.227-.421 2.215-.063.988-.063 2.316-.063 3.406v2.777c0 .848 0 1.692-.262 2.137-.261.442-.785.481-3 .442a369 369 0 0 1-9.125-.301c-3-.141-5.093-.305-6.144-.383-1.047-.082-1.047-.082-1.067-1.047m103.774.32c.144-.218.433-.648.664-1.07.23-.418.402-.82.547-1.195.144-.375.261-.723.332-1.172.074-.445.101-.992.117-1.543.016-.547.016-1.098 0-1.602a40 40 0 0 0-.074-1.429c-.028-.461-.055-.922-.098-1.313a6 6 0 0 0-.203-1.054 5.6 5.6 0 0 0-.434-1.067c-.187-.348-.418-.664-.535-.969-.113-.3-.113-.589-.215-.91-.101-.316-.304-.664-.504-.996a9 9 0 0 0-.605-.894c-.203-.247-.406-.418-.523-.622-.114-.199-.145-.429-.418-.675-.274-.246-.793-.508-1.082-.797-.289-.285-.348-.606-.375-1.008-.028-.406-.028-.895-.102-1.344a5.7 5.7 0 0 0-.289-1.054c-.07-.204-.766-.895-.938-.954-.171-.054-.519-.171-.734-.472-.219-.305-.305-.797-.391-1.242-.085-.45-.175-.852-.316-1.125-.144-.278-.348-.422-.652-.594-.301-.172-.707-.375-.91-.637-.2-.258-.2-.574-.2-.922 0-.347 0-.722-.074-1.156a7.5 7.5 0 0 0-.359-1.312c-.145-.391-.289-.68-.504-.895-.219-.215-.508-.359-.707-.621-.203-.258-.321-.633-.379-1.067-.055-.433-.055-.925-.102-1.589-.043-.664-.129-1.5-.172-2.121-.043-.622-.043-1.024-.043-1.43 0-.402 0-.809-.015-1.195-.012-.391-.043-.766-.07-1.141a27 27 0 0 1-.075-1.129c-.011-.375-.011-.75-.011-1.066s0-.579.054-1.024c.059-.449.176-1.086.321-1.519.144-.43.316-.664.433-.965.113-.305.172-.68.258-1.012s.203-.621.262-.965c.054-.347.054-.75.054-1.125 0-.379 0-.722.032-.996.027-.277.086-.476.129-.765s.074-.665.074-1.028c0-.359-.031-.707-.059-1.082-.031-.375-.058-.777-.16-1.242-.102-.461-.273-.981-.332-1.398-.059-.418 0-.735.031-1.055.028-.317.028-.633.028-1.067s0-.98-.071-1.312c-.074-.332-.218-.449-.347-.594a1.2 1.2 0 0 1-.305-.59c-.059-.277-.059-.652-.059-1.027s0-.75-.027-1.141c-.027-.386-.086-.793-.23-1.152-.145-.363-.375-.68-.606-.969s-.461-.547-.594-.851c-.129-.305-.156-.649-.203-.996-.043-.348-.097-.692-.129-1.125a16 16 0 0 1 0-1.602c.032-.652.086-1.43.289-2.008s.547-.953.852-1.285.562-.621.793-.969c.23-.343.433-.75.652-1.023.215-.274.446-.418.664-.75.215-.332.418-.852.633-1.211.219-.363.449-.566.637-.766.187-.203.332-.406.433-.679.098-.274.157-.621.188-1.008.027-.391.027-.824.043-1.242.012-.418.043-.825.086-1.172.043-.344.101-.633.215-.895.117-.258.289-.488.433-.691s.262-.375.434-.723c.172-.347.402-.867.594-1.285.187-.418.332-.734.531-1.098.203-.359.461-.761.723-1.039.261-.273.519-.418.835-.547.321-.128.696-.246.954-.476.261-.231.406-.578.652-.852.242-.273.59-.476.949-.722.363-.246.738-.536 1.113-.707.375-.172.75-.231 1.039-.348.29-.113.493-.289.793-.434.305-.14.707-.257 1.04-.386.332-.133.593-.274.882-.434s.606-.332.938-.519c.332-.188.68-.391 1.066-.594.391-.199.824-.403 1.172-.504.344-.102.606-.102.953-.102.344 0 .778 0 1.184-.043a4.6 4.6 0 0 0 1.094-.246c.32-.113.578-.258.882-.504.301-.246.649-.593 1.008-.781.363-.187.738-.215 1.172-.273s.922-.145 1.328-.215l1.024-.188c.304-.058.593-.117.765-.32.172-.199.231-.547.317-.863.086-.317.203-.606.289-1.039.086-.434.144-1.012.015-1.301s-.449-.289-.808-.375-.766-.258-1.114-.418c-.343-.16-.632-.305-.906-.434-.277-.129-.535-.246-.738-.578s-.348-.879-.418-1.355a6.3 6.3 0 0 1-.059-1.27c.016-.39.043-.765.016-1.082-.031-.32-.117-.578-.145-.808-.031-.231 0-.434-.085-.68s-.29-.535-.551-.879c-.258-.348-.574-.75-.735-1.027-.16-.274-.16-.418-.16-.707s0-.719.016-1.168c.012-.45.043-.911.027-1.184-.012-.273-.07-.359-.215-.492-.144-.129-.375-.301-.562-.477a2.2 2.2 0 0 1-.461-.574 2.1 2.1 0 0 1-.277-.883c-.028-.359.031-.793.16-1.097.129-.301.332-.477.562-.707.231-.231.492-.52.664-.895s.258-.836.305-1.211c.043-.375.043-.664.043-.937 0-.278 0-.536-.016-.868a38 38 0 0 0-.074-1.14c-.027-.403-.055-.809-.07-1.328-.016-.52-.016-1.157.015-1.602.028-.449.086-.707.2-1.07.117-.36.289-.821.492-1.27.203-.445.433-.879.722-1.254.29-.379.633-.695.954-.968.316-.274.605-.504.879-.723.273-.215.535-.418.851-.621a11 11 0 0 1 1.125-.606c.434-.203.926-.402 1.359-.578a13 13 0 0 1 1.211-.433c.407-.114.84-.2 1.243-.301.402-.102.781-.219 1.183-.317a9 9 0 0 1 1.301-.234c.461-.043.953-.043 1.441-.07.493-.028.981-.086 1.547-.043.563.043 1.196.187 1.875.418.68.23 1.399.551 2.008.765.606.215 1.094.332 1.57.504.477.176.942.407 1.371.653.434.242.84.504 1.258.82.418.32.852.695 1.211 1.039.363.348.653.664.981 1.098.332.433.711.984 1.054 1.547.348.562.664 1.14.825 1.628.156.493.156.895.144 1.43-.016.535-.043 1.199-.16 1.789-.117.594-.316 1.113-.52 1.645a20 20 0 0 0-.644 1.945c-.234.863-.512 2.043-.66 2.617-.153.571-.18.539-.364.977a10.7 10.7 0 0 0-.668 2.262 7.4 7.4 0 0 0 .055 2.695c.176.797.492 1.422.524 2.043.035.617-.219 1.23-.188 1.808.027.579.336 1.121.508 1.75.168.633.195 1.356.211 1.993.015.632.015 1.183.187 1.656.172.476.52.883.911 1.082.39.203.824.203 1.226.234.402.028.781.086 1.039.242.262.161.402.422.68.739.273.316.676.691 1.008 1.023s.593.621.824.781c.23.157.433.188.691.258.262.074.578.188.91.321.332.128.68.273 1.082.429.407.16.868.332 1.317.52.445.191.879.39 1.269.551.391.156.735.273 1.153.39.422.113.91.231 1.328.332.422.098.765.188 1.183.387.422.203.911.519 1.532.867s1.371.723 1.949 1.098.98.75 1.328 1.125c.344.375.633.75.91 1.039.274.289.531.492.664.594.129.097.992.964 1.297 1.195.305.234.91.695 1.402 1.012.489.316.864.492 1.137.793.278.304.449.738.567 1.085.113.344.171.606.273 1.083.102.476.246 1.167.359 1.789.118.621.204 1.168.289 1.703.086.535.172 1.054.348 1.429.172.375.434.606.664.879.231.274.434.594.676.953.246.36.535.766.797 1.387.258.621.488 1.457.605 2.051.114.59.114.937.114 1.527v2.153c0 .722 0 1.328.015 2.062.016.738.043 1.602.117 2.496.071.899.188 1.821.243 2.512.058.695.058 1.156.058 1.848 0 .695 0 1.617-.113 2.324-.117.707-.348 1.199-.551 1.703a9 9 0 0 0-.488 1.59 11 11 0 0 0-.203 1.761c-.032.59-.032 1.168-.043 1.977-.016.809-.043 1.848-.031 3.074.015 1.227.074 2.641.101 3.594.031.953.031 1.445.031 1.906v1.66c0 .766 0 1.86-.047 2.641-.043.777-.128 1.242-.199 1.719-.074.476-.133.965-.32 1.297-.188.332-.504.504-.75.664s-.418.304-.664.461c-.242.16-.563.332-.766.722-.199.391-.285.996-.402 1.457-.117.465-.262.782-.418 1.157a8 8 0 0 0-.449 1.3c-.114.489-.172 1.039-.317 1.614a7.3 7.3 0 0 1-.605 1.605c-.231.418-.461.649-.723.981s-.547.765-.793 1.097-.449.563-.551.981c-.101.418-.101 1.023-.101 1.558s0 .996-.086 1.446c-.086.445-.258.879-.359 1.457-.102.578-.129 1.297-.231 1.804-.101.504-.273.793-.363 1.239-.086.449-.086 1.054-.086 1.707v4.59c0 .82 0 1.601.074 2.207.07.605.215 1.039.375 1.472s.332.867.59 1.227c.262.359.609.648.809 1.066.203.422.261.969-9.715 1.156-9.973.188-29.977.016-39.981-.074-10.004-.086-10.004-.086-9.859-.301" style="fill:#242424;fill-opacity:1;fill-rule:nonzero;stroke:none" transform="scale(1.33333)"/><path d="M222.902 86.793h53.262v44.383h-53.262z" style="fill:#c40303;fill-opacity:1;fill-rule:nonzero;stroke:none" transform="scale(1.33333)"/><path d="M238.234 130.914c.133-.117.399-.348.536-.586.136-.242.144-.488.187-.746.047-.258.125-.519.066-.82-.062-.301-.269-.633-.46-.899-.188-.261-.364-.457-.575-.59a1.3 1.3 0 0 0-.703-.203c-.246.004-.492.086-.676.071-.187-.016-.308-.133-.441-.278a4 4 0 0 1-.402-.527 4 4 0 0 1-.364-.723 5 5 0 0 1-.203-.808c-.054-.289-.109-.598-.191-.84-.086-.242-.203-.414-.203-.711 0-.293.117-.707.109-1.059-.012-.355-.148-.648-.137-.996.008-.347.168-.746.219-1.183s-.012-.914-.125-1.164c-.113-.254-.277-.282-.441-.364-.164-.078-.321-.218-.504-.355a9 9 0 0 0-.582-.399c-.199-.121-.391-.23-.504-.609s-.149-1.023-.121-1.551c.027-.527.117-.937.254-1.215.136-.273.316-.41.488-.57a2.52 2.52 0 0 0 .769-1.348c.059-.273.059-.55.059-.961v-1.566c0-.605 0-1.269.024-1.785.023-.512.066-.879.156-1.223.094-.343.226-.664.332-.961.101-.297.168-.57.269-.968.106-.403.239-.926.352-1.34.117-.41.207-.707.355-.973.145-.262.352-.492.59-.766.238-.273.512-.593.805-.925.297-.332.613-.676.93-.938.32-.262.636-.445.988-.617.351-.172.738-.332 1.058-.48.317-.149.567-.286.872-.446.308-.16.671-.344 1.113-.469.445-.125.965-.195 1.433-.25.465-.058.872-.105 1.34-.128.465-.02.985-.02 1.43-.008a5.6 5.6 0 0 1 1.34.16c.531.125 1.238.351 1.816.469.578.113 1.031.113 1.496.285.469.172.946.515 1.5.832.555.32 1.192.621 1.715.984.524.367.93.801 1.328 1.281.399.481.782 1.008 1.168 1.477.387.469.774.879 1.098 1.363.324.485.586 1.039.742 1.496.152.457.199.813.227 1.332a17.3 17.3 0 0 1-.172 3.625c-.071.469-.129.778-.278 1.172-.148.395-.386.871-.566 1.289s-.301.778-.445 1.207c-.145.434-.313.934-.496 1.43-.184.496-.379.984-.52 1.516a8.7 8.7 0 0 0-.25 1.59c-.031.476-.012.847-.012 1.293s-.015.96-.089 1.378c-.079.414-.208.731-.258 1.071s-.024.711-.055 1.121c-.031.414-.125.871-.148 1.273a3.05 3.05 0 0 0 .519 1.942c.184.261.41.492.555.847.148.352.219.832.387 1.188.171.355.445.582.695.742s.476.254.715.32c.238.071.488.114.816.239.332.125.746.328 1.016.488.273.16.406.277-3.364.32a654 654 0 0 1-15.218-.051c-3.77-.066-3.633-.175-3.563-.23.067-.055.067-.055.199-.172" style="fill:#2d2222;fill-opacity:1;fill-rule:nonzero;stroke:none" transform="scale(1.33333)"/><g clip-path="url(#c)" opacity=".78" transform="scale(1.33333)"><text xml:space="preserve" style="font-variant:normal;font-weight:400;font-size:14.771px;font-family:Haettenschweiler;-inkscape-font-specification:Haettenschweiler;writing-mode:lr-tb;fill:#c40303;fill-opacity:1;fill-rule:nonzero;stroke:none" transform="matrix(1 0 0 .4871 228.6 154.361)"><tspan x="0 5.597 12.095 18.017 23.657 30.155 35.622" y="0">BARDACH</tspan><tspan x="1.886 7.353 12.993 18.77 25.045 30.216 36.715" y="19.345">COUNTY </tspan><tspan x="11.024 16.383 22.881 25.572" y="38.689">JAIL</tspan></text></g><path d="M450.438 955c-2.641.074-5.379-.312-7.895.527-3.809 1.27.832-.152-1.578 1.051-.156.082-.348 0-.524 0-.527.176-1.082.281-1.578.527-.925.461-1.519 1.133-2.633 1.579-.324.132-.718-.11-1.05 0-1.34.449-.903 1.578-2.633 1.578h-1.051c0 .176.156.449 0 .527-.473.234-1.207-.371-1.578 0-.125.125.156.449 0 .527-.785.391-1.773-.171-2.633 0-1.172.235-4.855 1.114-5.785 1.579-.223.109-.293.445-.527.523-.379.129-2.336.23-2.629.527-.125.125.121.403 0 .528-.239.234-4.309 2.488-4.739 2.629-1.671.558-3.644-.012-5.261.527-.371.125-.68.402-1.051.527-.875.289-2.332-.414-3.156 0-.223.11-.352.352-.528.524-.527 0-1.066-.125-1.578 0-.242.062-.289.449-.527.527-2.277.758.195-1.004-2.102.527-2.168 1.446-2.785 2.598-4.211 4.735-.273.414-.832.609-1.05 1.051-.161.32-.309 1.359-.528 1.582-.328.328-4.191 1.593-3.683 2.101.218.219 3.082-.488 3.156-.523.156-.082 0-.352 0-.528.352-.175.68-.402 1.055-.527.472-.156 1.105.16 1.578 0 2.101-.699-1.754-.574 1.578-1.051 1.594-.226 9.394.824 9.996.528 2.191-1.098-.563.035.527-1.055.121-.125.368.078.524 0 1.308-.652 1.59-1.711 3.16-2.106 2.601-.648 5.879.848 8.418 0 1.664-.554.367-1.175 1.578-1.578.332-.109.719.114 1.051 0 .472-.156.609-.828 1.051-1.05.316-.157.804.246 1.054 0 .344-.344.328-1.215 1.051-1.579.156-.078.402.125.527 0 1.09-1.089-1.664.043.528-1.054.156-.078.402.125.523 0 .395-.391.137-1.184.528-1.578.73-.731 2.335-1.168 3.156-1.579.715-.355 1.39-1.218 2.105-1.578 1.449-.722 2.352-.082 3.684-.527 1.015-1.012.019-.266 1.051-.523 1.425-.356 7.406-1.957 8.418-2.633.148-.098-.122-.403 0-.524.277-.277.703-.351 1.054-.527.68-.34.824-.023 1.578-.527.129-.086 2.629-1.489 2.629-1.579 0-.785-.699-1.402-1.05-2.105" style="fill:maroon;fill-opacity:1;fill-rule:nonzero;stroke:none" transform="scale(1.33333)"/><path d="m356.496 226.891.078-1.356-.238-.797v-.875l-.559-.554-.476-.879-.477-.715-.558-.875-.317-.32-.16-.954-.398-.48-.637-.637-.238-.636-.239-.555-.082-.957-.238-.317-.16-.32-.399-.715-.316-.558v-.957l-.082-.875.082-1.036-.16-.875-.477-1.351-.32-.719-.316-.637-.481-.316-1.113-.48-.875-.079h-3.82l-2.071.161-1.754-.321h-1.113l-2.309.082-1.832-.398-.16-1.754.16-1.91v-1.75l.239-3.821-.078-2.152v-3.742l.16-2.148.16-1.192.238-1.832.317-1.992v-1.91l-.161-1.274v-1.351l-.078-1.672v-.879l.078-2.227.082-.796.161-1.993.078-1.672.078-1.511v-2.625l.242-1.356v-2.945l-.32-1.59v-3.187l.078-2.387.16-1.434-.16-1.75-.156-1.035-.239-.797-.398-.476-.719-.719h-2.07l-.637.32-.715.555-.875.082h-1.593l-1.196.477h-.793l-.879-.559v-.793l-.394-.637-.957-1.195-.875-.477-.559-.082-.808.504-.825.367-.504.09-.867.457-.687.504-.547.457-.688.551-.457.273-1.328.231-1.14-.094-.871-.183-.684-.641-.367-.273-.824-.09-.688-.137-.547-.23-.23-.368-.043-.547-.641-.183h-1.008l-.457-.274-.047-.55.094-.641.547-.457.457-.227.504-.23 1.008-.731.504-.367.64-.547.594-.503.547-.504.32-.457.137-.457.047-.457-.227-.321-.597-.32-.641-.047-.594-.227-.64-.32-.457-.23-.137-.457.09-.457.367-.231.73-.18.688-.046h.594l1.464.089h1.418l1.329.137 1.277.094 1.281.32.824-.137.914-.414.914-.64.825-.41 1.05-.504.918-.547.778-.504.867-.551.777-.547.731-.55.871-.684.687-.594.731-.597.547-.684.961-.598.504-.593.273-.547.23-.551.184-.867.043-.871.047-1.325.09-1.281.047-1.328v-1.645l.046-1.554.047-1.418.043-.688v-.914l-.043-1.144v-1.282l.043-.73.137-.457v-1.922l.184-.867.457-.824.593-.961.414-.778.547-.687.321-.457.367-.547.226-.594v-.64l.321-1.739.093-.504.411-.777.367-.961.137-.547.183-.918.684-1.965.414-.914.41-1.007.367-1.098.047-.824.18-1.051v-2.195l.457-.641.23-.867.137-.871.047-.914.137-1.188.41-.734.152-.364.582-.128h2.719l.258-.711.062-.778-.387-.449-2.023-.215-1.145-.277-.589-.348-.832-.14-.586-.036-.661-.136-.449-.207-.453-.348-.137-.484-.277-.418-.207-.172-.141-.418-.242-.414-.277-.348-.313-.207-.207-.312v-.243l-.172-.207-.277-.242-.418-.176-.312-.136-.071-.348-.066-.379-.106-.523-.136-.692-.211-.761-.172-.731-.383-.172h-.308l-.833-.105-.554-.137-.176-.172v-.625l.176-.484.277-.453.242-.692.102-.347v-1.352h-1.317l-.726-.172-.66-.207-.485-.246-.519-.309-.555-.589-.414-.485-.176-.554-.07-.555.07-.66.313-.762.383-.555.308-.519.313-.731.625-.519.383-.59.449-.277.554-.45.727-.797.313-.382.382-.52.59-.449.621-.484.696-.313.691-.312.453-.415.102-.453v-.656l.207-.348.347-.347.141-.52.066-.277.176-.52.207-.484.485-.52.554-.382.453-.278.586-.207.418-.347.657-.243.972-.105.832-.066.762-.036.59-.382.656-.59.488-.102 1.075-.176 1.453-.066 1.664.102 1.25.242.867.277.484.625.278.313.519.625.625.242.727.242.761.348.59.379.242.902.208 1.004.035.972v1.766l.207.832.246 1.215-.035.832v.621l.449.52.484.418.973.625.656.726.695.555.52.59.449.379.313.695.277.59.348.832v.414l.035.418-.035.586-.383.418-.379.414-.313.242-.488.348-.172.347-.625.278-.621.035h-.765l-.485.07-.035 1.352.035.379.106.972.242.137.691.07 1.043.137 1.11.453.898.656.797.797.797.242.972.489.833.379.933.832.902.796.625.52.52.488.691.309.731.695.656.449.52.485.66.625.969 1.144.625.414.242.524.519.828.383.277.106.59.207.66.277.52.59.519.207.418.101.485.489.312.379.586.418.453.414.969.14.59.449 1.281.313.555.035.418v1.386l.207.692.172.519.105.797.172 1.008.141 1.664.07.586v1.18l.449 3.535.137 1.18v.933l.141.797.242.766.172.898.277 1.352.071 1.179.14.938.414.898.207 1.145.141 1.144.172 1.211v1.215l.453 1.246.242.453.102.485.382 2.426.207.832.106.902.348.555v1.004l.066 1.628.242 1.075v1.281l.071 1.285.312 1.316.035.797.102 1.282.246 1.039.066 1.179.035 1.282.141.902.172 1.039.348.313.242 1.25.035.828.277 2.152.067.969.277.66.242.586.141.765.347.586.278.211.277.485.137.625.105.621.555 1.941.313 1.11.101.867.141 1.246.379.832.277.973.07.933.141.973.414.902.172.762.941 3.305.059.843.222 1.071.114.957.113.789.563 1.179.339.903.391.336.34 1.746.394 1.574.282 1.129.562 1.519.168.957.168.899.621.789.449 1.238v.844l.227 1.125.562 1.016.168.789.395 1.461.168 1.296v2.137l.281 1.633.281 1.07.676.731.676 2.254.281 1.406.395.957.281 1.012.172 1.07.504 1.578.394 1.293.227 1.352.055 1.238-.114.676-.222.281-1.352.055h-1.406l-5.012-.11H381.48l-2.925-.113-.903.504v2.195l.395 1.129v1.125l.34 1.461.113.789.336.563.168 1.183-.055 1.465v.785l.281 1.578.227 1.239.055 1.632-.055 1.747v1.293l.391 1.519v.789l-23.36.899v-.957zl4.832 1.875" style="fill:#242424;fill-opacity:1;fill-rule:nonzero;stroke:none" transform="scale(1.33333)"/></svg>