<?xml version="1.0" encoding="UTF-8" standalone="no"?>
<!-- Created with Inkscape (http://www.inkscape.org/) -->

<svg
   version="1.1"
   id="svg3334"
   width="1122.5197"
   height="1587.4016"
   viewBox="0 0 1122.5197 1587.4016"
   sodipodi:docname="Cartel Película Seven Luis Neira.svg"
   inkscape:version="1.2.1 (9c6d41e410, 2022-07-14)"
   xmlns:inkscape="http://www.inkscape.org/namespaces/inkscape"
   xmlns:sodipodi="http://sodipodi.sourceforge.net/DTD/sodipodi-0.dtd"
   xmlns="http://www.w3.org/2000/svg"
   xmlns:svg="http://www.w3.org/2000/svg">
  <defs
     id="defs3338">
    <clipPath
       clipPathUnits="userSpaceOnUse"
       id="clipPath3376">
      <path
         d="M 0,0 H 842 V 1191 H 0 Z"
         id="path3374" />
    </clipPath>
    <clipPath
       clipPathUnits="userSpaceOnUse"
       id="clipPath3392">
      <path
         d="M 0,0 H 842 V 1191 H 0 Z"
         id="path3390" />
    </clipPath>
    <clipPath
       clipPathUnits="userSpaceOnUse"
       id="clipPath3438">
      <path
         d="M 0,0 H 842 V 1191 H 0 Z"
         id="path3436" />
    </clipPath>
  </defs>
  <sodipodi:namedview
     id="namedview3336"
     pagecolor="#505050"
     bordercolor="#eeeeee"
     borderopacity="1"
     inkscape:showpageshadow="0"
     inkscape:pageopacity="0"
     inkscape:pagecheckerboard="0"
     inkscape:deskcolor="#505050"
     showgrid="false"
     inkscape:zoom="0.36927739"
     inkscape:cx="215.28532"
     inkscape:cy="907.17713"
     inkscape:window-width="1920"
     inkscape:window-height="1009"
     inkscape:window-x="-8"
     inkscape:window-y="52"
     inkscape:window-maximized="1"
     inkscape:current-layer="g3342">
    <inkscape:page
       x="0"
       y="0"
       id="page3340"
       width="1122.5197"
       height="1587.4016" />
  </sodipodi:namedview>
  <g
     id="g3342"
     inkscape:groupmode="layer"
     inkscape:label="Page 1"
     transform="matrix(1.3333333,0,0,1.3333333,0,6.5018372e-5)">
    <g
       id="g3344">
      <path
         d="M 2.363,0 H 848.75 V 1193.926 H 2.363 Z"
         style="fill:#242424;fill-opacity:1;fill-rule:nonzero;stroke:none"
         id="path3346" />
      <path
         d="m 618.609,1012.004 c 0,0 -16.367,-259.551 264.629,-779.676 280.996,-520.125 163.688,49.649 163.688,49.649 L 817.762,135.395 569.504,733.539 l -30.008,234.059 30.008,82.746 z"
         style="fill:#800000;fill-opacity:1;fill-rule:nonzero;stroke:none"
         id="path3348" />
      <path
         d="m 309.414,1028.289 c 0,0 8.207,-298.891 206.746,-676.316 90.356,-171.762 72.031,-144.176 72.031,-144.176 h 266.7 c 0,0 -314.536,521.555 -278.793,812.012 35.738,290.457 -266.684,8.48 -266.684,8.48 z"
         style="fill:#c40303;fill-opacity:1;fill-rule:nonzero;stroke:none"
         id="path3350" />
      <path
         d="m 259.145,1211.602 -6.125,-184.887 205.253,-76.305 12.254,255.32 z"
         style="fill:#c87137;fill-opacity:1;fill-rule:nonzero;stroke:none"
         id="path3352" />
      <path
         d="m 457.516,950.609 200.191,67.985 3.129,189.176 -193.938,-11.825 z"
         style="fill:#a05a2c;fill-opacity:1;fill-rule:nonzero;stroke:none"
         id="path3354" />
      <path
         d="m 2.121,-9.133 h 846.09 V 226.898 H 2.121 Z"
         style="fill:#c40303;fill-opacity:1;fill-rule:nonzero;stroke:none"
         id="path3356" />
      <path
         d="m 464.168,1195.762 c 2.898,-17.492 2.379,-35.719 2.832,-53.574 0.105,-4.153 1.844,-13.735 0.438,-17.301 -0.293,-0.739 -1.231,-1 -1.43,-1.785 -1.391,-5.426 2.496,-13.918 0.48,-19.028 -1.004,-2.539 -1.773,-4.492 -2.773,-7.031 -1.055,-2.668 0.805,-7.465 0.262,-10.379 -1.45,-7.781 -2.582,-14.562 -2.379,-22.601 0.289,-11.528 3.379,-35.618 -0.336,-45.036 -2.235,-5.66 2.886,-20.293 0.652,-25.949 -0.289,-0.742 -1.137,-1.043 -1.43,-1.785 -2.015,-5.109 1.871,-13.602 0.481,-19.031 -0.199,-0.782 -1.137,-1.043 -1.43,-1.782 -1.312,-3.332 2.711,-16.25 0.481,-19.031 -2.981,-3.722 -9.899,3.656 -11.922,4.75 -1.637,0.887 -4.418,1.512 -5.985,3.239 -0.359,0.398 0.313,1.335 -0.043,1.73 -1.355,1.496 -4.351,0.652 -5.941,1.512 -1.742,0.941 -2.766,2.351 -4.512,3.293 -1.304,0.711 -4.64,-0.535 -5.894,-0.219 -1.074,0.273 -1.942,1.25 -2.992,1.621 -1.258,0.441 -3.243,-0.805 -4.422,-0.164 -0.633,0.34 -0.852,1.441 -1.52,1.672 -1.43,0.504 -4.461,-0.996 -5.894,-0.219 -1.746,0.945 -2.77,2.352 -4.512,3.297 -1.594,0.863 -4.301,-1.086 -5.899,-0.223 -2.57,1.395 -4.882,1.793 -7.457,3.188 -1.886,1.023 -7.386,-1.938 -8.843,-0.332 -2.481,2.738 4.144,-0.196 -3.082,5.082 -0.653,0.476 -4.063,2.062 -3.035,3.347 0.628,0.786 12.57,-2.39 13.355,-2.964 1.18,-0.86 1.703,-2.883 3.035,-3.348 4.781,-1.676 11.942,-0.758 17.777,-2.801 1.333,-0.469 1.708,-2.883 3.04,-3.351 0.941,-0.329 2.003,0.441 2.945,0.109 4.648,-1.629 -0.461,-1.172 1.562,-3.402 0.715,-0.793 2.235,0.898 2.95,0.109 0.605,-0.672 0.851,-2.172 3.035,-3.352 2.437,-1.32 14.125,0.528 17.691,0.661 1.399,0.05 7.981,-0.75 8.844,0.328 0.336,0.422 -0.25,1.207 -0.043,1.73 1.785,4.531 0.152,6.305 1.211,10.434 0.816,3.183 1.914,5.578 2.73,8.762 0.516,2.023 -0.922,5.031 -0.175,6.921 0.293,0.739 1.136,1.043 1.429,1.782 0.414,1.05 -0.761,2.621 -0.086,3.461 0.336,0.421 1.137,-0.364 1.473,0.054 0.746,0.934 -0.422,5.59 -0.176,6.922 3.176,17.039 2.121,32.856 1.637,52.008 -0.172,6.734 1.098,21.93 -0.699,27.68 -4.836,15.472 2.664,-15.832 -1.739,10.328 -0.914,5.433 -4.519,5.258 -3.296,13.726 0.519,3.602 2.167,6.895 2.687,10.493 0.34,2.371 -1.078,6.472 -0.219,8.648 0.289,0.742 1.231,1.004 1.43,1.785 1.496,5.848 -2.707,15.234 -0.527,20.762 1.156,2.922 3.347,5.461 4.207,8.812 3.078,12.024 2.355,23.5 2.027,36.442 z"
         style="fill:#800000;fill-opacity:1;fill-rule:nonzero;stroke:none"
         id="path3358" />
      <path
         d="m 477.148,1134.039 -0.164,-1.519 0.25,-1.836 0.321,-2.387 -0.055,-0.942 0.246,-1.835 0.379,-1.442 0.559,-1.422 0.195,-1.468 0.199,-1.469 -0.137,-1.699 0.278,-0.711 0.461,-0.688 0.172,-1.285 0.175,-1.285 0.477,-2.176 0.656,-2.156 0.863,-2.313 0.274,-2.019 0.887,-2.496 0.195,-1.469 0.578,-2.914 0.297,-2.203 0.887,-2.496 0.324,-2.387 0.098,-0.734 0.304,-0.895 0.582,-1.602 0.352,-1.261 0.355,-1.262 0.149,-1.102 0.683,-2.336 1.008,-3.417 0.715,-1.211 0.297,-2.204 1,-0.613 0.199,-1.469 0.32,-2.386 0.403,-1.625 0.281,-0.711 0.937,-2.864 -0.066,-2.253 0.555,-2.727 0.558,-1.422 0.5,-2.363 0.657,-2.152 0.519,-3.856 c 0,0 2.219,-4.187 3.965,0.535 1.75,4.719 -0.695,9.25 -0.695,9.25 l -0.274,2.02 0.242,2.277 -0.836,2.129 -0.304,0.895 -0.172,1.285 -0.707,2.519 -1.035,3.598 -1.2,2.082 c 0,0 0.274,-2.02 0,0 -0.273,2.019 -0.273,2.019 -0.273,2.019 l -0.648,3.465 -0.989,3.231 -0.457,0.687 -0.937,2.864 -0.731,2.707 -0.715,1.21 -0.656,2.153 -0.222,1.652 0.168,2.828 -0.844,0.821 -1.012,3.414 -0.707,2.523 -1.285,5.434 -1.434,1.113 0.317,1.727 -0.321,2.386 -0.347,2.571 -0.77,0.269 -0.625,3.281 -1.371,3.364 -0.715,1.214 -0.707,2.52 -0.879,3.809 z"
         style="fill:#000000;fill-opacity:1;fill-rule:nonzero;stroke:none"
         id="path3360" />
      <path
         d="m 509.367,1154.781 -0.84,0.672 v 0.84 l 0.84,0.676 0.672,-0.676 0.508,-0.336 z"
         style="fill:#000000;fill-opacity:1;fill-rule:nonzero;stroke:none"
         id="path3362" />
      <path
         d="m 503.016,1117.785 -0.098,0.485 -0.355,-0.016 -0.239,0.101 -0.203,0.536 v 0.492 l 0.07,0.441 0.336,0.145 0.313,0.34 0.019,0.332 0.071,0.437 0.316,0.539 0.484,0.231 0.415,0.058 0.445,-0.172 0.238,-0.07 0.547,-0.223 0.605,-0.378 0.059,-0.458 0.02,-0.359 -0.114,-0.379 -0.203,-0.16 -0.187,-0.324 -0.203,-0.391 -0.321,-0.043 -0.125,-0.511 -0.586,0.019 0.184,-0.402 0.129,-0.481 0.207,-0.566 0.086,-0.418 0.074,-0.781 0.203,-1.032 0.082,-0.586 0.164,-1.23 0.352,-2.598 0.109,-1.769 0.297,-0.754 0.305,-0.817 0.597,-0.582 0.211,-1.093 0.071,-0.52 0.273,-1.547 -0.34,-0.379 0.324,-0.484 0.454,-0.93 0.105,-0.777 0.277,-0.625 0.645,-0.441 0.223,-0.7 -0.231,-1.343 0.707,-0.465 0.121,-0.918 0.09,-0.641 0.57,-1.515 0.274,-1.364 0.355,-1.261 0.18,-2.032 0.316,-1.64 0.282,-2.11 -0.34,-1.543 0.07,-1.203 0.285,-2.113 -0.406,-1.082 0.176,-1.285 0.172,-1.285 -0.02,-1.215 0.043,-1.68 0.375,-2.098 0.246,-1.836 0.16,-1.191 0.239,-1.09 0.039,-0.277 0.261,-1.274 0.149,-1.097 0.047,-1.024 0.871,-1.004 0.137,-1.011 0.457,-0.684 0.171,-1.285 0.047,-1.024 -0.519,-0.91 0.301,-1.547 0.16,-1.195 -0.02,-1.219 -0.554,-0.632 -0.622,-0.832 -0.722,-0.098 -0.805,1.199 -0.363,1.352 -0.082,1.297 -0.36,0.609 -0.55,0.019 -0.289,1.457 -0.567,2.165 -0.074,1.207 -0.504,1.707 -0.457,1.339 -0.414,1.719 -0.379,1.446 -0.789,1.761 -0.234,1.746 0.519,2.965 -0.586,1.606 -0.324,1.73 -0.348,2.57 -0.543,1.985 0.211,0.492 -0.566,2.824 -0.16,1.192 0.234,0.312 -0.555,2.074 -0.207,2.215 0.645,0.649 -0.262,1.273 0.492,0.441 0.149,1.606 -0.098,0.734 -0.515,4.512 -0.305,0.895 -0.344,0.511 -0.742,0.742 0.082,1.415 0.207,2.55 -0.508,1.051 -0.918,2.027 -0.5,2.364 0.106,3.285 0.304,1.16 z"
         style="fill:#000000;fill-opacity:1;fill-rule:nonzero;stroke:none"
         id="path3364" />
      <path
         d="m 521.27,1143.734 c 0.058,-0.421 0.171,-1.261 0.183,-1.867 0.012,-0.605 -0.078,-0.976 -0.094,-1.406 -0.007,-0.43 0.055,-0.922 0.137,-1.52 0.078,-0.593 0.176,-1.296 0.293,-1.921 0.121,-0.629 0.266,-1.18 0.395,-1.875 0.129,-0.7 0.242,-1.54 0.394,-2.665 0.149,-1.121 0.34,-2.523 0.52,-3.765 0.183,-1.246 0.359,-2.328 0.519,-3.063 0.164,-0.734 0.317,-1.117 0.383,-1.613 0.066,-0.496 0.051,-1.105 0.105,-1.527 0.059,-0.422 0.188,-0.657 0.344,-0.887 0.156,-0.234 0.336,-0.461 0.469,-0.898 0.133,-0.438 0.219,-1.082 0.312,-1.778 0.094,-0.695 0.196,-1.437 0.418,-2.344 0.219,-0.906 0.563,-1.972 0.77,-2.777 0.207,-0.805 0.281,-1.351 0.34,-1.976 0.058,-0.622 0.105,-1.325 0.164,-1.95 0.058,-0.621 0.133,-1.168 0.269,-1.629 0.137,-0.464 0.336,-0.839 0.465,-1.406 0.125,-0.562 0.176,-1.312 0.227,-1.863 0.047,-0.551 0.094,-0.895 0.16,-1.395 0.066,-0.496 0.156,-1.14 0.312,-1.574 0.157,-0.433 0.387,-0.656 0.536,-1.015 0.148,-0.356 0.214,-0.856 0.265,-1.25 0.055,-0.399 0.094,-0.696 0.125,-1.098 0.028,-0.399 0.047,-0.902 0.098,-1.449 0.047,-0.551 0.129,-1.149 0.238,-1.789 0.113,-0.641 0.254,-1.329 0.414,-1.965 0.16,-0.637 0.34,-1.219 0.512,-1.953 0.176,-0.735 0.344,-1.621 0.469,-2.364 0.125,-0.742 0.203,-1.336 0.324,-2.027 0.117,-0.691 0.273,-1.48 0.449,-2.238 0.176,-0.762 0.375,-1.492 0.61,-2.699 0.238,-1.208 0.515,-2.887 0.722,-4.071 0.211,-1.187 0.356,-1.875 0.485,-2.664 0.132,-0.793 0.253,-1.683 0.453,-2.617 0.199,-0.934 0.48,-1.906 0.711,-2.711 0.234,-0.801 0.418,-1.434 0.523,-1.848 0.106,-0.418 0.133,-0.617 0.203,-0.961 0.071,-0.343 0.188,-0.832 0.36,-1.367 0.171,-0.531 0.398,-1.109 0.562,-1.59 0.164,-0.484 0.266,-0.875 0.379,-1.339 0.109,-0.465 0.234,-1.004 0.375,-1.692 0.145,-0.687 0.305,-1.527 0.512,-1.953 0.207,-0.43 0.457,-0.445 0.621,-0.75 0.168,-0.305 0.246,-0.902 0.312,-1.398 0.067,-0.497 0.121,-0.895 0.262,-1.204 0.141,-0.308 0.371,-0.531 0.652,-0.773 0.278,-0.238 0.614,-0.496 0.914,-0.711 0.301,-0.211 0.571,-0.375 0.786,-0.297 0.211,0.078 0.367,0.403 0.5,0.699 0.132,0.297 0.246,0.567 0.257,1.02 0.012,0.457 -0.074,1.102 -0.109,1.73 -0.035,0.629 -0.016,1.235 0.066,1.903 0.082,0.672 0.235,1.398 0.286,1.933 0.05,0.539 0.003,0.887 -0.11,1.731 -0.113,0.844 -0.297,2.183 -0.496,3.117 -0.199,0.934 -0.418,1.461 -0.691,2.18 -0.27,0.722 -0.594,1.64 -0.926,2.633 -0.332,0.988 -0.672,2.054 -0.871,3.164 -0.199,1.113 -0.258,2.265 -0.328,3.168 -0.075,0.898 -0.16,1.543 -0.262,2.312 -0.105,0.77 -0.227,1.664 -0.422,2.57 -0.199,0.911 -0.469,1.832 -0.691,2.536 -0.219,0.703 -0.383,1.187 -0.563,1.617 -0.183,0.429 -0.383,0.808 -0.527,1.343 -0.149,0.54 -0.242,1.235 -0.442,1.786 -0.199,0.554 -0.503,0.968 -0.785,2.32 -0.281,1.355 -0.539,3.644 -0.726,5.035 -0.188,1.387 -0.305,1.879 -0.5,2.231 -0.196,0.351 -0.473,0.566 -0.68,1.171 -0.203,0.606 -0.34,1.598 -0.469,2.184 -0.129,0.59 -0.254,0.777 -0.351,1.141 -0.098,0.367 -0.172,0.914 -0.293,1.808 -0.121,0.891 -0.285,2.133 -0.473,3.145 -0.187,1.011 -0.391,1.793 -0.582,2.648 -0.187,0.86 -0.363,1.797 -0.555,2.278 -0.187,0.48 -0.386,0.5 -0.582,0.828 -0.191,0.328 -0.379,0.961 -0.453,1.531 -0.078,0.574 -0.047,1.082 -0.027,1.668 0.019,0.582 0.031,1.242 -0.106,1.703 -0.136,0.461 -0.421,0.727 -0.742,1.086 -0.32,0.359 -0.679,0.816 -0.75,1.34 -0.07,0.519 0.149,1.105 0.188,1.742 0.035,0.637 -0.106,1.328 -0.239,1.762 -0.132,0.437 -0.257,0.625 -0.414,1.234 -0.156,0.609 -0.347,1.649 -0.629,2.82 -0.281,1.176 -0.66,2.489 -0.937,3.461 -0.281,0.977 -0.465,1.606 -0.637,2.141 -0.172,0.531 -0.328,0.965 -0.554,1.34 -0.223,0.375 -0.512,0.687 -0.704,1.168 -0.187,0.48 -0.273,1.125 -0.39,1.996 -0.117,0.867 -0.266,1.961 -0.567,2.902 -0.3,0.946 -0.753,1.742 -1.07,2.016 -0.312,0.273 -0.484,0.023 -0.57,-0.102 -0.086,-0.129 -0.086,-0.129 -0.031,-0.547 z"
         style="fill:#000000;fill-opacity:1;fill-rule:nonzero;stroke:none"
         id="path3366" />
      <path
         d="m 553.023,1144.148 c 0.032,-0.718 0.098,-2.16 0.231,-3 0.137,-0.839 0.34,-1.078 0.562,-1.289 0.223,-0.211 0.465,-0.398 0.539,-0.629 0.075,-0.23 -0.019,-0.507 -0.117,-0.742 -0.097,-0.23 -0.203,-0.422 -0.215,-0.797 -0.015,-0.375 0.059,-0.937 0.188,-1.554 0.125,-0.621 0.305,-1.301 0.437,-1.965 0.133,-0.664 0.219,-1.309 0.293,-1.871 0.079,-0.563 0.141,-1.035 0.325,-1.758 0.183,-0.723 0.488,-1.691 0.652,-2.285 0.168,-0.594 0.195,-0.809 0.32,-1.078 0.121,-0.27 0.34,-0.59 0.43,-0.953 0.094,-0.36 0.059,-0.758 0.109,-1.125 0.051,-0.368 0.18,-0.704 0.274,-1.086 0.097,-0.383 0.156,-0.813 0.222,-1.309 0.067,-0.496 0.141,-1.059 0.247,-1.66 0.101,-0.602 0.23,-1.242 0.382,-1.727 0.153,-0.484 0.325,-0.816 0.473,-1.429 0.148,-0.618 0.27,-1.524 0.328,-2.266 0.055,-0.738 0.047,-1.312 0.106,-1.918 0.058,-0.605 0.191,-1.25 0.234,-1.746 0.047,-0.5 0.012,-0.859 -0.074,-1.199 -0.082,-0.34 -0.211,-0.664 -0.395,-0.91 -0.183,-0.243 -0.418,-0.407 -0.476,-0.614 -0.063,-0.207 0.058,-0.453 0.05,-0.718 -0.003,-0.262 -0.14,-0.547 -0.168,-0.989 -0.023,-0.441 0.055,-1.047 0.137,-1.652 0.082,-0.602 0.164,-1.207 0.262,-1.789 0.101,-0.578 0.219,-1.133 0.266,-1.652 0.05,-0.524 0.031,-1.008 0.085,-1.75 0.059,-0.739 0.192,-1.731 0.325,-2.723 0.133,-0.992 0.269,-1.985 0.429,-2.863 0.161,-0.879 0.352,-1.645 0.543,-2.434 0.192,-0.785 0.387,-1.594 0.578,-2.051 0.192,-0.461 0.379,-0.566 0.54,-0.941 0.156,-0.371 0.285,-1.016 0.418,-1.656 0.128,-0.641 0.257,-1.286 0.449,-1.743 0.191,-0.457 0.441,-0.73 0.574,-1.062 0.133,-0.336 0.141,-0.731 0.187,-1.383 0.043,-0.652 0.125,-1.562 0.219,-2.254 0.09,-0.691 0.199,-1.16 0.336,-2.019 0.137,-0.864 0.305,-2.114 0.508,-3.118 0.199,-1.007 0.43,-1.765 0.676,-2.304 0.246,-0.539 0.504,-0.856 0.683,-1.383 0.176,-0.524 0.278,-1.258 0.309,-1.824 0.035,-0.567 0.004,-0.965 0.086,-1.285 0.086,-0.317 0.293,-0.555 0.449,-0.754 0.156,-0.196 0.262,-0.36 0.371,-0.828 0.106,-0.469 0.211,-1.247 0.352,-1.973 0.14,-0.727 0.32,-1.406 0.449,-2.047 0.129,-0.645 0.211,-1.246 0.332,-1.824 0.121,-0.578 0.281,-1.125 0.496,-1.602 0.215,-0.476 0.484,-0.883 0.793,-1.082 0.309,-0.199 0.652,-0.195 0.973,-0.176 0.32,0.024 0.617,0.063 0.738,0.43 0.125,0.367 0.074,1.066 0.012,1.672 -0.059,0.609 -0.129,1.125 -0.203,1.664 -0.071,0.539 -0.149,1.102 -0.215,1.598 -0.067,0.496 -0.125,0.929 -0.196,1.468 -0.074,0.539 -0.16,1.188 -0.285,1.629 -0.125,0.446 -0.289,0.688 -0.476,0.969 -0.192,0.281 -0.407,0.606 -0.567,1.156 -0.16,0.547 -0.265,1.325 -0.316,2.2 -0.055,0.871 -0.055,1.835 -0.09,2.425 -0.039,0.586 -0.109,0.797 -0.199,1.16 -0.094,0.36 -0.207,0.872 -0.317,1.54 -0.113,0.664 -0.222,1.484 -0.398,1.988 -0.176,0.504 -0.418,0.691 -0.582,1.129 -0.168,0.441 -0.262,1.129 -0.316,1.695 -0.055,0.563 -0.071,1 0,1.297 0.066,0.293 0.218,0.445 0.234,0.82 0.012,0.375 -0.113,0.973 -0.285,1.457 -0.172,0.481 -0.395,0.848 -0.625,1.278 -0.231,0.429 -0.469,0.925 -0.621,1.41 -0.153,0.484 -0.215,0.961 -0.305,1.453 -0.086,0.492 -0.199,1.004 -0.129,1.453 0.066,0.449 0.316,0.836 0.52,1.258 0.203,0.422 0.355,0.883 0.414,1.242 0.058,0.359 0.027,0.617 0,0.969 -0.028,0.347 -0.043,0.785 -0.09,1.304 -0.051,0.52 -0.133,1.125 -0.199,1.645 -0.071,0.516 -0.129,0.949 -0.145,1.387 -0.019,0.437 0.012,0.879 -0.047,1.617 -0.058,0.738 -0.195,1.777 -0.347,2.57 -0.149,0.789 -0.309,1.34 -0.489,1.867 -0.179,0.524 -0.375,1.024 -0.504,1.493 -0.125,0.464 -0.183,0.894 -0.261,1.48 -0.078,0.582 -0.18,1.316 -0.348,1.93 -0.168,0.613 -0.41,1.109 -0.586,1.633 -0.18,0.527 -0.297,1.082 -0.492,1.562 -0.195,0.477 -0.465,0.879 -0.672,1.469 -0.211,0.586 -0.355,1.359 -0.555,1.879 -0.203,0.523 -0.453,0.797 -0.625,1.433 -0.172,0.637 -0.265,1.633 -0.328,2.438 -0.066,0.804 -0.105,1.414 -0.164,2 -0.058,0.586 -0.133,1.144 -0.25,1.527 -0.113,0.379 -0.269,0.578 -0.398,1.043 -0.129,0.465 -0.227,1.199 -0.356,1.844 -0.129,0.64 -0.289,1.191 -0.48,1.625 -0.188,0.437 -0.403,0.758 -0.617,1.058 -0.211,0.301 -0.422,0.582 -0.418,0.868 0.007,0.285 0.226,0.578 0.328,0.922 0.105,0.343 0.093,0.738 -0.059,1.093 -0.156,0.352 -0.457,0.66 -0.687,1.246 -0.231,0.586 -0.387,1.442 -0.512,2.371 -0.125,0.926 -0.219,1.926 -0.34,2.832 -0.121,0.907 -0.277,1.719 -0.566,2.426 -0.289,0.711 -0.715,1.313 -1.137,1.891 -0.426,0.582 -0.844,1.141 -1.055,1.418 -0.211,0.281 -0.207,0.277 -0.176,-0.442 z"
         style="fill:#000000;fill-opacity:1;fill-rule:nonzero;stroke:none"
         id="path3368" />
      <g
         id="g3370">
        <g
           id="g3372" />
        <g
           id="g3384">
          <g
             clip-path="url(#clipPath3376)"
             opacity="0.87"
             id="g3382">
            <g
               id="g3380">
              <path
                 d="m 584.133,1138.496 c -0.356,-0.195 -0.711,-0.394 -1.047,-0.551 -0.336,-0.16 -0.652,-0.277 -0.91,-0.496 -0.254,-0.215 -0.453,-0.531 -0.809,-0.789 -0.355,-0.258 -0.871,-0.453 -1.48,-0.691 -0.614,-0.239 -1.328,-0.516 -1.801,-0.731 -0.473,-0.218 -0.711,-0.379 -1.086,-0.554 -0.375,-0.18 -0.891,-0.375 -1.305,-0.536 -0.418,-0.156 -0.734,-0.277 -1.148,-0.433 -0.414,-0.16 -0.93,-0.356 -1.461,-0.594 -0.535,-0.238 -1.09,-0.512 -1.641,-0.808 -0.554,-0.297 -1.109,-0.614 -1.582,-0.833 -0.476,-0.218 -0.871,-0.335 -1.168,-0.394 -0.297,-0.059 -0.492,-0.059 -0.711,-0.16 -0.218,-0.098 -0.453,-0.293 -0.691,-0.492"
                 style="fill:#000000;fill-opacity:1;fill-rule:nonzero;stroke:none"
                 id="path3378" />
            </g>
          </g>
        </g>
      </g>
      <g
         id="g3386">
        <g
           id="g3388" />
        <g
           id="g3400">
          <g
             clip-path="url(#clipPath3392)"
             opacity="0.87"
             id="g3398">
            <g
               id="g3396">
              <path
                 d="m 568.832,1131.32 c -2.25,-0.886 -2.25,-0.886 -2.25,-0.886 0,0 0,0 0.137,0 0.14,0 0.414,0 0.73,0.117 0.317,0.121 0.676,0.355 1.012,0.476 0.336,0.118 0.652,0.118 0.945,0.137 0.297,0.02 0.574,0.059 0.852,0.238 0.277,0.176 0.555,0.493 0.828,0.809 -1.5,-0.594 0,0 -2.25,-0.891 z"
                 style="fill:#000000;fill-opacity:1;fill-rule:nonzero;stroke:none"
                 id="path3394" />
            </g>
          </g>
        </g>
      </g>
      <path
         d="m 580.758,1114.074 c 0.301,0.172 0.902,0.516 1.367,0.754 0.461,0.238 0.789,0.371 1.148,0.574 0.364,0.203 0.758,0.477 1.219,0.735 0.461,0.261 0.988,0.508 1.321,0.773 0.328,0.262 0.464,0.547 0.699,0.707 0.238,0.164 0.578,0.211 0.926,0.344 0.347,0.137 0.707,0.359 1.093,0.676 0.391,0.316 0.809,0.726 1.188,1.105 0.383,0.383 0.722,0.735 0.91,1.113 0.184,0.375 0.215,0.778 0.105,0.958 -0.109,0.183 -0.363,0.148 -0.66,0.109 -0.297,-0.039 -0.636,-0.086 -0.922,-0.192 -0.289,-0.101 -0.527,-0.265 -0.777,-0.476 -0.254,-0.211 -0.52,-0.465 -0.867,-0.621 -0.344,-0.16 -0.77,-0.215 -1.25,-0.324 -0.481,-0.11 -1.02,-0.27 -1.457,-0.371 -0.442,-0.106 -0.781,-0.153 -1.024,-0.27 -0.242,-0.121 -0.386,-0.316 -0.601,-0.477 -0.215,-0.164 -0.5,-0.289 -0.59,-0.402 -0.086,-0.113 0.027,-0.215 0.019,-0.273 -0.003,-0.063 -0.125,-0.078 -0.292,-0.114 -0.168,-0.035 -0.383,-0.089 -0.504,-0.207 -0.121,-0.117 -0.149,-0.297 -0.27,-0.402 -0.121,-0.105 -0.34,-0.133 -0.57,-0.188 -0.227,-0.058 -0.461,-0.14 -0.633,-0.261 -0.168,-0.125 -0.27,-0.289 -0.418,-0.387 -0.148,-0.098 -0.344,-0.121 -0.465,-0.238 -0.121,-0.117 -0.168,-0.324 -0.285,-0.457 -0.117,-0.129 -0.309,-0.18 -0.48,-0.289 -0.172,-0.114 -0.321,-0.285 -0.543,-0.391 -0.223,-0.105 -0.512,-0.144 -0.793,-0.184 -0.282,-0.035 -0.547,-0.074 -0.747,-0.148 -0.203,-0.078 -0.335,-0.199 -0.519,-0.285 -0.188,-0.09 -0.426,-0.149 -0.617,-0.297 -0.192,-0.152 -0.332,-0.398 -0.512,-0.539 -0.18,-0.137 -0.398,-0.168 -0.652,-0.199 -0.258,-0.035 -0.547,-0.075 -0.848,-0.231 -0.305,-0.152 -0.613,-0.422 -0.937,-0.578 -0.329,-0.16 -0.668,-0.207 -1.004,-0.277 -0.34,-0.071 -0.672,-0.164 -0.965,-0.293 -0.293,-0.129 -0.543,-0.289 -0.809,-0.438 -0.265,-0.148 -0.543,-0.289 -0.781,-0.445 -0.238,-0.16 -0.438,-0.336 -0.695,-0.461 -0.258,-0.121 -0.571,-0.187 -0.871,-0.242 -0.305,-0.055 -0.594,-0.094 -0.954,-0.192 -0.359,-0.097 -0.785,-0.257 -1.117,-0.441 -0.336,-0.184 -0.578,-0.394 -0.836,-0.516 -0.254,-0.125 -0.523,-0.16 -1.535,-0.648 -1.012,-0.492 -2.769,-1.434 -3.812,-1.969 -1.043,-0.531 -1.371,-0.652 -1.672,-0.804 -0.305,-0.153 -0.574,-0.344 -0.797,-0.536 -0.223,-0.195 -0.395,-0.394 -0.574,-0.507 -0.184,-0.114 -0.379,-0.141 -0.532,-0.11 -0.156,0.028 -0.265,0.113 -0.355,0.039 -0.086,-0.074 -0.156,-0.308 -0.281,-0.476 -0.125,-0.172 -0.309,-0.27 -0.469,-0.367 -0.16,-0.098 -0.297,-0.192 -0.559,-0.29 -0.257,-0.101 -0.64,-0.203 -0.976,-0.273 -0.34,-0.07 -0.629,-0.109 -0.871,-0.266 -0.239,-0.16 -0.422,-0.437 -0.633,-0.629 -0.207,-0.195 -0.442,-0.3 -0.68,-0.371 -0.238,-0.07 -0.484,-0.101 -0.762,-0.152 -0.277,-0.051 -0.589,-0.117 -0.882,-0.258 -0.289,-0.14 -0.559,-0.351 -0.86,-0.508 -0.3,-0.152 -0.636,-0.25 -0.859,-0.429 -0.223,-0.184 -0.336,-0.449 -0.625,-0.68 -0.293,-0.227 -0.762,-0.418 -1.285,-0.664 -0.528,-0.25 -1.106,-0.555 -1.551,-0.727 -0.449,-0.175 -0.766,-0.218 -1.02,-0.351 -0.253,-0.137 -0.445,-0.363 -0.652,-0.582 -0.207,-0.215 -0.426,-0.422 -0.683,-0.547 -0.254,-0.121 -0.547,-0.16 -0.86,-0.215 -0.316,-0.058 -0.652,-0.129 -0.922,-0.238 -0.269,-0.113 -0.472,-0.266 -0.715,-0.399 -0.242,-0.136 -0.523,-0.25 -0.773,-0.347 -0.246,-0.094 -0.457,-0.176 -0.672,-0.254 -0.211,-0.078 -0.422,-0.156 -0.625,-0.211 -0.207,-0.051 -0.398,-0.078 -0.582,-0.192 -0.184,-0.113 -0.355,-0.312 -0.57,-0.457 -0.219,-0.14 -0.477,-0.226 -1.485,-0.753 -1.007,-0.528 -2.761,-1.497 -3.746,-2.008 -0.984,-0.512 -1.199,-0.567 -1.347,-0.66 -0.149,-0.094 -0.227,-0.235 -0.391,-0.317 -0.16,-0.086 -0.402,-0.121 -0.629,-0.187 -0.226,-0.071 -0.437,-0.172 -0.652,-0.301 -0.219,-0.133 -0.446,-0.289 -0.758,-0.469 -0.309,-0.183 -0.703,-0.387 -0.988,-0.562 -0.285,-0.18 -0.465,-0.328 -0.649,-0.442 -0.183,-0.113 -0.371,-0.191 -0.617,-0.375 -0.246,-0.183 -0.555,-0.476 -0.855,-0.644 -0.301,-0.168 -0.59,-0.207 -0.868,-0.356 -0.277,-0.152 -0.539,-0.414 -0.754,-0.558 -0.218,-0.141 -0.386,-0.164 -0.511,-0.168 -0.125,0 -0.199,0.01 -0.242,-0.059 -0.039,-0.07 -0.043,-0.223 -0.153,-0.312 -0.113,-0.09 -0.332,-0.122 -0.531,-0.211 -0.195,-0.09 -0.375,-0.239 -0.609,-0.332 -0.235,-0.098 -0.528,-0.137 -0.762,-0.243 -0.231,-0.109 -0.406,-0.281 -0.617,-0.386 -0.207,-0.106 -0.45,-0.137 -0.688,-0.219 -0.238,-0.082 -0.469,-0.215 -0.711,-0.336 -0.242,-0.121 -0.5,-0.234 -0.769,-0.355 -0.27,-0.125 -0.547,-0.266 -0.688,-0.422 -0.14,-0.157 -0.14,-0.336 -0.312,-0.446 -0.168,-0.113 -0.508,-0.16 -0.801,-0.199 -0.293,-0.039 -0.535,-0.07 -0.754,-0.101 -0.219,-0.028 -0.414,-0.055 -0.559,-0.086 -0.144,-0.032 -0.238,-0.071 -0.429,-0.121 -0.192,-0.051 -0.481,-0.118 -0.66,-0.254 -0.18,-0.137 -0.25,-0.348 -0.371,-0.465 -0.122,-0.117 -0.29,-0.141 -1.243,-0.723 -0.949,-0.582 -2.675,-1.726 -3.613,-2.305 -0.941,-0.582 -1.086,-0.601 -1.16,-0.687 -0.074,-0.086 -0.078,-0.238 -0.18,-0.328 -0.097,-0.09 -0.293,-0.113 -0.531,-0.274 -0.238,-0.156 -0.523,-0.449 -0.801,-0.687 -0.277,-0.238 -0.547,-0.43 -0.855,-0.621 -0.309,-0.192 -0.653,-0.391 -0.903,-0.488 -0.246,-0.098 -0.394,-0.094 -0.636,-0.239 -0.239,-0.144 -0.571,-0.441 -0.86,-0.683 -0.293,-0.243 -0.539,-0.426 -0.855,-0.559 -0.317,-0.129 -0.703,-0.207 -1.031,-0.34 -0.329,-0.133 -0.602,-0.32 -0.856,-0.457 -0.254,-0.133 -0.492,-0.219 -0.75,-0.328 -0.258,-0.109 -0.535,-0.246 -1.547,-0.914 -1.015,-0.668 -2.762,-1.863 -3.726,-2.523 -0.961,-0.661 -1.145,-0.786 -1.289,-0.891 -0.149,-0.109 -0.258,-0.199 -0.332,-0.301 -0.075,-0.098 -0.11,-0.203 -0.262,-0.273 -0.153,-0.071 -0.418,-0.11 -0.742,-0.176 -0.328,-0.07 -0.711,-0.172 -1.004,-0.274 -0.297,-0.105 -0.508,-0.207 -0.719,-0.386 -0.211,-0.18 -0.422,-0.438 -0.707,-0.551 -0.281,-0.113 -0.633,-0.086 -1.004,-0.176 -0.371,-0.086 -0.766,-0.289 -1.109,-0.488 -0.344,-0.199 -0.641,-0.391 -0.938,-0.492 -0.297,-0.106 -0.594,-0.117 -0.91,-0.25 -0.316,-0.129 -0.652,-0.379 -0.918,-0.528 -0.266,-0.148 -0.457,-0.199 -0.648,-0.238 -0.196,-0.039 -0.391,-0.066 -0.559,-0.187 -0.168,-0.125 -0.312,-0.348 -0.566,-0.571 -0.254,-0.222 -0.621,-0.449 -0.934,-0.605 -0.316,-0.156 -0.574,-0.242 -0.699,-0.422 -0.125,-0.18 -0.113,-0.457 -0.098,-0.672 0.016,-0.211 0.035,-0.359 0.172,-0.43 0.133,-0.07 0.379,-0.062 0.609,-0.031 0.231,0.031 0.45,0.086 0.676,0.129 0.231,0.043 0.473,0.078 0.68,0.129 0.203,0.055 0.367,0.125 0.539,0.312 0.172,0.192 0.355,0.493 0.543,0.657 0.187,0.164 0.383,0.191 0.687,0.23 0.305,0.043 0.719,0.098 1.079,0.184 0.359,0.086 0.667,0.203 0.964,0.293 0.297,0.09 0.586,0.156 0.77,0.242 0.187,0.09 0.273,0.203 0.461,0.367 0.187,0.164 0.48,0.379 0.75,0.516 0.265,0.136 0.504,0.195 0.742,0.351 0.238,0.16 0.477,0.418 0.668,0.571 0.191,0.152 0.332,0.195 0.523,0.246 0.192,0.05 0.434,0.109 0.68,0.207 0.246,0.097 0.5,0.23 0.805,0.375 0.301,0.14 0.652,0.289 0.992,0.347 0.34,0.059 0.668,0.024 1.727,0.422 1.062,0.395 2.859,1.219 3.761,1.707 0.899,0.489 0.903,0.641 1.051,0.735 0.148,0.093 0.441,0.132 0.602,0.23 0.16,0.098 0.187,0.254 0.347,0.352 0.16,0.097 0.453,0.136 0.625,0.25 0.168,0.109 0.219,0.293 0.371,0.453 0.153,0.16 0.407,0.293 0.657,0.453 0.254,0.16 0.5,0.348 0.695,0.449 0.199,0.102 0.344,0.121 0.527,0.145 0.184,0.027 0.403,0.054 0.582,0.195 0.18,0.137 0.321,0.383 0.485,0.52 0.168,0.136 0.363,0.16 0.55,0.238 0.192,0.074 0.372,0.199 0.59,0.332 0.215,0.129 0.473,0.265 0.711,0.422 0.239,0.16 0.461,0.34 0.766,0.558 0.305,0.219 0.691,0.473 1.043,0.621 0.351,0.149 0.668,0.192 1.562,0.629 0.899,0.434 2.371,1.266 3.231,1.774 0.863,0.508 1.109,0.691 1.371,0.863 0.262,0.176 0.535,0.34 0.703,0.488 0.164,0.149 0.223,0.282 0.434,0.375 0.211,0.09 0.574,0.141 0.859,0.317 0.285,0.179 0.492,0.484 0.766,0.683 0.269,0.2 0.601,0.297 0.847,0.407 0.246,0.109 0.403,0.23 0.59,0.304 0.188,0.074 0.406,0.106 0.664,0.141 0.254,0.035 0.547,0.074 0.778,0.219 0.226,0.144 0.39,0.394 0.648,0.605 0.254,0.211 0.605,0.383 0.91,0.5 0.305,0.117 0.57,0.18 0.809,0.262 0.234,0.082 0.445,0.183 0.726,0.387 0.282,0.203 0.641,0.503 1,0.679 0.36,0.172 0.727,0.223 1.067,0.434 0.343,0.211 0.668,0.582 0.937,0.781 0.27,0.199 0.488,0.231 0.805,0.285 0.312,0.055 0.723,0.137 1.015,0.266 0.293,0.129 0.469,0.301 0.668,0.457 0.204,0.152 0.434,0.285 0.614,0.422 0.179,0.136 0.308,0.281 0.492,0.394 0.184,0.114 0.418,0.196 0.648,0.34 0.227,0.145 0.45,0.352 0.645,0.465 0.191,0.113 0.363,0.137 0.57,0.164 0.207,0.031 0.449,0.063 0.676,0.145 0.223,0.082 0.43,0.207 1.348,0.738 0.922,0.527 2.554,1.453 3.476,1.894 0.918,0.438 1.121,0.391 1.328,0.446 0.203,0.05 0.407,0.207 0.614,0.32 0.207,0.117 0.418,0.195 0.695,0.336 0.281,0.137 0.625,0.336 1.004,0.551 0.383,0.215 0.797,0.449 1.207,0.691 0.414,0.246 0.824,0.504 1.211,0.684 0.383,0.176 0.742,0.277 1.07,0.433 0.324,0.157 0.617,0.375 0.899,0.5 0.277,0.125 0.546,0.16 0.824,0.301 0.281,0.141 0.57,0.379 0.855,0.57 0.281,0.188 0.563,0.329 0.934,0.516 0.371,0.188 0.832,0.43 1.32,0.684 0.485,0.254 0.992,0.527 1.356,0.675 0.367,0.149 0.586,0.18 0.796,0.247 0.215,0.066 0.426,0.171 0.676,0.242 0.25,0.07 0.543,0.109 0.699,0.222 0.161,0.11 0.184,0.289 0.368,0.403 0.183,0.113 0.523,0.156 0.8,0.218 0.278,0.063 0.489,0.145 0.661,0.344 0.171,0.199 0.3,0.52 0.543,0.742 0.246,0.223 0.597,0.344 0.875,0.422 0.273,0.074 0.468,0.098 0.683,0.153 0.215,0.054 0.453,0.136 0.625,0.238 0.172,0.098 0.281,0.215 0.469,0.391 0.187,0.175 0.453,0.414 0.726,0.578 0.274,0.164 0.563,0.25 0.844,0.277 0.281,0.023 0.559,-0.016 0.707,-0.02 0.149,0 0.172,0.024 1.196,0.43 1.023,0.402 3.046,1.18 4.179,1.621 1.129,0.446 1.36,0.551 1.625,0.711 0.262,0.164 0.555,0.379 0.824,0.504 0.266,0.125 0.512,0.156 0.719,0.262 0.211,0.105 0.383,0.277 0.559,0.465 0.172,0.187 0.344,0.39 0.547,0.543 0.203,0.152 0.433,0.257 0.683,0.332 0.254,0.07 0.52,0.105 0.797,0.156 0.278,0.051 0.567,0.113 0.914,0.301 0.348,0.187 0.75,0.492 1.106,0.718 0.355,0.223 0.656,0.364 0.922,0.426 0.261,0.059 0.488,0.039 0.769,0.168 0.281,0.125 0.617,0.399 0.945,0.617 0.329,0.223 0.653,0.391 0.875,0.496 0.219,0.106 0.34,0.149 0.61,0.247 0.273,0.101 0.699,0.257 0.945,0.519 0.25,0.262 0.324,0.625 0.535,0.832 0.207,0.203 0.547,0.25 0.793,0.371 0.242,0.121 0.391,0.317 0.656,0.555 0.262,0.238 0.649,0.516 1.04,0.668 0.39,0.148 0.789,0.168 0.988,0.18 0.199,0.011 0.199,0.01 0.5,0.179 z"
         style="fill:#000000;fill-opacity:1;fill-rule:nonzero;stroke:none"
         id="path3402" />
      <path
         d="m 608.121,1132.332 c 0.027,-0.195 0.078,-0.582 0.016,-0.898 -0.067,-0.317 -0.25,-0.563 -0.301,-0.809 -0.055,-0.25 0.023,-0.504 0.184,-0.723 0.156,-0.222 0.398,-0.41 0.539,-0.652 0.14,-0.246 0.183,-0.547 0.109,-0.953 -0.078,-0.406 -0.266,-0.914 -0.309,-1.402 -0.043,-0.493 0.063,-0.961 0.157,-1.477 0.089,-0.512 0.164,-1.074 0.246,-1.68 0.082,-0.601 0.172,-1.25 0.238,-1.769 0.07,-0.516 0.125,-0.906 0.156,-1.317 0.035,-0.414 0.051,-0.851 0.102,-1.394 0.055,-0.543 0.14,-1.188 0.215,-1.75 0.078,-0.563 0.14,-1.035 0.156,-1.473 0.016,-0.437 -0.016,-0.836 0.012,-1.363 0.027,-0.524 0.113,-1.168 0.207,-1.707 0.093,-0.535 0.195,-0.961 0.367,-1.422 0.168,-0.461 0.406,-0.957 0.605,-1.941 0.2,-0.981 0.352,-2.457 0.41,-3.348 0.055,-0.895 0.012,-1.207 0.024,-1.625 0.016,-0.414 0.082,-0.934 0.168,-1.559 0.086,-0.625 0.183,-1.359 0.18,-1.82 0,-0.461 -0.106,-0.652 -0.122,-1.004 -0.019,-0.355 0.051,-0.875 0.137,-1.5 0.086,-0.625 0.184,-1.359 0.289,-1.98 0.106,-0.625 0.219,-1.137 0.266,-1.504 0.051,-0.367 0.039,-0.586 0.058,-0.914 0.024,-0.328 0.083,-0.758 0.157,-1.297 0.07,-0.539 0.16,-1.188 0.23,-1.727 0.074,-0.539 0.133,-0.972 0.176,-1.297 0.043,-0.324 0.074,-0.539 0.039,-0.761 -0.035,-0.227 -0.133,-0.457 -0.156,-0.77 -0.024,-0.308 0.031,-0.699 -0.039,-0.992 -0.067,-0.297 -0.254,-0.496 -0.332,-0.902 -0.075,-0.407 -0.035,-1.016 -0.086,-1.442 -0.047,-0.422 -0.188,-0.66 -0.184,-1.035 0.008,-0.371 0.164,-0.879 0.262,-1.281 0.098,-0.406 0.137,-0.707 0.234,-1.266 0.098,-0.558 0.25,-1.371 0.371,-2.101 0.118,-0.735 0.207,-1.379 0.328,-1.957 0.122,-0.579 0.274,-1.082 0.399,-1.684 0.125,-0.598 0.215,-1.289 0.305,-1.934 0.086,-0.648 0.168,-1.254 0.261,-1.636 0.094,-0.383 0.203,-0.543 0.379,-0.871 0.172,-0.329 0.41,-0.825 0.555,-1.243 0.141,-0.422 0.187,-0.765 0.25,-1.218 0.062,-0.454 0.137,-1.016 0.25,-1.375 0.113,-0.356 0.262,-0.512 0.418,-0.692 0.152,-0.176 0.308,-0.375 0.406,-0.625 0.098,-0.25 0.141,-0.551 0.277,-0.773 0.137,-0.223 0.375,-0.367 0.536,-0.61 0.16,-0.242 0.25,-0.582 0.32,-0.945 0.07,-0.363 0.125,-0.754 0.238,-1.109 0.114,-0.36 0.285,-0.688 0.586,-0.825 0.297,-0.136 0.723,-0.078 1.02,0.118 0.297,0.191 0.468,0.523 0.504,0.902 0.031,0.379 -0.067,0.805 -0.145,1.211 -0.074,0.406 -0.129,0.797 -0.121,1.215 0.008,0.418 0.078,0.867 0.187,1.187 0.106,0.325 0.254,0.52 0.407,0.825 0.152,0.308 0.312,0.722 0.457,1.074 0.148,0.347 0.281,0.629 0.359,1.015 0.078,0.383 0.098,0.868 -0.035,2.016 -0.133,1.145 -0.418,2.953 -0.637,3.934 -0.218,0.98 -0.371,1.136 -0.551,1.375 -0.183,0.238 -0.402,0.562 -0.468,0.906 -0.067,0.344 0.011,0.703 0.027,1.058 0.02,0.352 -0.027,0.7 -0.109,1.149 -0.082,0.449 -0.203,1.008 -0.325,1.605 -0.125,0.598 -0.253,1.239 -0.355,1.821 -0.098,0.578 -0.168,1.097 -0.137,1.496 0.035,0.402 0.168,0.683 0.207,1.015 0.043,0.336 -0.007,0.727 -0.105,1.11 -0.094,0.383 -0.231,0.758 -0.336,1.207 -0.102,0.445 -0.172,0.965 -0.145,1.406 0.024,0.445 0.149,0.813 0.192,1.148 0.039,0.332 0,0.637 0.039,0.973 0.043,0.332 0.164,0.703 0.211,0.992 0.047,0.293 0.019,0.508 -0.024,0.965 -0.039,0.457 -0.089,1.152 -0.191,1.598 -0.106,0.449 -0.262,0.648 -0.359,0.898 -0.098,0.25 -0.141,0.551 -0.075,0.867 0.067,0.321 0.239,0.649 0.305,0.946 0.066,0.293 0.031,0.551 -0.078,0.89 -0.109,0.336 -0.293,0.75 -0.422,1.063 -0.129,0.312 -0.199,0.519 -0.18,0.855 0.02,0.332 0.129,0.785 0.094,1.219 -0.039,0.434 -0.223,0.848 -0.41,1.285 -0.191,0.438 -0.379,0.895 -0.52,1.446 -0.14,0.554 -0.226,1.199 -0.312,1.828 -0.082,0.625 -0.164,1.23 -0.301,1.757 -0.137,0.532 -0.328,0.989 -0.512,1.383 -0.179,0.395 -0.355,0.723 -0.445,1.239 -0.09,0.511 -0.098,1.214 -0.113,1.785 -0.008,0.57 -0.028,1.008 -0.063,1.441 -0.039,0.434 -0.097,0.867 -0.156,1.32 -0.062,0.454 -0.125,0.926 -0.328,1.293 -0.199,0.372 -0.535,0.633 -0.738,1 -0.2,0.372 -0.266,0.844 -0.301,1.278 -0.035,0.437 -0.047,0.828 -0.043,1.269 0.008,0.442 0.027,0.926 -0.102,1.395 -0.125,0.465 -0.402,0.91 -0.66,1.226 -0.258,0.317 -0.5,0.504 -0.664,0.922 -0.164,0.418 -0.25,1.067 -0.398,1.375 -0.153,0.309 -0.364,0.282 -0.563,0.801 -0.199,0.523 -0.387,1.598 -0.613,2.469 -0.227,0.871 -0.488,1.539 -0.875,2.164 -0.387,0.629 -0.899,1.223 -1.152,1.515 -0.258,0.297 -0.254,0.293 -0.227,0.102 z"
         style="fill:#000000;fill-opacity:1;fill-rule:nonzero;stroke:none"
         id="path3404" />
      <path
         d="m 623.273,1150.953 c 0,0 0,0 -0.136,0.137 -0.141,0.137 -0.418,0.414 -0.555,0.652 -0.137,0.238 -0.137,0.438 -0.019,0.613 0.117,0.18 0.355,0.336 0.593,0.317 0.235,-0.02 0.473,-0.219 0.614,-0.496 0.136,-0.274 0.175,-0.629 0.078,-0.848 -0.098,-0.219 -0.336,-0.297 -0.457,-0.336 -0.118,-0.039 -0.118,-0.039 -0.118,-0.039 z"
         style="fill:#000000;fill-opacity:1;fill-rule:nonzero;stroke:none"
         id="path3406" />
      <path
         d="m 632.344,1139.508 c -0.156,-0.129 -0.465,-0.391 -0.528,-0.883 -0.062,-0.492 0.122,-1.215 0.27,-1.852 0.152,-0.64 0.269,-1.195 0.359,-1.71 0.094,-0.516 0.157,-0.989 0.258,-1.415 0.102,-0.425 0.238,-0.804 0.324,-1.144 0.09,-0.34 0.133,-0.641 0.059,-0.891 -0.074,-0.254 -0.262,-0.453 -0.375,-0.734 -0.113,-0.277 -0.152,-0.633 -0.121,-1.027 0.031,-0.391 0.129,-0.817 0.121,-1.211 -0.012,-0.399 -0.137,-0.766 -0.117,-1.555 0.023,-0.789 0.183,-1.996 0.406,-2.691 0.223,-0.696 0.508,-0.879 0.676,-1.165 0.168,-0.285 0.219,-0.671 0.324,-1.121 0.102,-0.445 0.258,-0.953 0.367,-1.441 0.11,-0.492 0.172,-0.965 0.285,-1.48 0.114,-0.512 0.274,-1.059 0.313,-1.516 0.039,-0.457 -0.039,-0.82 0.156,-2.418 0.192,-1.602 0.66,-4.438 0.949,-6.09 0.289,-1.652 0.395,-2.125 0.489,-2.66 0.093,-0.535 0.175,-1.141 0.273,-1.875 0.098,-0.734 0.215,-1.598 0.359,-2.5 0.145,-0.902 0.313,-1.848 0.493,-2.703 0.179,-0.852 0.371,-1.617 0.609,-2.75 0.238,-1.133 0.527,-2.633 0.711,-3.66 0.18,-1.032 0.258,-1.594 0.394,-2.145 0.141,-0.555 0.344,-1.098 0.485,-1.648 0.137,-0.555 0.215,-1.114 0.32,-1.758 0.11,-0.645 0.25,-1.375 0.379,-2.149 0.125,-0.773 0.234,-1.593 0.383,-2.386 0.152,-0.793 0.34,-1.559 0.469,-2.18 0.125,-0.617 0.191,-1.094 0.285,-1.477 0.094,-0.382 0.219,-0.671 0.316,-1.078 0.098,-0.402 0.168,-0.922 0.235,-1.418 0.07,-0.496 0.132,-0.968 0.257,-1.414 0.125,-0.445 0.309,-0.859 0.504,-1.187 0.196,-0.324 0.399,-0.559 0.465,-1.035 0.063,-0.473 -0.012,-1.188 0.059,-2.036 0.07,-0.847 0.289,-1.828 0.461,-2.792 0.175,-0.965 0.304,-1.915 0.425,-2.668 0.122,-0.75 0.243,-1.309 0.414,-1.637 0.176,-0.328 0.403,-0.43 0.711,-0.477 0.309,-0.043 0.696,-0.035 0.911,0.125 0.218,0.164 0.261,0.477 0.261,0.805 -0.004,0.328 -0.05,0.676 -0.16,1.012 -0.109,0.336 -0.285,0.664 -0.453,1.433 -0.168,0.77 -0.332,1.977 -0.477,3.231 -0.148,1.254 -0.281,2.554 -0.32,3.472 -0.035,0.918 0.024,1.454 -0.043,2.102 -0.066,0.652 -0.258,1.418 -0.426,2.187 -0.168,0.766 -0.316,1.54 -0.543,2.582 -0.226,1.047 -0.535,2.368 -0.726,3.465 -0.192,1.094 -0.262,1.961 -0.344,2.719 -0.082,0.758 -0.168,1.406 -0.379,2.168 -0.211,0.766 -0.547,1.641 -0.613,2.621 -0.066,0.981 0.133,2.063 0.195,2.883 0.063,0.82 -0.015,1.383 -0.164,2.176 -0.152,0.793 -0.375,1.816 -0.555,2.515 -0.183,0.703 -0.32,1.078 -0.425,1.879 -0.11,0.797 -0.188,2.016 -0.274,2.973 -0.086,0.953 -0.179,1.644 -0.351,2.301 -0.176,0.66 -0.434,1.285 -0.508,2.48 -0.074,1.199 0.031,2.973 -0.094,4.539 -0.125,1.563 -0.48,2.922 -0.699,3.883 -0.215,0.957 -0.289,1.52 -0.316,2.195 -0.024,0.68 -0.004,1.473 -0.075,2.145 -0.066,0.672 -0.23,1.223 -0.355,1.84 -0.125,0.621 -0.219,1.312 -0.27,1.855 -0.054,0.543 -0.062,0.938 -0.168,1.231 -0.105,0.293 -0.304,0.484 -0.336,0.722 -0.031,0.239 0.106,0.52 0.141,0.875 0.039,0.36 -0.02,0.789 -0.145,1.078 -0.125,0.293 -0.316,0.442 -0.515,0.633 -0.199,0.196 -0.402,0.43 -0.61,0.844 -0.207,0.41 -0.417,0.996 -0.527,1.512 -0.113,0.511 -0.129,0.949 -0.058,1.242 0.066,0.297 0.218,0.449 0.121,0.851 -0.098,0.407 -0.446,1.063 -0.789,1.676 -0.34,0.61 -0.676,1.18 -1.172,1.817 -0.496,0.636 -1.153,1.34 -1.477,1.691 -0.328,0.352 -0.328,0.352 -0.484,0.219 z"
         style="fill:#000000;fill-opacity:1;fill-rule:nonzero;stroke:none"
         id="path3408" />
      <path
         d="m 269.852,1125.809 c 0.418,-0.364 1.253,-1.082 1.812,-1.352 0.559,-0.266 0.84,-0.074 1.117,-0.074 0.282,0 0.555,-0.18 0.903,-0.317 0.343,-0.136 0.761,-0.226 1.011,-0.222 0.246,0 0.332,0.09 0.493,0.058 0.164,-0.035 0.41,-0.191 0.585,-0.207 0.176,-0.015 0.29,0.106 0.399,0.196 0.113,0.093 0.226,0.16 0.461,0.172 0.234,0.015 0.59,-0.024 0.812,-0.079 0.223,-0.058 0.317,-0.14 0.461,-0.101 0.145,0.039 0.344,0.195 0.532,0.25 0.187,0.051 0.367,0.01 0.519,0.043 0.152,0.035 0.281,0.156 0.445,0.129 0.161,-0.024 0.356,-0.196 0.508,-0.215 0.153,-0.024 0.266,0.098 0.414,0.262 0.153,0.168 0.34,0.375 0.485,0.531 0.14,0.156 0.238,0.262 0.254,0.387 0.019,0.121 -0.04,0.265 -0.036,0.464 0.004,0.196 0.075,0.45 0.129,0.7 0.051,0.246 0.09,0.496 0.086,0.668 0,0.171 -0.039,0.269 -0.058,0.457 -0.02,0.187 -0.02,0.464 -0.215,0.808 -0.199,0.34 -0.59,0.742 -0.84,1.129 -0.25,0.387 -0.356,0.758 -0.508,1.063 -0.152,0.3 -0.351,0.535 -0.691,0.875 -0.34,0.339 -0.821,0.789 -1.2,1.222 -0.378,0.438 -0.656,0.864 -0.894,1.211 -0.238,0.348 -0.438,0.613 -0.629,0.856 -0.191,0.246 -0.375,0.461 -0.48,0.711 -0.106,0.25 -0.141,0.523 -0.227,0.726 -0.086,0.199 -0.23,0.32 -0.254,0.485 -0.027,0.164 0.063,0.363 0.059,0.535 0,0.172 -0.094,0.316 -0.102,0.496 -0.012,0.179 0.059,0.398 0.141,0.453 0.082,0.055 0.172,-0.055 0.383,-0.051 0.211,0 0.539,0.125 0.773,0.262 0.238,0.137 0.379,0.293 0.531,0.305 0.153,0.01 0.309,-0.129 0.489,-0.145 0.175,-0.012 0.375,0.098 0.628,0.016 0.258,-0.086 0.579,-0.36 0.852,-0.457 0.277,-0.098 0.508,-0.02 0.797,-0.067 0.289,-0.047 0.637,-0.222 0.898,-0.25 0.262,-0.023 0.438,0.102 0.75,-0.058 0.313,-0.164 0.762,-0.61 1.09,-0.789 0.332,-0.176 0.543,-0.079 0.856,-0.207 0.308,-0.129 0.718,-0.485 1.07,-0.633 0.355,-0.153 0.656,-0.102 1.027,-0.25 0.367,-0.149 0.809,-0.5 1.114,-0.637 0.3,-0.137 0.464,-0.063 0.789,-0.125 0.324,-0.063 0.808,-0.262 1.097,-0.309 0.285,-0.046 0.383,0.055 0.578,0.012 0.196,-0.047 0.493,-0.242 0.762,-0.332 0.266,-0.09 0.5,-0.078 0.695,-0.09 0.192,-0.015 0.348,-0.051 0.59,-0.027 0.242,0.019 0.575,0.109 0.887,0.242 0.313,0.133 0.605,0.316 0.844,0.512 0.242,0.195 0.433,0.406 0.625,0.426 0.191,0.019 0.386,-0.153 0.621,-0.137 0.234,0.015 0.512,0.215 0.75,0.426 0.242,0.211 0.445,0.437 0.609,0.703 0.16,0.261 0.278,0.566 0.313,0.832 0.035,0.265 -0.012,0.492 -0.055,0.668 -0.047,0.179 -0.086,0.308 -0.113,0.488 -0.028,0.176 -0.039,0.406 0.023,0.598 0.067,0.195 0.207,0.351 0.219,0.5 0.008,0.148 -0.121,0.289 -0.113,0.484 0.004,0.199 0.14,0.453 0.113,0.664 -0.031,0.211 -0.227,0.379 -0.379,0.594 -0.156,0.211 -0.273,0.469 -0.344,0.683 -0.074,0.219 -0.101,0.399 -0.035,0.575 0.067,0.175 0.223,0.351 0.149,0.508 -0.079,0.16 -0.387,0.304 -0.59,0.417 -0.199,0.11 -0.289,0.188 -0.278,0.321 0.008,0.129 0.114,0.316 0.079,0.504 -0.036,0.187 -0.215,0.371 -0.329,0.578 -0.113,0.207 -0.16,0.433 -0.347,0.75 -0.184,0.316 -0.512,0.726 -0.789,1.027 -0.282,0.305 -0.512,0.504 -0.633,0.703 -0.121,0.196 -0.129,0.395 -0.219,0.594 -0.086,0.199 -0.25,0.402 -0.465,0.617 -0.215,0.219 -0.48,0.449 -0.718,0.656 -0.239,0.208 -0.454,0.391 -0.614,0.559 -0.16,0.172 -0.273,0.332 -0.308,0.535 -0.039,0.203 0,0.449 -0.082,0.66 -0.079,0.207 -0.274,0.375 -0.559,0.637 -0.281,0.262 -0.656,0.617 -0.945,0.926 -0.285,0.312 -0.489,0.578 -0.778,0.816 -0.293,0.235 -0.675,0.442 -1.035,0.692 -0.359,0.25 -0.695,0.539 -0.961,0.769 -0.265,0.231 -0.461,0.399 -0.551,0.617 -0.085,0.215 -0.07,0.481 -0.132,0.704 -0.063,0.226 -0.211,0.414 -0.407,0.601 -0.195,0.184 -0.441,0.367 -0.679,0.555 -0.239,0.191 -0.469,0.39 -0.672,0.601 -0.207,0.207 -0.391,0.426 -0.617,0.578 -0.227,0.149 -0.5,0.231 -0.629,0.438 -0.133,0.207 -0.117,0.535 -0.184,0.793 -0.062,0.258 -0.211,0.445 -0.371,0.617 -0.16,0.172 -0.34,0.324 -0.516,0.477 -0.175,0.156 -0.355,0.308 -0.378,0.578 -0.024,0.269 0.105,0.656 0.074,0.914 -0.031,0.262 -0.227,0.398 -0.262,0.57 -0.035,0.168 0.09,0.375 0.102,0.578 0.011,0.207 -0.082,0.414 -0.282,0.618 -0.195,0.199 -0.492,0.394 -0.89,0.617 -0.403,0.222 -0.903,0.468 -1.278,0.636 -0.371,0.164 -0.609,0.25 -0.843,0.325 -0.231,0.078 -0.453,0.144 -0.664,0.191 -0.215,0.043 -0.418,0.063 -0.637,0.172 -0.215,0.109 -0.445,0.309 -0.688,0.426 -0.242,0.117 -0.496,0.152 -0.757,0.144 -0.262,-0.01 -0.528,-0.058 -0.836,-0.273 -0.305,-0.215 -0.653,-0.598 -0.754,-0.883 -0.102,-0.289 0.043,-0.477 -0.012,-0.707 -0.055,-0.234 -0.305,-0.512 -0.426,-0.766 -0.121,-0.254 -0.109,-0.484 -0.16,-0.718 -0.055,-0.231 -0.176,-0.469 -0.164,-0.664 0.012,-0.2 0.156,-0.356 0.266,-0.528 0.109,-0.176 0.187,-0.367 0.308,-0.531 0.117,-0.164 0.278,-0.305 0.34,-0.481 0.059,-0.175 0.023,-0.39 0.078,-0.609 0.055,-0.219 0.199,-0.441 0.391,-0.652 0.187,-0.207 0.418,-0.407 0.523,-0.657 0.11,-0.246 0.094,-0.542 0.653,-1.23 0.562,-0.691 1.703,-1.77 2.23,-2.41 0.523,-0.641 0.434,-0.844 1.063,-1.512 0.628,-0.668 1.972,-1.801 2.625,-2.473 0.656,-0.675 0.617,-0.89 0.847,-1.246 0.231,-0.355 0.731,-0.851 0.879,-1.195 0.145,-0.344 -0.062,-0.535 -0.027,-0.723 0.035,-0.187 0.316,-0.367 0.5,-0.601 0.179,-0.235 0.265,-0.527 0.254,-0.781 -0.012,-0.254 -0.118,-0.477 -0.164,-0.684 -0.047,-0.207 -0.036,-0.406 -0.063,-0.629 -0.031,-0.223 -0.101,-0.473 -0.219,-0.57 -0.121,-0.098 -0.293,-0.043 -0.523,-0.125 -0.231,-0.078 -0.524,-0.293 -0.758,-0.324 -0.23,-0.032 -0.41,0.121 -0.547,0.179 -0.136,0.059 -0.238,0.02 -0.379,0.016 -0.144,0 -0.332,0.039 -0.488,0.109 -0.156,0.074 -0.277,0.18 -0.453,0.114 -0.172,-0.067 -0.395,-0.313 -0.609,-0.375 -0.215,-0.063 -0.422,0.054 -0.688,0.148 -0.266,0.09 -0.59,0.152 -0.844,0.277 -0.25,0.121 -0.429,0.309 -0.66,0.368 -0.23,0.062 -0.512,0 -0.867,0.144 -0.352,0.152 -0.777,0.52 -1.117,0.809 -0.336,0.293 -0.582,0.507 -1.309,1.121 -0.726,0.609 -1.93,1.621 -2.621,2.078 -0.691,0.461 -0.871,0.367 -1.066,0.394 -0.196,0.032 -0.407,0.18 -0.668,0.379 -0.266,0.196 -0.582,0.442 -0.84,0.645 -0.254,0.207 -0.449,0.375 -0.629,0.531 -0.176,0.152 -0.336,0.289 -0.539,0.449 -0.203,0.16 -0.449,0.344 -0.59,0.309 -0.141,-0.031 -0.176,-0.281 -0.301,-0.313 -0.125,-0.035 -0.336,0.153 -0.539,0.137 -0.199,-0.01 -0.39,-0.219 -0.554,-0.262 -0.168,-0.043 -0.309,0.079 -0.508,0 -0.196,-0.078 -0.45,-0.355 -0.707,-0.41 -0.258,-0.058 -0.52,0.106 -0.922,-0.109 -0.399,-0.211 -0.938,-0.805 -1.192,-1.203 -0.254,-0.403 -0.226,-0.617 -0.261,-0.879 -0.035,-0.266 -0.133,-0.586 -0.321,-0.875 -0.183,-0.289 -0.453,-0.555 -0.582,-0.848 -0.125,-0.297 -0.105,-0.625 0.039,-0.953 0.145,-0.328 0.418,-0.656 0.516,-0.894 0.098,-0.243 0.023,-0.391 0.145,-0.606 0.121,-0.215 0.441,-0.492 0.539,-0.73 0.097,-0.243 -0.024,-0.446 0.039,-0.672 0.062,-0.227 0.312,-0.477 0.437,-0.723 0.121,-0.246 0.121,-0.492 0.246,-0.773 0.125,-0.278 0.379,-0.59 0.469,-0.84 0.09,-0.25 0.02,-0.434 0.148,-0.672 0.133,-0.238 0.469,-0.531 0.551,-0.789 0.082,-0.258 -0.09,-0.481 0,-0.715 0.09,-0.23 0.442,-0.473 0.539,-0.711 0.098,-0.242 -0.058,-0.48 0.016,-0.73 0.074,-0.25 0.375,-0.512 0.484,-0.778 0.106,-0.261 0.02,-0.531 0.102,-0.773 0.082,-0.242 0.332,-0.457 0.43,-0.727 0.101,-0.273 0.05,-0.605 0.152,-0.879 0.101,-0.273 0.348,-0.488 0.453,-0.703 0.105,-0.215 0.066,-0.429 0.227,-0.691 0.156,-0.262 0.511,-0.571 0.632,-0.781 0.121,-0.215 0.012,-0.336 0.137,-0.618 0.125,-0.281 0.488,-0.718 0.652,-1.062 0.161,-0.34 0.125,-0.59 0.293,-0.891 0.172,-0.304 0.547,-0.656 0.723,-0.984 0.18,-0.324 0.164,-0.621 0.395,-0.977 0.23,-0.355 0.711,-0.769 0.855,-1.062 0.145,-0.289 -0.043,-0.461 -0.137,-0.547 -0.093,-0.086 -0.093,-0.086 0.325,-0.445 z"
         style="fill:#800000;fill-opacity:1;fill-rule:nonzero;stroke:none"
         id="path3410" />
      <path
         d="m 335.539,1115.188 c -0.43,-0.125 -1.293,-0.375 -2.117,-0.165 -0.82,0.211 -1.602,0.887 -2.258,1.145 -0.656,0.254 -1.187,0.09 -1.656,0.062 -0.473,-0.031 -0.883,0.079 -1.445,0.504 -0.567,0.426 -1.286,1.172 -2.059,1.715 -0.774,0.547 -1.602,0.891 -2.262,1.211 -0.66,0.32 -1.152,0.621 -1.738,0.879 -0.59,0.262 -1.277,0.484 -1.934,0.738 -0.656,0.258 -1.281,0.547 -1.929,0.739 -0.653,0.187 -1.332,0.277 -2.004,0.172 -0.668,-0.106 -1.324,-0.411 -1.844,-0.77 -0.52,-0.363 -0.898,-0.781 -0.672,-1.23 0.231,-0.446 1.067,-0.922 1.602,-1.446 0.539,-0.527 0.773,-1.105 1.14,-1.609 0.367,-0.504 0.864,-0.934 1.203,-1.539 0.336,-0.606 0.516,-1.383 0.832,-2.156 0.317,-0.77 0.766,-1.532 1.379,-2.25 0.618,-0.719 1.399,-1.395 1.86,-2.356 0.457,-0.957 0.597,-2.199 0.73,-3.312 0.133,-1.11 0.254,-2.09 0.313,-3.075 0.054,-0.984 0.047,-1.972 0.027,-2.828 -0.016,-0.859 -0.043,-1.586 -0.184,-2.086 -0.136,-0.504 -0.39,-0.781 -0.761,-0.773 -0.371,0.012 -0.864,0.308 -1.504,0.305 -0.641,-0.01 -1.43,-0.321 -2.422,-0.149 -0.988,0.168 -2.172,0.82 -4.047,2.316 -1.875,1.497 -4.441,3.84 -6.039,5.223 -1.598,1.383 -2.23,1.805 -2.937,2.356 -0.708,0.55 -1.489,1.226 -1.614,1.644 -0.125,0.422 0.406,0.586 0.52,0.988 0.109,0.403 -0.199,1.039 -0.879,1.754 -0.684,0.715 -1.742,1.508 -2.664,2.305 -0.926,0.801 -1.715,1.609 -1.988,2.281 -0.278,0.676 -0.04,1.219 -0.293,2.121 -0.254,0.907 -1.004,2.18 -1.368,3.243 -0.367,1.062 -0.347,1.921 -0.16,2.753 0.188,0.836 0.547,1.649 1.074,2.438 0.528,0.789 1.227,1.559 1.825,2.285 0.597,0.727 1.097,1.418 1.777,1.953 0.676,0.535 1.531,0.918 2.367,1.067 0.836,0.152 1.649,0.07 2.403,-0.149 0.757,-0.215 1.453,-0.57 2.238,-0.75 0.785,-0.183 1.664,-0.195 2.484,-0.34 0.817,-0.148 1.574,-0.429 2.438,-0.742 0.859,-0.308 1.824,-0.644 2.777,-0.781 0.953,-0.141 1.895,-0.082 2.758,-0.391 0.859,-0.308 1.64,-0.984 2.742,-1.379 1.105,-0.39 2.527,-0.5 3.664,-0.925 1.141,-0.422 1.992,-1.161 4.121,-3.004 2.133,-1.844 5.543,-4.793 6.91,-6.289 1.371,-1.496 0.7,-1.539 0.364,-1.559 -0.34,-0.019 -0.34,-0.019 -0.77,-0.144 z"
         style="fill:#800000;fill-opacity:1;fill-rule:nonzero;stroke:none"
         id="path3412" />
      <path
         d="m 308.707,1115.344 c 0.496,-0.43 1.492,-1.289 2.137,-1.977 0.648,-0.683 0.945,-1.191 1.281,-1.73 0.336,-0.539 0.707,-1.11 1.176,-1.641 0.469,-0.527 1.039,-1.019 1.164,-1.441 0.125,-0.418 -0.192,-0.766 -1.531,0.203 -1.34,0.969 -3.7,3.262 -5.129,4.687 -1.434,1.426 -1.938,1.989 -2.207,2.532 -0.266,0.543 -0.297,1.066 -0.16,1.636 0.136,0.567 0.437,1.18 0.871,1.239 0.437,0.058 1.004,-0.434 1.343,-1.039 0.34,-0.602 0.446,-1.321 0.5,-1.68 0.055,-0.36 0.055,-0.36 0.555,-0.789 z"
         style="fill:#c87137;fill-opacity:1;fill-rule:nonzero;stroke:none"
         id="path3414" />
      <path
         d="m 326.066,1090.195 c 0.387,0.371 1.157,1.121 1.793,1.625 0.641,0.504 1.153,0.77 1.508,0.813 0.356,0.047 0.555,-0.129 0.84,-0.11 0.289,0.016 0.656,0.227 1.051,0.415 0.398,0.187 0.816,0.351 1.289,0.476 0.469,0.121 0.988,0.199 1.457,0.371 0.469,0.168 0.883,0.426 1.312,0.453 0.43,0.024 0.872,-0.179 1.231,-0.226 0.363,-0.051 0.641,0.062 1.172,0.398 0.527,0.336 1.308,0.895 1.969,1.074 0.656,0.18 1.195,-0.019 1.675,-0.082 0.481,-0.062 0.907,0.01 1.371,0.223 0.465,0.219 0.969,0.574 1.465,0.676 0.496,0.097 0.985,-0.059 1.43,0.086 0.445,0.144 0.848,0.59 1.262,0.894 0.41,0.305 0.832,0.469 1.132,0.653 0.297,0.179 0.477,0.379 0.836,0.375 0.36,0 0.899,-0.2 1.422,-0.215 0.528,-0.012 1.043,0.16 1.653,0.336 0.613,0.179 1.316,0.359 1.824,0.273 0.508,-0.082 0.812,-0.437 1.203,-0.555 0.387,-0.113 0.859,0.01 1.344,-0.148 0.488,-0.156 0.992,-0.59 1.394,-0.941 0.403,-0.348 0.703,-0.606 0.981,-0.848 0.273,-0.238 0.527,-0.457 0.652,-0.961 0.125,-0.504 0.121,-1.297 0.156,-1.898 0.035,-0.606 0.106,-1.02 0.004,-1.282 -0.105,-0.265 -0.383,-0.375 -0.34,-0.722 0.043,-0.348 0.411,-0.93 0.547,-1.621 0.133,-0.688 0.039,-1.489 0.285,-2.055 0.25,-0.567 0.84,-0.902 1.153,-1.352 0.312,-0.445 0.343,-1.004 0.406,-1.629 0.059,-0.625 0.148,-1.32 0.359,-2.074 0.211,-0.758 0.543,-1.574 0.661,-2.383 0.121,-0.808 0.023,-1.605 0.066,-2.347 0.043,-0.746 0.226,-1.434 0.414,-2.215 0.187,-0.777 0.383,-1.652 0.473,-2.391 0.089,-0.742 0.078,-1.347 0.203,-1.851 0.125,-0.508 0.386,-0.91 0.39,-1.399 0.008,-0.488 -0.246,-1.062 -0.023,-1.656 0.227,-0.594 0.93,-1.199 1.473,-1.891 0.543,-0.687 0.921,-1.457 1.117,-2.375 0.195,-0.921 0.211,-1.992 0.301,-2.687 0.086,-0.692 0.246,-1.008 0.273,-1.426 0.023,-0.418 -0.09,-0.937 -0.137,-1.383 -0.043,-0.445 -0.023,-0.816 -0.09,-1.289 -0.07,-0.469 -0.226,-1.039 -0.222,-1.527 0.004,-0.488 0.172,-0.899 0.172,-1.293 -0.004,-0.399 -0.172,-0.781 -0.434,-1.168 -0.266,-0.391 -0.625,-0.785 -0.957,-0.852 -0.328,-0.07 -0.629,0.192 -0.906,0.434 -0.278,0.238 -0.528,0.453 -0.883,0.41 -0.355,-0.043 -0.816,-0.351 -1.883,0.305 -1.062,0.656 -2.734,2.277 -3.562,3.344 -0.825,1.07 -0.809,1.582 -1.024,2.035 -0.219,0.453 -0.672,0.843 -0.894,1.39 -0.223,0.543 -0.215,1.243 -0.387,1.746 -0.172,0.5 -0.523,0.805 -0.719,1.282 -0.195,0.48 -0.23,1.129 -0.359,1.679 -0.125,0.551 -0.344,1.004 -0.516,1.508 -0.172,0.5 -0.301,1.051 -0.375,1.516 -0.074,0.461 -0.097,0.832 -0.062,1.461 0.035,0.633 0.129,1.523 -0.004,2.168 -0.133,0.644 -0.492,1.043 -0.707,1.492 -0.219,0.453 -0.297,0.961 -0.367,1.379 -0.075,0.414 -0.141,0.734 -0.231,1.476 -0.09,0.739 -0.203,1.899 -0.402,2.817 -0.196,0.922 -0.473,1.601 -0.535,2.226 -0.059,0.625 0.101,1.196 -0.075,1.7 -0.171,0.5 -0.671,0.933 -1.125,1.328 -0.453,0.39 -0.855,0.738 -1.128,1.328 -0.274,0.59 -0.418,1.418 -0.68,1.867 -0.266,0.449 -0.653,0.52 -1.063,0.609 -0.414,0.094 -0.847,0.207 -1.422,0.215 -0.574,0.012 -1.285,-0.078 -1.753,-0.246 -0.469,-0.168 -0.692,-0.414 -0.957,-0.406 -0.262,0 -0.563,0.266 -0.958,0.078 -0.398,-0.187 -0.886,-0.82 -1.46,-1.16 -0.579,-0.34 -1.247,-0.379 -1.704,-0.293 -0.461,0.09 -0.711,0.305 -0.996,0.242 -0.281,-0.062 -0.597,-0.406 -0.992,-0.598 -0.394,-0.187 -0.871,-0.214 -1.605,-0.679 -0.739,-0.465 -1.739,-1.364 -2.383,-1.778 -0.645,-0.414 -0.934,-0.339 -1.387,-0.39 -0.449,-0.051 -1.062,-0.227 -1.879,0.258 -0.816,0.484 -1.836,1.636 -2.551,2.382 -0.71,0.75 -1.113,1.098 -1.3,1.481 -0.192,0.387 -0.168,0.808 -0.243,1.269 -0.074,0.461 -0.246,0.961 -0.332,1.211 -0.085,0.254 -0.089,0.25 0.297,0.625 z"
         style="fill:#800000;fill-opacity:1;fill-rule:nonzero;stroke:none"
         id="path3416" />
      <path
         d="m 409.73,1049.73 c -0.218,0.188 -0.656,0.567 -1.074,0.665 -0.422,0.093 -0.828,-0.09 -1.226,-0.016 -0.399,0.078 -0.793,0.418 -1.2,0.656 -0.406,0.238 -0.832,0.375 -1.304,0.668 -0.473,0.293 -1,0.75 -1.399,0.824 -0.398,0.078 -0.672,-0.222 -1.047,-0.164 -0.378,0.059 -0.859,0.473 -1.285,0.649 -0.422,0.176 -0.793,0.113 -1.285,0.347 -0.492,0.231 -1.101,0.762 -1.562,1.161 -0.457,0.394 -0.766,0.66 -1.082,0.781 -0.317,0.125 -0.649,0.101 -1.008,0.183 -0.356,0.079 -0.742,0.258 -1.18,0.332 -0.441,0.075 -0.937,0.043 -1.359,0.137 -0.418,0.098 -0.766,0.317 -1.153,0.539 -0.386,0.219 -0.812,0.434 -1.269,0.446 -0.457,0.011 -0.945,-0.176 -1.371,-0.344 -0.426,-0.172 -0.793,-0.313 -1.149,-0.578 -0.359,-0.266 -0.711,-0.653 -0.789,-1.082 -0.078,-0.43 0.114,-0.907 0.309,-1.418 0.195,-0.516 0.394,-1.071 0.711,-1.539 0.32,-0.465 0.758,-0.844 0.992,-1.356 0.238,-0.512 0.273,-1.156 0.512,-1.668 0.238,-0.512 0.676,-0.89 0.933,-1.422 0.258,-0.531 0.34,-1.215 0.645,-1.781 0.301,-0.57 0.828,-1.023 1.355,-1.559 0.532,-0.535 1.063,-1.148 1.383,-1.656 0.32,-0.508 0.426,-0.906 0.559,-1.402 0.133,-0.5 0.293,-1.098 0.488,-1.653 0.199,-0.554 0.438,-1.066 0.426,-1.593 -0.012,-0.528 -0.27,-1.067 -0.34,-1.621 -0.074,-0.551 0.043,-1.11 0.258,-1.645 0.219,-0.531 0.539,-1.039 0.469,-1.59 -0.075,-0.551 -0.536,-1.144 -1.028,-1.64 -0.488,-0.496 -1.008,-0.895 -1.476,-0.985 -0.473,-0.09 -0.903,0.125 -1.375,0.422 -0.473,0.293 -0.993,0.668 -1.442,0.902 -0.453,0.239 -0.832,0.336 -1.293,0.43 -0.461,0.09 -1.008,0.18 -1.539,0.41 -0.531,0.231 -1.051,0.602 -2.594,1.785 -1.543,1.18 -4.105,3.168 -5.425,4.422 -1.317,1.258 -1.391,1.778 -1.688,2.266 -0.297,0.488 -0.82,0.941 -1.301,1.359 -0.484,0.414 -0.918,0.793 -1.148,1.184 -0.231,0.391 -0.254,0.797 -0.524,1.144 -0.269,0.348 -0.785,0.637 -1.089,1.208 -0.301,0.57 -0.391,1.414 -0.758,2 -0.363,0.582 -1.008,0.91 -1.559,1.503 -0.554,0.594 -1.019,1.454 -1.254,2.231 -0.23,0.777 -0.226,1.465 -0.324,2.047 -0.094,0.578 -0.289,1.054 -0.383,1.594 -0.093,0.542 -0.086,1.148 0.188,1.796 0.273,0.645 0.816,1.325 1.254,2.02 0.437,0.695 0.769,1.402 1.109,1.992 0.34,0.586 0.688,1.055 0.93,1.535 0.238,0.481 0.379,0.977 0.613,1.192 0.238,0.218 0.574,0.156 0.938,0.3 0.367,0.145 0.761,0.493 1.25,0.684 0.484,0.191 1.066,0.231 1.668,0.203 0.605,-0.019 1.23,-0.105 1.828,-0.01 0.593,0.098 1.16,0.375 1.574,0.403 0.414,0.023 0.676,-0.203 1.07,-0.2 0.395,0.01 0.922,0.243 1.36,0.208 0.437,-0.036 0.785,-0.336 1.187,-0.454 0.402,-0.117 0.856,-0.05 1.473,-0.011 0.621,0.035 1.41,0.043 1.769,-0.075 0.36,-0.121 0.289,-0.367 0.422,-0.441 0.129,-0.074 0.453,0.027 0.762,0.109 0.305,0.079 0.594,0.137 0.969,0.079 0.378,-0.059 0.843,-0.231 1.347,-0.321 0.504,-0.094 1.043,-0.101 1.68,-0.304 0.633,-0.204 1.363,-0.606 1.949,-0.688 0.586,-0.086 1.027,0.145 1.469,0.07 0.441,-0.078 0.879,-0.453 1.437,-0.785 0.559,-0.328 1.239,-0.613 1.789,-0.82 0.551,-0.211 0.977,-0.344 0.957,-0.406 -0.015,-0.063 -0.472,-0.051 -0.57,-0.2 -0.094,-0.148 0.172,-0.453 0.539,-0.652 0.364,-0.203 0.824,-0.297 2.039,-1.152 1.211,-0.856 3.172,-2.477 4.203,-3.446 1.032,-0.968 1.133,-1.289 1.403,-1.636 0.269,-0.348 0.707,-0.727 0.918,-1.137 0.211,-0.414 0.195,-0.859 0.34,-1.215 0.144,-0.355 0.453,-0.621 0.41,-1.008 -0.039,-0.386 -0.426,-0.894 -0.617,-1.152 -0.192,-0.254 -0.196,-0.25 -0.415,-0.063 z"
         style="fill:#800000;fill-opacity:1;fill-rule:nonzero;stroke:none"
         id="path3418" />
      <path
         d="m 380.809,1052.707 c 0.457,-0.355 1.371,-1.07 1.773,-1.57 0.402,-0.5 0.293,-0.793 0.461,-1.125 0.164,-0.336 0.602,-0.715 0.727,-1.09 0.125,-0.375 -0.063,-0.754 0.105,-1.086 0.164,-0.336 0.68,-0.629 1.031,-0.973 0.352,-0.34 0.539,-0.734 0.664,-1.109 0.125,-0.379 0.188,-0.738 0.375,-1.051 0.184,-0.312 0.489,-0.578 0.524,-0.84 0.035,-0.261 -0.199,-0.519 -0.406,-0.492 -0.211,0.031 -0.395,0.34 -0.747,0.727 -0.355,0.382 -0.878,0.836 -1.418,1.187 -0.539,0.352 -1.093,0.602 -1.531,0.977 -0.437,0.379 -0.758,0.886 -1.035,1.355 -0.277,0.469 -0.508,0.899 -0.656,1.297 -0.149,0.395 -0.211,0.758 -0.34,1.215 -0.129,0.457 -0.328,1.012 -0.414,1.43 -0.086,0.421 -0.063,0.707 0.027,0.933 0.09,0.231 0.246,0.403 0.324,0.488 0.079,0.086 0.079,0.086 0.536,-0.273 z"
         style="fill:#c87137;fill-opacity:1;fill-rule:nonzero;stroke:none"
         id="path3420" />
      <path
         d="m 413.656,1044.992 c -0.031,-0.164 -0.093,-0.492 -0.218,-0.887 -0.122,-0.39 -0.301,-0.847 -0.235,-1.289 0.067,-0.441 0.383,-0.867 0.34,-1.214 -0.043,-0.344 -0.441,-0.614 -0.648,-1.012 -0.204,-0.399 -0.215,-0.926 -0.071,-1.281 0.145,-0.356 0.446,-0.539 0.305,-0.954 -0.141,-0.41 -0.727,-1.054 -0.949,-1.515 -0.223,-0.457 -0.082,-0.735 -0.227,-1.106 -0.144,-0.375 -0.574,-0.847 -0.859,-1.328 -0.281,-0.484 -0.418,-0.98 -0.313,-1.379 0.106,-0.398 0.453,-0.699 0.356,-1.109 -0.102,-0.414 -0.653,-0.934 -0.914,-1.434 -0.262,-0.504 -0.235,-0.988 -0.129,-1.386 0.105,-0.399 0.289,-0.711 0.535,-1 0.246,-0.289 0.551,-0.555 0.473,-0.942 -0.082,-0.39 -0.551,-0.906 -0.735,-1.32 -0.183,-0.418 -0.082,-0.734 -0.187,-1.066 -0.106,-0.329 -0.418,-0.672 -0.567,-1.008 -0.144,-0.332 -0.125,-0.657 -0.429,-1.16 -0.301,-0.504 -0.926,-1.192 -1.289,-1.758 -0.36,-0.571 -0.461,-1.024 -0.762,-1.528 -0.305,-0.503 -0.813,-1.062 -1.11,-1.648 -0.296,-0.586 -0.386,-1.195 -0.519,-1.773 -0.133,-0.575 -0.309,-1.11 -0.004,-1.719 0.305,-0.613 1.094,-1.293 1.789,-1.512 0.699,-0.219 1.309,0.02 1.742,0.027 0.438,0 0.699,-0.222 1.02,-0.386 0.32,-0.16 0.699,-0.258 1.113,-0.235 0.414,0.028 0.863,0.176 1.274,0.243 0.41,0.066 0.785,0.046 1.148,0.234 0.363,0.183 0.715,0.57 1.008,0.891 0.293,0.32 0.527,0.578 0.59,0.949 0.058,0.367 -0.051,0.843 0.074,1.199 0.125,0.352 0.484,0.574 0.914,0.742 0.426,0.168 0.918,0.281 1.301,0.102 0.382,-0.18 0.66,-0.649 1.078,-1.09 0.422,-0.438 0.984,-0.848 1.594,-1.34 0.609,-0.488 1.265,-1.055 1.437,-1.508 0.172,-0.457 -0.141,-0.801 -0.16,-1.207 -0.016,-0.406 0.258,-0.875 0.73,-1.515 0.473,-0.637 1.145,-1.446 1.864,-2.032 0.718,-0.582 1.488,-0.941 2.047,-1.312 0.562,-0.367 0.914,-0.75 1.218,-0.977 0.305,-0.222 0.559,-0.289 0.762,-0.234 0.203,0.051 0.359,0.223 0.645,0.324 0.285,0.098 0.699,0.121 1.101,0.348 0.402,0.23 0.793,0.656 1.332,0.648 0.539,-0.01 1.231,-0.449 1.692,-0.543 0.464,-0.09 0.695,0.164 1.066,0.231 0.371,0.062 0.875,-0.071 1.316,-0.145 0.442,-0.074 0.817,-0.09 1.36,-0.137 0.543,-0.05 1.25,-0.125 1.82,-0.273 0.57,-0.148 0.996,-0.363 1.453,-0.375 0.457,-0.012 0.945,0.18 1.406,0.086 0.461,-0.094 0.899,-0.473 1.403,-0.563 0.504,-0.089 1.074,0.106 1.543,0.239 0.472,0.129 0.84,0.191 1.359,0.203 0.52,0.012 1.184,-0.028 1.649,-0.16 0.464,-0.137 0.726,-0.364 1.105,-0.418 0.375,-0.059 0.867,0.05 1.25,0.258 0.383,0.207 0.656,0.507 1.086,0.593 0.43,0.086 1.019,-0.039 1.625,-0.062 0.601,-0.024 1.219,0.054 1.809,0.273 0.589,0.219 1.148,0.578 1.48,0.985 0.328,0.402 0.426,0.855 0.277,1.25 -0.144,0.394 -0.539,0.738 -0.746,1.07 -0.207,0.328 -0.222,0.652 -0.504,1.16 -0.277,0.512 -0.816,1.207 -1.48,1.934 -0.664,0.73 -1.457,1.492 -2.195,2.054 -0.739,0.563 -1.422,0.922 -2,1.192 -0.575,0.269 -1.043,0.441 -1.454,0.722 -0.41,0.278 -0.765,0.661 -1.168,0.86 -0.406,0.195 -0.863,0.211 -1.23,0.066 -0.363,-0.144 -0.637,-0.445 -0.98,-0.609 -0.344,-0.16 -0.758,-0.188 -1.196,-0.153 -0.437,0.032 -0.898,0.125 -1.25,0.086 -0.351,-0.043 -0.59,-0.218 -0.82,-0.214 -0.227,0.01 -0.445,0.195 -0.734,0.179 -0.29,-0.019 -0.653,-0.242 -0.918,-0.281 -0.27,-0.035 -0.446,0.113 -0.672,0.121 -0.231,0 -0.512,-0.133 -0.864,-0.176 -0.347,-0.043 -0.765,0.016 -1.054,-0.043 -0.289,-0.058 -0.446,-0.23 -0.696,-0.164 -0.254,0.063 -0.605,0.367 -0.855,0.434 -0.254,0.062 -0.41,-0.106 -0.777,-0.211 -0.368,-0.106 -0.946,-0.141 -1.411,0 -0.464,0.133 -0.816,0.434 -1.16,0.656 -0.343,0.223 -0.683,0.364 -1.351,0.746 -0.664,0.383 -1.657,1.012 -2.328,1.477 -0.668,0.465 -1.02,0.769 -1.309,1.094 -0.289,0.328 -0.516,0.675 -0.66,0.992 -0.141,0.316 -0.199,0.598 -0.406,0.926 -0.204,0.332 -0.559,0.714 -0.793,1.148 -0.231,0.43 -0.344,0.91 -0.473,1.367 -0.129,0.457 -0.281,0.895 -0.238,1.242 0.043,0.348 0.277,0.606 0.277,0.989 -0.004,0.383 -0.242,0.894 -0.414,1.39 -0.176,0.496 -0.285,0.977 -0.266,1.383 0.016,0.406 0.164,0.738 0.078,1.117 -0.082,0.379 -0.398,0.805 -0.609,1.219 -0.211,0.41 -0.316,0.813 -0.465,1.246 -0.152,0.438 -0.344,0.91 -0.48,1.449 -0.137,0.539 -0.211,1.141 -0.262,1.645 -0.051,0.504 -0.074,0.906 -0.266,1.34 -0.187,0.433 -0.546,0.898 -0.781,1.328 -0.23,0.434 -0.34,0.832 -0.484,1.187 -0.145,0.356 -0.328,0.668 -0.555,1.02 -0.23,0.348 -0.5,0.738 -1.539,1.441 -1.035,0.707 -2.84,1.731 -3.742,2.243 -0.899,0.511 -0.899,0.511 -0.93,0.347 h -0.004 z"
         style="fill:#800000;fill-opacity:1;fill-rule:nonzero;stroke:none"
         id="path3422" />
      <path
         d="m 116.609,226.371 c -0.019,-0.969 -0.062,-2.902 -0.082,-4.473 -0.019,-1.57 -0.019,-2.781 0.121,-3.464 0.141,-0.688 0.426,-0.848 0.665,-1.289 0.242,-0.446 0.445,-1.168 0.605,-2.075 0.16,-0.906 0.281,-1.996 0.324,-3.004 0.039,-1.003 0,-1.933 -0.043,-3 -0.039,-1.066 -0.078,-2.277 -0.101,-3.183 -0.02,-0.906 -0.02,-1.508 -0.18,-1.953 -0.16,-0.442 -0.48,-0.723 -0.645,-1.188 -0.16,-0.465 -0.16,-1.109 -0.179,-1.773 -0.02,-0.664 -0.063,-1.348 -0.203,-1.973 -0.141,-0.625 -0.383,-1.187 -0.645,-1.613 -0.262,-0.422 -0.543,-0.703 -0.824,-1.047 -0.281,-0.34 -0.567,-0.746 -0.746,-1.348 -0.184,-0.605 -0.262,-1.41 -0.363,-2.074 -0.102,-0.668 -0.223,-1.191 -0.344,-1.672 -0.121,-0.484 -0.239,-0.929 -0.301,-1.957 -0.059,-1.027 -0.059,-2.637 -0.102,-3.887 -0.039,-1.25 -0.121,-2.136 -0.261,-2.636 -0.141,-0.504 -0.34,-0.625 -1.086,-0.668 -0.746,-0.039 -2.035,0 -3.043,0 -1.008,0 -1.731,-0.039 -2.156,-0.563 -0.422,-0.523 -0.543,-1.531 -0.582,-2.699 -0.043,-1.168 0,-2.496 0.058,-3.785 0.063,-1.289 0.141,-2.539 0.203,-3.988 0.059,-1.454 0.102,-3.106 0.199,-4.657 0.102,-1.55 0.262,-3 0.223,-4.691 -0.039,-1.691 -0.281,-3.625 -0.363,-5.481 -0.078,-1.851 0,-3.625 0.101,-5.015 0.102,-1.391 0.223,-2.395 0.442,-3.383 0.222,-0.988 0.547,-1.953 0.828,-2.781 0.281,-0.824 0.523,-1.512 0.746,-2.074 0.219,-0.563 0.422,-1.008 0.582,-1.411 0.16,-0.402 0.281,-0.765 0.484,-1.168 0.204,-0.402 0.485,-0.847 0.825,-1.23 0.343,-0.383 0.746,-0.703 1.05,-1.168 0.301,-0.461 0.5,-1.066 0.684,-1.609 0.18,-0.543 0.344,-1.028 0.645,-1.332 0.3,-0.301 0.746,-0.422 1.066,-1.289 0.324,-0.864 0.523,-2.477 0.805,-3.723 0.285,-1.25 0.644,-2.137 0.929,-3.024 0.282,-0.886 0.481,-1.773 0.602,-2.718 0.121,-0.946 0.164,-1.953 0.242,-2.879 0.082,-0.93 0.203,-1.774 0.262,-2.52 0.062,-0.746 0.062,-1.39 0.062,-2.093 0,-0.708 0,-1.473 0.121,-2.36 0.121,-0.887 0.364,-1.89 0.524,-2.656 0.16,-0.766 0.242,-1.289 0.441,-1.793 0.203,-0.504 0.524,-0.988 0.746,-1.512 0.223,-0.523 0.344,-1.09 0.606,-1.652 0.262,-0.563 0.664,-1.129 0.965,-1.59 0.304,-0.465 0.504,-0.828 0.707,-1.27 0.199,-0.445 0.402,-0.968 0.562,-1.531 0.16,-0.562 0.281,-1.168 0.403,-1.734 0.121,-0.563 0.242,-1.086 0.402,-1.629 0.164,-0.547 0.363,-1.109 0.625,-1.754 0.262,-0.644 0.586,-1.371 0.949,-1.894 0.359,-0.524 0.766,-0.844 1.188,-1.106 0.421,-0.262 0.867,-0.465 1.269,-0.867 0.402,-0.402 0.766,-1.008 1.207,-1.512 0.445,-0.504 0.969,-0.906 1.43,-1.226 0.465,-0.325 0.867,-0.567 1.289,-0.829 0.426,-0.261 0.867,-0.543 1.41,-0.746 0.547,-0.199 1.191,-0.32 1.996,-0.261 0.805,0.062 1.774,0.304 2.66,0.285 0.883,-0.024 1.692,-0.305 2.196,-0.645 0.5,-0.343 0.703,-0.746 0.882,-1.332 0.184,-0.582 0.344,-1.347 0.524,-2.054 0.183,-0.704 0.383,-1.348 0.504,-1.993 0.121,-0.644 0.164,-1.289 0.062,-1.773 -0.101,-0.484 -0.343,-0.805 -0.523,-1.633 -0.184,-0.824 -0.305,-2.152 -0.363,-3.441 -0.059,-1.289 -0.059,-2.539 0.039,-3.688 0.101,-1.148 0.304,-2.195 0.586,-2.961 0.281,-0.765 0.644,-1.25 0.964,-1.652 0.325,-0.402 0.606,-0.727 0.907,-1.066 0.304,-0.344 0.625,-0.708 1.05,-1.008 0.422,-0.305 0.946,-0.547 1.469,-0.785 0.524,-0.243 1.047,-0.485 1.633,-0.606 0.582,-0.121 1.227,-0.121 1.953,-0.101 0.727,0.019 1.531,0.062 2.277,0.14 0.747,0.082 1.43,0.203 2.075,0.281 0.644,0.082 1.25,0.121 1.832,0.286 0.586,0.16 1.148,0.441 1.55,0.785 0.403,0.343 0.645,0.746 1.071,0.988 0.422,0.238 1.027,0.32 1.449,0.523 0.422,0.2 0.664,0.524 0.805,1.028 0.14,0.504 0.179,1.187 0.222,1.812 0.039,0.625 0.078,1.188 0.121,1.992 0.04,0.809 0.079,1.856 0.118,2.84 0.043,0.989 0.082,1.914 0.101,2.66 0.02,0.747 0.02,1.309 -0.019,1.813 -0.039,0.504 -0.121,0.945 -0.262,1.25 -0.141,0.301 -0.344,0.461 -0.504,0.703 -0.16,0.242 -0.281,0.566 -0.383,0.906 -0.101,0.344 -0.179,0.707 -0.222,1.11 -0.039,0.402 -0.039,0.847 -0.039,1.25 0,0.402 0,0.765 -0.059,1.246 -0.063,0.484 -0.184,1.09 -0.285,1.594 -0.098,0.503 -0.18,0.906 -0.34,1.148 -0.16,0.238 -0.402,0.32 -0.586,0.523 -0.18,0.2 -0.301,0.524 -0.383,0.907 -0.078,0.382 -0.121,0.824 -0.301,1.168 -0.179,0.339 -0.504,0.582 -0.964,0.703 -0.465,0.121 -1.071,0.121 -1.575,0.16 -0.504,0.043 -0.906,0.121 -1.265,0.184 -0.364,0.058 -0.688,0.101 -0.969,0.222 -0.281,0.121 -0.523,0.32 -0.727,0.582 -0.199,0.262 -0.363,0.586 -0.461,1.028 -0.101,0.445 -0.144,1.007 -0.043,1.41 0.102,0.402 0.344,0.644 0.79,0.906 0.441,0.262 1.085,0.547 2.054,0.664 0.965,0.121 2.254,0.082 3.606,0.063 1.347,-0.02 2.758,-0.02 4.429,0.039 1.672,0.062 3.606,0.183 5.137,0.242 1.531,0.058 2.66,0.058 4.613,0.121 1.954,0.058 4.735,0.18 6.688,0.281 1.953,0.102 3.082,0.184 4.027,0.121 0.949,-0.058 1.711,-0.262 2.235,-0.523 0.527,-0.262 0.808,-0.586 1.109,-0.887 0.301,-0.301 0.625,-0.582 1.027,-0.887 0.403,-0.3 0.887,-0.625 1.328,-0.906 0.446,-0.281 0.848,-0.523 1.25,-0.766 0.403,-0.242 0.805,-0.484 1.27,-0.664 0.465,-0.179 0.988,-0.3 1.613,-0.484 0.621,-0.18 1.348,-0.422 1.992,-0.422 0.645,0 1.211,0.242 1.735,0.567 0.523,0.32 1.008,0.722 1.57,1.105 0.563,0.383 1.207,0.746 1.774,1.027 0.562,0.282 1.046,0.485 1.73,0.828 0.688,0.34 1.57,0.825 2.215,1.168 0.644,0.34 1.051,0.543 1.473,0.723 0.421,0.184 0.867,0.344 1.609,0.707 0.746,0.363 1.793,0.926 2.379,1.41 0.582,0.485 0.703,0.887 0.562,1.289 -0.14,0.403 -0.543,0.805 -0.906,1.168 -0.363,0.364 -0.684,0.684 -0.965,0.907 -0.285,0.218 -0.527,0.339 -0.949,0.199 -0.422,-0.141 -1.027,-0.543 -1.59,-0.906 -0.562,-0.36 -1.09,-0.684 -1.512,-0.926 -0.421,-0.242 -0.746,-0.403 -1.085,-0.563 -0.344,-0.16 -0.708,-0.324 -1.168,-0.445 -0.465,-0.121 -1.028,-0.199 -1.512,-0.32 -0.485,-0.121 -0.887,-0.282 -1.25,-0.364 -0.363,-0.082 -0.684,-0.082 -0.945,0.141 -0.262,0.223 -0.465,0.664 -0.727,1.109 -0.262,0.442 -0.586,0.887 -1.027,1.266 -0.442,0.383 -1.008,0.707 -1.411,0.93 -0.402,0.218 -0.644,0.34 -1.027,0.504 -0.383,0.16 -0.906,0.359 -1.328,0.683 -0.426,0.32 -0.746,0.766 -1.148,0.988 -0.403,0.219 -0.887,0.219 -1.329,0.02 -0.445,-0.203 -0.847,-0.605 -1.211,-0.805 -0.363,-0.203 -0.683,-0.203 -1.066,-0.164 -0.383,0.043 -0.828,0.121 -1.309,0.16 -0.484,0.043 -1.007,0.043 -1.511,0.043 -0.504,0 -0.989,0 -1.449,0 -0.465,0 -0.907,0 -1.29,0.102 -0.382,0.098 -0.707,0.301 -0.828,1.125 -0.121,0.828 -0.039,2.277 -0.121,3.164 -0.082,0.887 -0.32,1.207 -1.269,1.391 -0.946,0.179 -2.598,0.218 -4.551,0.218 -1.953,0 -4.211,-0.039 -5.883,-0.039 -1.672,0 -2.758,0.039 -4.047,0.082 -1.289,0.039 -2.781,0.078 -3.949,0.102 -1.168,0.019 -2.016,0.019 -2.637,0.058 -0.625,0.04 -1.027,0.122 -1.332,0.344 -0.3,0.219 -0.504,0.582 -0.605,1.028 -0.098,0.441 -0.098,0.964 -0.078,1.992 0.019,1.027 0.058,2.558 -0.043,3.605 -0.098,1.047 -0.34,1.614 -0.383,2.239 -0.039,0.625 0.121,1.308 0.203,1.972 0.082,0.664 0.082,1.309 0.082,1.895 0,0.582 0,1.109 0.02,2.297 0.019,1.187 0.058,3.039 0.078,4.57 0.023,1.531 0.023,2.742 0.023,4.012 0,1.265 0,2.597 0.02,3.945 0.019,1.351 0.058,2.719 0.078,3.746 0.019,1.027 0.019,1.715 -0.02,2.297 -0.039,0.586 -0.121,1.066 -0.078,1.734 0.039,0.664 0.199,1.508 0.32,2.578 0.122,1.067 0.204,2.356 0.243,3.364 0.039,1.007 0.039,1.73 0.019,2.437 -0.019,0.703 -0.058,1.391 -0.14,2.156 -0.082,0.766 -0.204,1.61 -0.485,2.172 -0.281,0.567 -0.722,0.848 -0.945,1.352 -0.223,0.504 -0.223,1.23 -0.121,2.277 0.101,1.047 0.301,2.418 0.484,3.746 0.18,1.328 0.34,2.617 0.422,3.707 0.082,1.086 0.082,1.973 0.082,2.918 0,0.95 0,1.957 -0.023,2.84 -0.02,0.887 -0.059,1.652 -0.161,3.164 -0.101,1.512 -0.261,3.766 -0.32,5.438 -0.062,1.672 -0.019,2.761 0,3.668 0.02,0.906 0.02,1.632 -0.121,2.215 -0.141,0.585 -0.426,1.027 -1.129,1.128 -0.703,0.102 -1.832,-0.14 -2.758,-0.304 -0.925,-0.16 -1.652,-0.239 -2.398,-0.301 -0.746,-0.059 -1.512,-0.102 -2.356,-0.203 -0.847,-0.098 -1.773,-0.262 -2.738,-0.383 -0.969,-0.117 -1.976,-0.199 -2.722,-0.18 -0.747,0.02 -1.227,0.141 -1.653,0.344 -0.422,0.199 -0.785,0.481 -0.965,1.047 -0.183,0.562 -0.183,1.41 -0.183,2.519 0,1.106 0,2.477 0.043,3.907 0.039,1.429 0.121,2.922 0.16,4.371 0.039,1.449 0.039,2.859 0.039,4.23 0,1.371 0,2.7 0.019,3.809 0.024,1.105 0.063,1.992 -0.078,2.719 -0.14,0.722 -0.465,1.289 -0.808,1.832 -0.34,0.543 -0.703,1.066 -0.946,1.652 -0.242,0.582 -0.363,1.227 -0.421,2.215 -0.063,0.988 -0.063,2.316 -0.063,3.406 0,1.086 0,1.934 0,2.777 0,0.848 0,1.692 -0.262,2.137 -0.261,0.442 -0.785,0.481 -3,0.442 -2.215,-0.039 -6.121,-0.161 -9.125,-0.301 -3,-0.141 -5.093,-0.305 -6.144,-0.383 -1.047,-0.082 -1.047,-0.082 -1.067,-1.047 z"
         style="fill:#242424;fill-opacity:1;fill-rule:nonzero;stroke:none"
         id="path3424" />
      <path
         d="m 220.383,226.691 c 0.144,-0.218 0.433,-0.648 0.664,-1.07 0.23,-0.418 0.402,-0.82 0.547,-1.195 0.144,-0.375 0.261,-0.723 0.332,-1.172 0.074,-0.445 0.101,-0.992 0.117,-1.543 0.016,-0.547 0.016,-1.098 0,-1.602 -0.016,-0.504 -0.043,-0.968 -0.074,-1.429 -0.028,-0.461 -0.055,-0.922 -0.098,-1.313 -0.043,-0.39 -0.101,-0.707 -0.203,-1.054 -0.102,-0.344 -0.246,-0.723 -0.434,-1.067 -0.187,-0.348 -0.418,-0.664 -0.535,-0.969 -0.113,-0.3 -0.113,-0.589 -0.215,-0.91 -0.101,-0.316 -0.304,-0.664 -0.504,-0.996 -0.203,-0.332 -0.406,-0.648 -0.605,-0.894 -0.203,-0.247 -0.406,-0.418 -0.523,-0.622 -0.114,-0.199 -0.145,-0.429 -0.418,-0.675 -0.274,-0.246 -0.793,-0.508 -1.082,-0.797 -0.289,-0.285 -0.348,-0.606 -0.375,-1.008 -0.028,-0.406 -0.028,-0.895 -0.102,-1.344 -0.07,-0.445 -0.215,-0.851 -0.289,-1.054 -0.07,-0.204 -0.766,-0.895 -0.938,-0.954 -0.171,-0.054 -0.519,-0.171 -0.734,-0.472 -0.219,-0.305 -0.305,-0.797 -0.391,-1.242 -0.085,-0.45 -0.175,-0.852 -0.316,-1.125 -0.144,-0.278 -0.348,-0.422 -0.652,-0.594 -0.301,-0.172 -0.707,-0.375 -0.91,-0.637 -0.2,-0.258 -0.2,-0.574 -0.2,-0.922 0,-0.347 0,-0.722 -0.074,-1.156 -0.07,-0.43 -0.215,-0.922 -0.359,-1.312 -0.145,-0.391 -0.289,-0.68 -0.504,-0.895 -0.219,-0.215 -0.508,-0.359 -0.707,-0.621 -0.203,-0.258 -0.321,-0.633 -0.379,-1.067 -0.055,-0.433 -0.055,-0.925 -0.102,-1.589 -0.043,-0.664 -0.129,-1.5 -0.172,-2.121 -0.043,-0.622 -0.043,-1.024 -0.043,-1.43 0,-0.402 0,-0.809 -0.015,-1.195 -0.012,-0.391 -0.043,-0.766 -0.07,-1.141 -0.032,-0.375 -0.059,-0.754 -0.075,-1.129 -0.011,-0.375 -0.011,-0.75 -0.011,-1.066 0,-0.317 0,-0.579 0.054,-1.024 0.059,-0.449 0.176,-1.086 0.321,-1.519 0.144,-0.43 0.316,-0.664 0.433,-0.965 0.113,-0.305 0.172,-0.68 0.258,-1.012 0.086,-0.332 0.203,-0.621 0.262,-0.965 0.054,-0.347 0.054,-0.75 0.054,-1.125 0,-0.379 0,-0.722 0.032,-0.996 0.027,-0.277 0.086,-0.476 0.129,-0.765 0.043,-0.29 0.074,-0.665 0.074,-1.028 0,-0.359 -0.031,-0.707 -0.059,-1.082 -0.031,-0.375 -0.058,-0.777 -0.16,-1.242 -0.102,-0.461 -0.273,-0.981 -0.332,-1.398 -0.059,-0.418 0,-0.735 0.031,-1.055 0.028,-0.317 0.028,-0.633 0.028,-1.067 0,-0.433 0,-0.98 -0.071,-1.312 -0.074,-0.332 -0.218,-0.449 -0.347,-0.594 -0.129,-0.144 -0.246,-0.316 -0.305,-0.59 -0.059,-0.277 -0.059,-0.652 -0.059,-1.027 0,-0.375 0,-0.75 -0.027,-1.141 -0.027,-0.386 -0.086,-0.793 -0.23,-1.152 -0.145,-0.363 -0.375,-0.68 -0.606,-0.969 -0.23,-0.289 -0.461,-0.547 -0.594,-0.851 -0.129,-0.305 -0.156,-0.649 -0.203,-0.996 -0.043,-0.348 -0.097,-0.692 -0.129,-1.125 -0.027,-0.434 -0.027,-0.954 0,-1.602 0.032,-0.652 0.086,-1.43 0.289,-2.008 0.203,-0.578 0.547,-0.953 0.852,-1.285 0.305,-0.332 0.562,-0.621 0.793,-0.969 0.23,-0.343 0.433,-0.75 0.652,-1.023 0.215,-0.274 0.446,-0.418 0.664,-0.75 0.215,-0.332 0.418,-0.852 0.633,-1.211 0.219,-0.363 0.449,-0.566 0.637,-0.766 0.187,-0.203 0.332,-0.406 0.433,-0.679 0.098,-0.274 0.157,-0.621 0.188,-1.008 0.027,-0.391 0.027,-0.824 0.043,-1.242 0.012,-0.418 0.043,-0.825 0.086,-1.172 0.043,-0.344 0.101,-0.633 0.215,-0.895 0.117,-0.258 0.289,-0.488 0.433,-0.691 0.145,-0.203 0.262,-0.375 0.434,-0.723 0.172,-0.347 0.402,-0.867 0.594,-1.285 0.187,-0.418 0.332,-0.734 0.531,-1.098 0.203,-0.359 0.461,-0.761 0.723,-1.039 0.261,-0.273 0.519,-0.418 0.835,-0.547 0.321,-0.128 0.696,-0.246 0.954,-0.476 0.261,-0.231 0.406,-0.578 0.652,-0.852 0.242,-0.273 0.59,-0.476 0.949,-0.722 0.363,-0.246 0.738,-0.536 1.113,-0.707 0.375,-0.172 0.75,-0.231 1.039,-0.348 0.29,-0.113 0.493,-0.289 0.793,-0.434 0.305,-0.14 0.707,-0.257 1.04,-0.386 0.332,-0.133 0.593,-0.274 0.882,-0.434 0.289,-0.16 0.606,-0.332 0.938,-0.519 0.332,-0.188 0.68,-0.391 1.066,-0.594 0.391,-0.199 0.824,-0.403 1.172,-0.504 0.344,-0.102 0.606,-0.102 0.953,-0.102 0.344,0 0.778,0 1.184,-0.043 0.402,-0.043 0.777,-0.129 1.094,-0.246 0.32,-0.113 0.578,-0.258 0.882,-0.504 0.301,-0.246 0.649,-0.593 1.008,-0.781 0.363,-0.187 0.738,-0.215 1.172,-0.273 0.434,-0.059 0.922,-0.145 1.328,-0.215 0.403,-0.074 0.723,-0.133 1.024,-0.188 0.304,-0.058 0.593,-0.117 0.765,-0.32 0.172,-0.199 0.231,-0.547 0.317,-0.863 0.086,-0.317 0.203,-0.606 0.289,-1.039 0.086,-0.434 0.144,-1.012 0.015,-1.301 -0.129,-0.289 -0.449,-0.289 -0.808,-0.375 -0.36,-0.086 -0.766,-0.258 -1.114,-0.418 -0.343,-0.16 -0.632,-0.305 -0.906,-0.434 -0.277,-0.129 -0.535,-0.246 -0.738,-0.578 -0.203,-0.332 -0.348,-0.879 -0.418,-1.355 -0.074,-0.477 -0.074,-0.879 -0.059,-1.27 0.016,-0.39 0.043,-0.765 0.016,-1.082 -0.031,-0.32 -0.117,-0.578 -0.145,-0.808 -0.031,-0.231 0,-0.434 -0.085,-0.68 -0.086,-0.246 -0.29,-0.535 -0.551,-0.879 -0.258,-0.348 -0.574,-0.75 -0.735,-1.027 -0.16,-0.274 -0.16,-0.418 -0.16,-0.707 0,-0.289 0,-0.719 0.016,-1.168 0.012,-0.45 0.043,-0.911 0.027,-1.184 -0.012,-0.273 -0.07,-0.359 -0.215,-0.492 -0.144,-0.129 -0.375,-0.301 -0.562,-0.477 -0.188,-0.172 -0.332,-0.343 -0.461,-0.574 -0.133,-0.23 -0.246,-0.519 -0.277,-0.883 -0.028,-0.359 0.031,-0.793 0.16,-1.097 0.129,-0.301 0.332,-0.477 0.562,-0.707 0.231,-0.231 0.492,-0.52 0.664,-0.895 0.172,-0.375 0.258,-0.836 0.305,-1.211 0.043,-0.375 0.043,-0.664 0.043,-0.937 0,-0.278 0,-0.536 -0.016,-0.868 -0.015,-0.332 -0.043,-0.738 -0.074,-1.14 -0.027,-0.403 -0.055,-0.809 -0.07,-1.328 -0.016,-0.52 -0.016,-1.157 0.015,-1.602 0.028,-0.449 0.086,-0.707 0.2,-1.07 0.117,-0.36 0.289,-0.821 0.492,-1.27 0.203,-0.445 0.433,-0.879 0.722,-1.254 0.29,-0.379 0.633,-0.695 0.954,-0.968 0.316,-0.274 0.605,-0.504 0.879,-0.723 0.273,-0.215 0.535,-0.418 0.851,-0.621 0.316,-0.199 0.695,-0.403 1.125,-0.606 0.434,-0.203 0.926,-0.402 1.359,-0.578 0.434,-0.172 0.809,-0.316 1.211,-0.433 0.407,-0.114 0.84,-0.2 1.243,-0.301 0.402,-0.102 0.781,-0.219 1.183,-0.317 0.403,-0.101 0.836,-0.187 1.301,-0.234 0.461,-0.043 0.953,-0.043 1.441,-0.07 0.493,-0.028 0.981,-0.086 1.547,-0.043 0.563,0.043 1.196,0.187 1.875,0.418 0.68,0.23 1.399,0.551 2.008,0.765 0.606,0.215 1.094,0.332 1.57,0.504 0.477,0.176 0.942,0.407 1.371,0.653 0.434,0.242 0.84,0.504 1.258,0.82 0.418,0.32 0.852,0.695 1.211,1.039 0.363,0.348 0.653,0.664 0.981,1.098 0.332,0.433 0.711,0.984 1.054,1.547 0.348,0.562 0.664,1.14 0.825,1.628 0.156,0.493 0.156,0.895 0.144,1.43 -0.016,0.535 -0.043,1.199 -0.16,1.789 -0.117,0.594 -0.316,1.113 -0.52,1.645 -0.203,0.535 -0.406,1.082 -0.644,1.945 -0.234,0.863 -0.512,2.043 -0.66,2.617 -0.153,0.571 -0.18,0.539 -0.364,0.977 -0.183,0.433 -0.515,1.332 -0.668,2.262 -0.152,0.933 -0.121,1.898 0.055,2.695 0.176,0.797 0.492,1.422 0.524,2.043 0.035,0.617 -0.219,1.23 -0.188,1.808 0.027,0.579 0.336,1.121 0.508,1.75 0.168,0.633 0.195,1.356 0.211,1.993 0.015,0.632 0.015,1.183 0.187,1.656 0.172,0.476 0.52,0.883 0.911,1.082 0.39,0.203 0.824,0.203 1.226,0.234 0.402,0.028 0.781,0.086 1.039,0.242 0.262,0.161 0.402,0.422 0.68,0.739 0.273,0.316 0.676,0.691 1.008,1.023 0.332,0.332 0.593,0.621 0.824,0.781 0.23,0.157 0.433,0.188 0.691,0.258 0.262,0.074 0.578,0.188 0.91,0.321 0.332,0.128 0.68,0.273 1.082,0.429 0.407,0.16 0.868,0.332 1.317,0.52 0.445,0.191 0.879,0.39 1.269,0.551 0.391,0.156 0.735,0.273 1.153,0.39 0.422,0.113 0.91,0.231 1.328,0.332 0.422,0.098 0.765,0.188 1.183,0.387 0.422,0.203 0.911,0.519 1.532,0.867 0.621,0.348 1.371,0.723 1.949,1.098 0.578,0.375 0.98,0.75 1.328,1.125 0.344,0.375 0.633,0.75 0.91,1.039 0.274,0.289 0.531,0.492 0.664,0.594 0.129,0.097 0.992,0.964 1.297,1.195 0.305,0.234 0.91,0.695 1.402,1.012 0.489,0.316 0.864,0.492 1.137,0.793 0.278,0.304 0.449,0.738 0.567,1.085 0.113,0.344 0.171,0.606 0.273,1.083 0.102,0.476 0.246,1.167 0.359,1.789 0.118,0.621 0.204,1.168 0.289,1.703 0.086,0.535 0.172,1.054 0.348,1.429 0.172,0.375 0.434,0.606 0.664,0.879 0.231,0.274 0.434,0.594 0.676,0.953 0.246,0.36 0.535,0.766 0.797,1.387 0.258,0.621 0.488,1.457 0.605,2.051 0.114,0.59 0.114,0.937 0.114,1.527 0,0.594 0,1.43 0,2.153 0,0.722 0,1.328 0.015,2.062 0.016,0.738 0.043,1.602 0.117,2.496 0.071,0.899 0.188,1.821 0.243,2.512 0.058,0.695 0.058,1.156 0.058,1.848 0,0.695 0,1.617 -0.113,2.324 -0.117,0.707 -0.348,1.199 -0.551,1.703 -0.203,0.508 -0.375,1.027 -0.488,1.59 -0.117,0.562 -0.176,1.168 -0.203,1.761 -0.032,0.59 -0.032,1.168 -0.043,1.977 -0.016,0.809 -0.043,1.848 -0.031,3.074 0.015,1.227 0.074,2.641 0.101,3.594 0.031,0.953 0.031,1.445 0.031,1.906 0,0.461 0,0.895 0,1.66 0,0.766 0,1.86 -0.047,2.641 -0.043,0.777 -0.128,1.242 -0.199,1.719 -0.074,0.476 -0.133,0.965 -0.32,1.297 -0.188,0.332 -0.504,0.504 -0.75,0.664 -0.246,0.16 -0.418,0.304 -0.664,0.461 -0.242,0.16 -0.563,0.332 -0.766,0.722 -0.199,0.391 -0.285,0.996 -0.402,1.457 -0.117,0.465 -0.262,0.782 -0.418,1.157 -0.16,0.375 -0.332,0.808 -0.449,1.3 -0.114,0.489 -0.172,1.039 -0.317,1.614 -0.144,0.578 -0.375,1.183 -0.605,1.605 -0.231,0.418 -0.461,0.649 -0.723,0.981 -0.262,0.332 -0.547,0.765 -0.793,1.097 -0.246,0.332 -0.449,0.563 -0.551,0.981 -0.101,0.418 -0.101,1.023 -0.101,1.558 0,0.535 0,0.996 -0.086,1.446 -0.086,0.445 -0.258,0.879 -0.359,1.457 -0.102,0.578 -0.129,1.297 -0.231,1.804 -0.101,0.504 -0.273,0.793 -0.363,1.239 -0.086,0.449 -0.086,1.054 -0.086,1.707 0,0.648 0,1.34 0,2.121 0,0.777 0,1.644 0,2.469 0,0.82 0,1.601 0.074,2.207 0.07,0.605 0.215,1.039 0.375,1.472 0.16,0.434 0.332,0.867 0.59,1.227 0.262,0.359 0.609,0.648 0.809,1.066 0.203,0.422 0.261,0.969 -9.715,1.156 -9.973,0.188 -29.977,0.016 -39.981,-0.074 -10.004,-0.086 -10.004,-0.086 -9.859,-0.301 z"
         style="fill:#242424;fill-opacity:1;fill-rule:nonzero;stroke:none"
         id="path3426" />
      <path
         d="m 222.902,86.793 h 53.262 v 44.383 h -53.262 z"
         style="fill:#c40303;fill-opacity:1;fill-rule:nonzero;stroke:none"
         id="path3428" />
      <path
         d="m 238.234,130.914 c 0.133,-0.117 0.399,-0.348 0.536,-0.586 0.136,-0.242 0.144,-0.488 0.187,-0.746 0.047,-0.258 0.125,-0.519 0.066,-0.82 -0.062,-0.301 -0.269,-0.633 -0.46,-0.899 -0.188,-0.261 -0.364,-0.457 -0.575,-0.59 -0.211,-0.132 -0.457,-0.207 -0.703,-0.203 -0.246,0.004 -0.492,0.086 -0.676,0.071 -0.187,-0.016 -0.308,-0.133 -0.441,-0.278 -0.129,-0.144 -0.266,-0.316 -0.402,-0.527 -0.133,-0.211 -0.266,-0.465 -0.364,-0.723 -0.093,-0.258 -0.148,-0.523 -0.203,-0.808 -0.054,-0.289 -0.109,-0.598 -0.191,-0.84 -0.086,-0.242 -0.203,-0.414 -0.203,-0.711 0,-0.293 0.117,-0.707 0.109,-1.059 -0.012,-0.355 -0.148,-0.648 -0.137,-0.996 0.008,-0.347 0.168,-0.746 0.219,-1.183 0.051,-0.438 -0.012,-0.914 -0.125,-1.164 -0.113,-0.254 -0.277,-0.282 -0.441,-0.364 -0.164,-0.078 -0.321,-0.218 -0.504,-0.355 -0.18,-0.137 -0.387,-0.274 -0.582,-0.399 -0.199,-0.121 -0.391,-0.23 -0.504,-0.609 -0.113,-0.379 -0.149,-1.023 -0.121,-1.551 0.027,-0.527 0.117,-0.937 0.254,-1.215 0.136,-0.273 0.316,-0.41 0.488,-0.57 0.168,-0.16 0.328,-0.344 0.465,-0.57 0.137,-0.231 0.25,-0.504 0.304,-0.778 0.059,-0.273 0.059,-0.55 0.059,-0.961 0,-0.41 0,-0.96 0,-1.566 0,-0.605 0,-1.269 0.024,-1.785 0.023,-0.512 0.066,-0.879 0.156,-1.223 0.094,-0.343 0.226,-0.664 0.332,-0.961 0.101,-0.297 0.168,-0.57 0.269,-0.968 0.106,-0.403 0.239,-0.926 0.352,-1.34 0.117,-0.41 0.207,-0.707 0.355,-0.973 0.145,-0.262 0.352,-0.492 0.59,-0.766 0.238,-0.273 0.512,-0.593 0.805,-0.925 0.297,-0.332 0.613,-0.676 0.93,-0.938 0.32,-0.262 0.636,-0.445 0.988,-0.617 0.351,-0.172 0.738,-0.332 1.058,-0.48 0.317,-0.149 0.567,-0.286 0.872,-0.446 0.308,-0.16 0.671,-0.344 1.113,-0.469 0.445,-0.125 0.965,-0.195 1.433,-0.25 0.465,-0.058 0.872,-0.105 1.34,-0.128 0.465,-0.02 0.985,-0.02 1.43,-0.008 0.441,0.008 0.805,0.031 1.34,0.16 0.531,0.125 1.238,0.351 1.816,0.469 0.578,0.113 1.031,0.113 1.496,0.285 0.469,0.172 0.946,0.515 1.5,0.832 0.555,0.32 1.192,0.621 1.715,0.984 0.524,0.367 0.93,0.801 1.328,1.281 0.399,0.481 0.782,1.008 1.168,1.477 0.387,0.469 0.774,0.879 1.098,1.363 0.324,0.485 0.586,1.039 0.742,1.496 0.152,0.457 0.199,0.813 0.227,1.332 0.031,0.524 0.043,1.211 0.007,1.872 -0.031,0.656 -0.109,1.285 -0.179,1.753 -0.071,0.469 -0.129,0.778 -0.278,1.172 -0.148,0.395 -0.386,0.871 -0.566,1.289 -0.18,0.418 -0.301,0.778 -0.445,1.207 -0.145,0.434 -0.313,0.934 -0.496,1.43 -0.184,0.496 -0.379,0.984 -0.52,1.516 -0.141,0.535 -0.219,1.117 -0.25,1.59 -0.031,0.476 -0.012,0.847 -0.012,1.293 0,0.445 -0.015,0.96 -0.089,1.378 -0.079,0.414 -0.208,0.731 -0.258,1.071 -0.051,0.34 -0.024,0.711 -0.055,1.121 -0.031,0.414 -0.125,0.871 -0.148,1.273 -0.028,0.399 0.019,0.742 0.109,1.063 0.094,0.32 0.23,0.617 0.41,0.879 0.184,0.261 0.41,0.492 0.555,0.847 0.148,0.352 0.219,0.832 0.387,1.188 0.171,0.355 0.445,0.582 0.695,0.742 0.25,0.16 0.476,0.254 0.715,0.32 0.238,0.071 0.488,0.114 0.816,0.239 0.332,0.125 0.746,0.328 1.016,0.488 0.273,0.16 0.406,0.277 -3.364,0.32 -3.773,0.047 -11.449,0.02 -15.218,-0.051 -3.77,-0.066 -3.633,-0.175 -3.563,-0.23 0.067,-0.055 0.067,-0.055 0.199,-0.172 z"
         style="fill:#2d2222;fill-opacity:1;fill-rule:nonzero;stroke:none"
         id="path3430" />
      <g
         id="g3432">
        <g
           id="g3434" />
        <g
           id="g3452">
          <g
             clip-path="url(#clipPath3438)"
             opacity="0.78"
             id="g3450">
            <g
               id="g3448">
              <text
                 xml:space="preserve"
                 transform="matrix(1,0,0,0.48709914,228.60064,154.36123)"
                 style="font-variant:normal;font-weight:normal;font-size:14.771px;font-family:Haettenschweiler;-inkscape-font-specification:Haettenschweiler;writing-mode:lr-tb;fill:#c40303;fill-opacity:1;fill-rule:nonzero;stroke:none"
                 id="text3446"><tspan
                   x="0 5.5968347 12.095222 18.016615 23.656725 30.155111 35.622124"
                   y="0"
                   sodipodi:role="line"
                   id="tspan3440">BARDACH</tspan><tspan
                   x="1.8860534 7.353065 12.993175 18.770319 25.045122 30.216423 36.714809"
                   y="19.344522"
                   sodipodi:role="line"
                   id="tspan3442">COUNTY </tspan><tspan
                   x="11.024179 16.383005 22.881392 25.571623"
                   y="38.689045"
                   sodipodi:role="line"
                   id="tspan3444">JAIL</tspan></text>
            </g>
          </g>
        </g>
      </g>
      <path
         d="m 450.438,955 c -2.641,0.074 -5.379,-0.312 -7.895,0.527 -3.809,1.27 0.832,-0.152 -1.578,1.051 -0.156,0.082 -0.348,0 -0.524,0 -0.527,0.176 -1.082,0.281 -1.578,0.527 -0.925,0.461 -1.519,1.133 -2.633,1.579 -0.324,0.132 -0.718,-0.11 -1.05,0 -1.34,0.449 -0.903,1.578 -2.633,1.578 -0.352,0 -0.699,0 -1.051,0 0,0.176 0.156,0.449 0,0.527 -0.473,0.234 -1.207,-0.371 -1.578,0 -0.125,0.125 0.156,0.449 0,0.527 -0.785,0.391 -1.773,-0.171 -2.633,0 -1.172,0.235 -4.855,1.114 -5.785,1.579 -0.223,0.109 -0.293,0.445 -0.527,0.523 -0.379,0.129 -2.336,0.23 -2.629,0.527 -0.125,0.125 0.121,0.403 0,0.528 -0.239,0.234 -4.309,2.488 -4.739,2.629 -1.671,0.558 -3.644,-0.012 -5.261,0.527 -0.371,0.125 -0.68,0.402 -1.051,0.527 -0.875,0.289 -2.332,-0.414 -3.156,0 -0.223,0.11 -0.352,0.352 -0.528,0.524 -0.527,0 -1.066,-0.125 -1.578,0 -0.242,0.062 -0.289,0.449 -0.527,0.527 -2.277,0.758 0.195,-1.004 -2.102,0.527 -2.168,1.446 -2.785,2.598 -4.211,4.735 -0.273,0.414 -0.832,0.609 -1.05,1.051 -0.161,0.32 -0.309,1.359 -0.528,1.582 -0.328,0.328 -4.191,1.593 -3.683,2.101 0.218,0.219 3.082,-0.488 3.156,-0.523 0.156,-0.082 0,-0.352 0,-0.528 0.352,-0.175 0.68,-0.402 1.055,-0.527 0.472,-0.156 1.105,0.16 1.578,0 2.101,-0.699 -1.754,-0.574 1.578,-1.051 1.594,-0.226 9.394,0.824 9.996,0.528 2.191,-1.098 -0.563,0.035 0.527,-1.055 0.121,-0.125 0.368,0.078 0.524,0 1.308,-0.652 1.59,-1.711 3.16,-2.106 2.601,-0.648 5.879,0.848 8.418,0 1.664,-0.554 0.367,-1.175 1.578,-1.578 0.332,-0.109 0.719,0.114 1.051,0 0.472,-0.156 0.609,-0.828 1.051,-1.05 0.316,-0.157 0.804,0.246 1.054,0 0.344,-0.344 0.328,-1.215 1.051,-1.579 0.156,-0.078 0.402,0.125 0.527,0 1.09,-1.089 -1.664,0.043 0.528,-1.054 0.156,-0.078 0.402,0.125 0.523,0 0.395,-0.391 0.137,-1.184 0.528,-1.578 0.73,-0.731 2.335,-1.168 3.156,-1.579 0.715,-0.355 1.39,-1.218 2.105,-1.578 1.449,-0.722 2.352,-0.082 3.684,-0.527 1.015,-1.012 0.019,-0.266 1.051,-0.523 1.425,-0.356 7.406,-1.957 8.418,-2.633 0.148,-0.098 -0.122,-0.403 0,-0.524 0.277,-0.277 0.703,-0.351 1.054,-0.527 0.68,-0.34 0.824,-0.023 1.578,-0.527 0.129,-0.086 2.629,-1.489 2.629,-1.579 0,-0.785 -0.699,-1.402 -1.05,-2.105 z"
         style="fill:#800000;fill-opacity:1;fill-rule:nonzero;stroke:none"
         id="path3454" />
      <path
         d="m 356.496,226.891 0.078,-1.356 -0.238,-0.797 v -0.875 l -0.559,-0.554 -0.476,-0.879 -0.477,-0.715 -0.558,-0.875 -0.317,-0.32 -0.16,-0.954 -0.398,-0.48 -0.637,-0.637 -0.238,-0.636 -0.239,-0.555 -0.082,-0.957 -0.238,-0.317 -0.16,-0.32 -0.399,-0.715 -0.316,-0.558 v -0.957 l -0.082,-0.875 0.082,-1.036 -0.16,-0.875 -0.477,-1.351 -0.32,-0.719 -0.316,-0.637 -0.481,-0.316 -1.113,-0.48 -0.875,-0.079 h -3.82 l -2.071,0.161 -1.754,-0.321 h -1.113 l -2.309,0.082 -1.832,-0.398 -0.16,-1.754 0.16,-1.91 v -1.75 l 0.239,-3.821 -0.078,-2.152 v -3.742 l 0.16,-2.148 0.16,-1.192 0.238,-1.832 0.317,-1.992 v -1.91 l -0.161,-1.274 v -1.351 l -0.078,-1.672 v -0.879 l 0.078,-2.227 0.082,-0.796 0.161,-1.993 0.078,-1.672 0.078,-1.511 v -2.625 l 0.242,-1.356 v -2.945 l -0.32,-1.59 v -3.187 l 0.078,-2.387 0.16,-1.434 -0.16,-1.75 -0.156,-1.035 -0.239,-0.797 -0.398,-0.476 -0.719,-0.719 h -2.07 l -0.637,0.32 -0.715,0.555 -0.875,0.082 h -1.593 l -1.196,0.477 h -0.793 l -0.879,-0.559 v -0.793 l -0.394,-0.637 -0.957,-1.195 -0.875,-0.477 -0.559,-0.082 -0.808,0.504 -0.825,0.367 -0.504,0.09 -0.867,0.457 -0.687,0.504 -0.547,0.457 -0.688,0.551 -0.457,0.273 -1.328,0.231 -1.14,-0.094 -0.871,-0.183 -0.684,-0.641 -0.367,-0.273 -0.824,-0.09 -0.688,-0.137 -0.547,-0.23 -0.23,-0.368 -0.043,-0.547 -0.641,-0.183 h -1.008 l -0.457,-0.274 -0.047,-0.55 0.094,-0.641 0.547,-0.457 0.457,-0.227 0.504,-0.23 1.008,-0.731 0.504,-0.367 0.64,-0.547 0.594,-0.503 0.547,-0.504 0.32,-0.457 0.137,-0.457 0.047,-0.457 -0.227,-0.321 -0.597,-0.32 -0.641,-0.047 -0.594,-0.227 -0.64,-0.32 -0.457,-0.23 -0.137,-0.457 0.09,-0.457 0.367,-0.231 0.73,-0.18 0.688,-0.046 h 0.594 l 1.464,0.089 h 1.418 l 1.329,0.137 1.277,0.094 1.281,0.32 0.824,-0.137 0.914,-0.414 0.914,-0.64 0.825,-0.41 1.05,-0.504 0.918,-0.547 0.778,-0.504 0.867,-0.551 0.777,-0.547 0.731,-0.55 0.871,-0.684 0.687,-0.594 0.731,-0.597 0.547,-0.684 0.961,-0.598 0.504,-0.593 0.273,-0.547 0.23,-0.551 0.184,-0.867 0.043,-0.871 0.047,-1.325 0.09,-1.281 0.047,-1.328 v -1.645 l 0.046,-1.554 0.047,-1.418 0.043,-0.688 v -0.914 l -0.043,-1.144 v -1.282 l 0.043,-0.73 0.137,-0.457 v -1.922 l 0.184,-0.867 0.457,-0.824 0.593,-0.961 0.414,-0.778 0.547,-0.687 0.321,-0.457 0.367,-0.547 0.226,-0.594 v -0.64 l 0.321,-1.739 0.093,-0.504 0.411,-0.777 0.367,-0.961 0.137,-0.547 0.183,-0.918 0.684,-1.965 0.414,-0.914 0.41,-1.007 0.367,-1.098 0.047,-0.824 0.18,-1.051 v -2.195 l 0.457,-0.641 0.23,-0.867 0.137,-0.871 0.047,-0.914 0.137,-1.188 0.41,-0.734 0.152,-0.364 0.582,-0.128 h 2.719 l 0.258,-0.711 0.062,-0.778 -0.387,-0.449 -2.023,-0.215 -1.145,-0.277 -0.589,-0.348 -0.832,-0.14 -0.586,-0.036 -0.661,-0.136 -0.449,-0.207 -0.453,-0.348 -0.137,-0.484 -0.277,-0.418 -0.207,-0.172 -0.141,-0.418 -0.242,-0.414 -0.277,-0.348 -0.313,-0.207 -0.207,-0.312 v -0.243 l -0.172,-0.207 -0.277,-0.242 -0.418,-0.176 -0.312,-0.136 -0.071,-0.348 -0.066,-0.379 -0.106,-0.523 -0.136,-0.692 -0.211,-0.761 -0.172,-0.731 -0.383,-0.172 h -0.308 l -0.833,-0.105 -0.554,-0.137 -0.176,-0.172 v -0.625 l 0.176,-0.484 0.277,-0.453 0.242,-0.692 0.102,-0.347 v -1.352 h -1.317 l -0.726,-0.172 -0.66,-0.207 -0.485,-0.246 -0.519,-0.309 -0.555,-0.589 -0.414,-0.485 -0.176,-0.554 -0.07,-0.555 0.07,-0.66 0.313,-0.762 0.383,-0.555 0.308,-0.519 0.313,-0.731 0.625,-0.519 0.383,-0.59 0.449,-0.277 0.554,-0.45 0.727,-0.797 0.313,-0.382 0.382,-0.52 0.59,-0.449 0.621,-0.484 0.696,-0.313 0.691,-0.312 0.453,-0.415 0.102,-0.453 v -0.656 l 0.207,-0.348 0.347,-0.347 0.141,-0.52 0.066,-0.277 0.176,-0.52 0.207,-0.484 0.485,-0.52 0.554,-0.382 0.453,-0.278 0.586,-0.207 0.418,-0.347 0.657,-0.243 0.972,-0.105 0.832,-0.066 0.762,-0.036 0.59,-0.382 0.656,-0.59 0.488,-0.102 1.075,-0.176 1.453,-0.066 1.664,0.102 1.25,0.242 0.867,0.277 0.484,0.625 0.278,0.313 0.519,0.625 0.625,0.242 0.727,0.242 0.761,0.348 0.59,0.379 0.242,0.902 0.208,1.004 0.035,0.972 v 1.766 l 0.207,0.832 0.246,1.215 -0.035,0.832 v 0.621 l 0.449,0.52 0.484,0.418 0.973,0.625 0.656,0.726 0.695,0.555 0.52,0.59 0.449,0.379 0.313,0.695 0.277,0.59 0.348,0.832 v 0.414 l 0.035,0.418 -0.035,0.586 -0.383,0.418 -0.379,0.414 -0.313,0.242 -0.488,0.348 -0.172,0.347 -0.625,0.278 -0.621,0.035 h -0.765 l -0.485,0.07 -0.035,1.352 0.035,0.379 0.106,0.972 0.242,0.137 0.691,0.07 1.043,0.137 1.11,0.453 0.898,0.656 0.797,0.797 0.797,0.242 0.972,0.489 0.833,0.379 0.933,0.832 0.902,0.796 0.625,0.52 0.52,0.488 0.691,0.309 0.731,0.695 0.656,0.449 0.52,0.485 0.66,0.625 0.969,1.144 0.625,0.414 0.242,0.524 0.519,0.828 0.383,0.277 0.106,0.59 0.207,0.66 0.277,0.52 0.59,0.519 0.207,0.418 0.101,0.485 0.489,0.312 0.379,0.586 0.418,0.453 0.414,0.969 0.14,0.59 0.449,1.281 0.313,0.555 0.035,0.418 v 1.386 l 0.207,0.692 0.172,0.519 0.105,0.797 0.172,1.008 0.141,1.664 0.07,0.586 v 1.18 l 0.449,3.535 0.137,1.18 v 0.933 l 0.141,0.797 0.242,0.766 0.172,0.898 0.277,1.352 0.071,1.179 0.14,0.938 0.414,0.898 0.207,1.145 0.141,1.144 0.172,1.211 v 1.215 l 0.453,1.246 0.242,0.453 0.102,0.485 0.382,2.426 0.207,0.832 0.106,0.902 0.348,0.555 v 1.004 l 0.066,1.628 0.242,1.075 v 1.281 l 0.071,1.285 0.312,1.316 0.035,0.797 0.102,1.282 0.246,1.039 0.066,1.179 0.035,1.282 0.141,0.902 0.172,1.039 0.348,0.313 0.242,1.25 0.035,0.828 0.277,2.152 0.067,0.969 0.277,0.66 0.242,0.586 0.141,0.765 0.347,0.586 0.278,0.211 0.277,0.485 0.137,0.625 0.105,0.621 0.555,1.941 0.313,1.11 0.101,0.867 0.141,1.246 0.379,0.832 0.277,0.973 0.07,0.933 0.141,0.973 0.414,0.902 0.172,0.762 0.941,3.305 0.059,0.843 0.222,1.071 0.114,0.957 0.113,0.789 0.563,1.179 0.339,0.903 0.391,0.336 0.34,1.746 0.394,1.574 0.282,1.129 0.562,1.519 0.168,0.957 0.168,0.899 0.621,0.789 0.449,1.238 v 0.844 l 0.227,1.125 0.562,1.016 0.168,0.789 0.395,1.461 0.168,1.296 v 2.137 l 0.281,1.633 0.281,1.07 0.676,0.731 0.676,2.254 0.281,1.406 0.395,0.957 0.281,1.012 0.172,1.07 0.504,1.578 0.394,1.293 0.227,1.352 0.055,1.238 -0.114,0.676 -0.222,0.281 -1.352,0.055 h -1.406 l -5.012,-0.11 H 381.48 l -2.925,-0.113 -0.903,0.504 v 2.195 l 0.395,1.129 v 1.125 l 0.34,1.461 0.113,0.789 0.336,0.563 0.168,1.183 -0.055,1.465 v 0.785 l 0.281,1.578 0.227,1.239 0.055,1.632 -0.055,1.747 v 1.293 l 0.391,1.519 v 0.789 l -23.36,0.899 v -0.957 l 0.008,-0.297 4.832,1.875"
         style="fill:#242424;fill-opacity:1;fill-rule:nonzero;stroke:none"
         id="path3456" />
    </g>
  </g>
</svg>
