<?xml version="1.0" encoding="UTF-8" standalone="no"?>
<svg
   xml:space="preserve"
   width="202.2738"
   height="141.55469"
   version="1.1"
   id="svg8"
   sodipodi:docname="YouTube logo.svg"
   inkscape:version="1.2.1 (9c6d41e410, 2022-07-14)"
   xmlns:inkscape="http://www.inkscape.org/namespaces/inkscape"
   xmlns:sodipodi="http://sodipodi.sourceforge.net/DTD/sodipodi-0.dtd"
   xmlns="http://www.w3.org/2000/svg"
   xmlns:svg="http://www.w3.org/2000/svg"><defs
   id="defs12" /><sodipodi:namedview
   id="namedview10"
   pagecolor="#505050"
   bordercolor="#eeeeee"
   borderopacity="1"
   inkscape:showpageshadow="0"
   inkscape:pageopacity="0"
   inkscape:pagecheckerboard="0"
   inkscape:deskcolor="#505050"
   showgrid="false"
   inkscape:zoom="2.7633333"
   inkscape:cx="47.225574"
   inkscape:cy="99.879374"
   inkscape:window-width="1920"
   inkscape:window-height="1009"
   inkscape:window-x="-8"
   inkscape:window-y="52"
   inkscape:window-maximized="1"
   inkscape:current-layer="svg8" />
  <g
   transform="matrix(0.75,0,0,0.75,-48.863283,-79.222679)"
   id="g6">
    <path
   fill="#ffffff"
   d="m 162.60555,151.02533 h 85.88661 v 97.94933 h -85.88661 z"
   id="path2"
   style="stroke-width:0.999996" />
    <path
   fill="#ff0000"
   d="m 199.91667,105.63024 c 0,0 -84.2918,8e-5 -105.447918,5.49739 -11.327716,3.16507 -20.655211,12.49267 -23.820312,23.98699 -5.497271,21.15613 -5.497396,64.96875 -5.497396,64.96875 0,0 1.25e-4,43.97893 5.497396,64.80208 3.165101,11.49416 12.326008,20.65517 23.820312,23.82032 21.322708,5.66384 105.447918,5.66405 105.447918,5.66405 0,0 84.45891,-7e-5 105.61459,-5.49739 11.49439,-3.16508 20.65511,-12.15954 23.65364,-23.82032 5.66391,-20.98976 5.66407,-64.80208 5.66407,-64.80208 0,0 0.16645,-43.97928 -5.66407,-65.13541 -2.99853,-11.49432 -12.15925,-20.65511 -23.65364,-23.65365 -21.15568,-5.83047 -105.61459,-5.83073 -105.61459,-5.83073 z m -26.82031,53.97395 70.13282,40.47918 -70.13282,40.3125 z"
   id="path4" />
  </g>
</svg>
