<svg xmlns="http://www.w3.org/2000/svg" xml:space="preserve" width="202.274" height="141.555"><path fill="#fff" d="M162.606 151.025h85.886v97.95h-85.886z" style="stroke-width:.999996" transform="matrix(.75 0 0 .75 -48.863 -79.223)"/><path fill="red" d="M101.074 0S37.855 0 21.988 4.123c-8.496 2.374-15.491 9.37-17.865 17.99C0 37.98 0 70.84 0 70.84s0 32.984 4.123 48.601c2.374 8.621 9.245 15.492 17.865 17.866 15.992 4.248 79.086 4.248 79.086 4.248s63.344 0 79.211-4.123c8.621-2.374 15.491-9.12 17.74-17.866 4.248-15.742 4.248-48.601 4.248-48.601s.125-32.985-4.248-48.852c-2.249-8.62-9.119-15.491-17.74-17.74C164.418 0 101.075 0 101.075 0M80.96 40.48l52.6 30.36-52.6 30.234z"/></svg>